<svg width="506" height="322" viewBox="0 0 506 322" fill="none" xmlns="http://www.w3.org/2000/svg">
<path d="M453.002 300.818C467.248 300.818 478.797 289.866 478.797 276.356C478.797 262.846 467.248 251.894 453.002 251.894C438.756 251.894 427.208 262.846 427.208 276.356C427.208 289.866 438.756 300.818 453.002 300.818Z" fill="#E47C98" fill-opacity="0.5"/>
<path d="M111.916 184.322C126.161 184.322 137.71 173.37 137.71 159.86C137.71 146.35 126.161 135.398 111.916 135.398C97.6697 135.398 86.1211 146.35 86.1211 159.86C86.1211 173.37 97.6697 184.322 111.916 184.322Z" fill="#E47C98" fill-opacity="0.5"/>
<path d="M31.2681 299.106C45.5139 299.106 57.0625 288.154 57.0625 274.644C57.0625 261.134 45.5139 250.182 31.2681 250.182C17.0222 250.182 5.47363 261.134 5.47363 274.644C5.47363 288.154 17.0222 299.106 31.2681 299.106Z" fill="#F4D4CB" fill-opacity="0.5"/>
<path d="M37.5454 72.4185C51.7912 72.4185 63.3398 61.4664 63.3398 47.9563C63.3398 34.4462 51.7912 23.4941 37.5454 23.4941C23.2995 23.4941 11.751 34.4462 11.751 47.9563C11.751 61.4664 23.2995 72.4185 37.5454 72.4185Z" fill="#FAE285" fill-opacity="0.5"/>
<path d="M468.034 205.172C482.28 205.172 493.828 194.22 493.828 180.71C493.828 167.2 482.28 156.248 468.034 156.248C453.788 156.248 442.239 167.2 442.239 180.71C442.239 194.22 453.788 205.172 468.034 205.172Z" fill="#FAE285" fill-opacity="0.5"/>
<path d="M137.709 50.8637C151.955 50.8637 163.504 39.9117 163.504 26.4016C163.504 12.8915 151.955 1.93945 137.709 1.93945C123.464 1.93945 111.915 12.8915 111.915 26.4016C111.915 39.9117 123.464 50.8637 137.709 50.8637Z" fill="#C19EC8" fill-opacity="0.5"/>
<path d="M191.689 321.523C205.935 321.523 217.483 310.571 217.483 297.061C217.483 283.551 205.935 272.599 191.689 272.599C177.443 272.599 165.895 283.551 165.895 297.061C165.895 310.571 177.443 321.523 191.689 321.523Z" fill="#B4B6D9" fill-opacity="0.5"/>
<path d="M387.339 59.3979C401.585 59.3979 413.134 48.4459 413.134 34.9358C413.134 21.4257 401.585 10.4736 387.339 10.4736C373.093 10.4736 361.545 21.4257 361.545 34.9358C361.545 48.4459 373.093 59.3979 387.339 59.3979Z" fill="#EFCEE1" fill-opacity="0.5"/>
<path d="M130.421 272.599C144.667 272.599 156.216 261.647 156.216 248.137C156.216 234.626 144.667 223.674 130.421 223.674C116.176 223.674 104.627 234.626 104.627 248.137C104.627 261.647 116.176 272.599 130.421 272.599Z" fill="#B6D6D0" fill-opacity="0.5"/>
<path d="M246.232 48.9243C260.478 48.9243 272.026 37.9722 272.026 24.4621C272.026 10.9521 260.478 0 246.232 0C231.986 0 220.438 10.9521 220.438 24.4621C220.438 37.9722 231.986 48.9243 246.232 48.9243Z" fill="#F2ADAD" fill-opacity="0.5"/>
<path d="M159.453 94.9492C173.698 94.9492 185.247 83.9971 185.247 70.487C185.247 56.977 173.698 46.0249 159.453 46.0249C145.207 46.0249 133.658 56.977 133.658 70.487C133.658 83.9971 145.207 94.9492 159.453 94.9492Z" fill="#B6D6D0" fill-opacity="0.5"/>
<path d="M479.267 66.4824C493.513 66.4824 505.061 55.5303 505.061 42.0202C505.061 28.5102 493.513 17.5581 479.267 17.5581C465.021 17.5581 453.473 28.5102 453.473 42.0202C453.473 55.5303 465.021 66.4824 479.267 66.4824Z" fill="#C1D5EA" fill-opacity="0.5"/>
<path d="M285.494 314.952C299.739 314.952 311.288 304 311.288 290.489C311.288 276.979 299.739 266.027 285.494 266.027C271.248 266.027 259.699 276.979 259.699 290.489C259.699 304 271.248 314.952 285.494 314.952Z" fill="#E6A67B" fill-opacity="0.5"/>
<path d="M386.019 223.67C400.265 223.67 411.813 212.718 411.813 199.208C411.813 185.698 400.265 174.746 386.019 174.746C371.773 174.746 360.225 185.698 360.225 199.208C360.225 212.718 371.773 223.67 386.019 223.67Z" fill="#C19EC8" fill-opacity="0.5"/>
<path d="M314.948 290.877C329.194 290.877 340.742 279.925 340.742 266.415C340.742 252.905 329.194 241.953 314.948 241.953C300.702 241.953 289.153 252.905 289.153 266.415C289.153 279.925 300.702 290.877 314.948 290.877Z" fill="#EFCEE1" fill-opacity="0.5"/>
<path d="M213.086 220.226C227.332 220.226 238.881 209.274 238.881 195.764C238.881 182.254 227.332 171.302 213.086 171.302C198.841 171.302 187.292 182.254 187.292 195.764C187.292 209.274 198.841 220.226 213.086 220.226Z" fill="#F4D4CB" fill-opacity="0.5"/>
<path d="M412.679 141.17C426.925 141.17 438.474 130.218 438.474 116.708C438.474 103.198 426.925 92.2456 412.679 92.2456C398.433 92.2456 386.885 103.198 386.885 116.708C386.885 130.218 398.433 141.17 412.679 141.17Z" fill="#F2ADAD" fill-opacity="0.5"/>
<path d="M301.783 199.204C316.029 199.204 327.577 188.252 327.577 174.742C327.577 161.232 316.029 150.28 301.783 150.28C287.537 150.28 275.988 161.232 275.988 174.742C275.988 188.252 287.537 199.204 301.783 199.204Z" fill="#C1D5EA" fill-opacity="0.5"/>
<path d="M25.7944 162.885C40.0403 162.885 51.5888 151.933 51.5888 138.423C51.5888 124.913 40.0403 113.961 25.7944 113.961C11.5486 113.961 0 124.913 0 138.423C0 151.933 11.5486 162.885 25.7944 162.885Z" fill="#C1D5EA" fill-opacity="0.5"/>
<path d="M314.948 99.1728C329.194 99.1728 340.742 88.2208 340.742 74.7107C340.742 61.2006 329.194 50.2485 314.948 50.2485C300.702 50.2485 289.153 61.2006 289.153 74.7107C289.153 88.2208 300.702 99.1728 314.948 99.1728Z" fill="#B6D6D0" fill-opacity="0.5"/>
<path d="M231.749 130.586C245.995 130.586 257.544 119.634 257.544 106.124C257.544 92.6142 245.995 81.6621 231.749 81.6621C217.504 81.6621 205.955 92.6142 205.955 106.124C205.955 119.634 217.504 130.586 231.749 130.586Z" fill="#F1CB34" fill-opacity="0.5"/>
</svg>
