<svg width="578" height="308" viewBox="0 0 578 308" fill="none" xmlns="http://www.w3.org/2000/svg">
<path d="M106.7 36.182L121.684 18.7886L181.995 69.0921L167.011 86.4857L106.7 36.182Z" fill="#B6D6D0" fill-opacity="0.5"/>
<path d="M11.7512 202.785L0 183.135L68.1516 143.689L79.8989 163.343L11.7512 202.785Z" fill="#E6A67B" fill-opacity="0.5"/>
<path d="M37.6667 16.3237L60.5183 20.1206L47.3489 96.8258L24.4971 93.029L37.6667 16.3237Z" fill="#C19EC8" fill-opacity="0.5"/>
<path d="M323.486 142.149L338.474 124.756L398.789 175.059L383.801 192.453L323.486 142.149Z" fill="#E6A67B" fill-opacity="0.5"/>
<path d="M427.883 225.978L450.107 232.439L427.702 307.044L405.478 300.583L427.883 225.978Z" fill="#B6D6D0" fill-opacity="0.5"/>
<path d="M494.736 181.744L482.989 162.09L551.137 122.648L562.888 142.298L494.736 181.744Z" fill="#F4D4CB" fill-opacity="0.5"/>
<path d="M239.892 251.4L231.487 230.151L305.168 201.935L313.572 223.184L239.892 251.4Z" fill="#EFCEE1" fill-opacity="0.5"/>
<path d="M476.332 90.8113L475.173 113.585L396.206 109.686L397.366 86.9126L476.332 90.8113Z" fill="#E47C98" fill-opacity="0.5"/>
<path d="M292.771 117.221L270.197 122.381L252.29 46.6126L274.864 41.4482L292.771 117.221Z" fill="#FAE285" fill-opacity="0.5"/>
<path d="M374.331 36.4287L363.477 56.5768L293.617 20.1442L304.471 0L374.331 36.4287Z" fill="#EFCEE1" fill-opacity="0.5"/>
<path d="M174.809 192.433L153.517 183.425L184.75 111.958L206.038 120.967L174.809 192.433Z" fill="#C19EC8" fill-opacity="0.5"/>
<path d="M494.979 50.131L502.86 28.686L577.214 55.1465L569.33 76.5877L494.979 50.131Z" fill="#C1D5EA" fill-opacity="0.5"/>
<path d="M573.362 294.494L553.292 305.896L513.756 238.524L533.826 227.126L573.362 294.494Z" fill="#B4B6D9" fill-opacity="0.5"/>
<path d="M138.771 292.222L143.133 269.828L220.786 284.467L216.425 306.86L138.771 292.222Z" fill="#E6A67B" fill-opacity="0.5"/>
<path d="M81.6814 208.549L104.721 211.006L96.1951 288.346L73.1553 285.885L81.6814 208.549Z" fill="#F4D4CB" fill-opacity="0.5"/>
</svg>
