<svg width="351" height="331" viewBox="0 0 351 331" fill="none" xmlns="http://www.w3.org/2000/svg">
<path d="M54.0547 276.675C68.9552 276.675 81.2703 288.882 81.2705 303.632C81.2705 316.87 68.9429 330.36 54.0547 330.36C39.1718 330.36 27.0693 316.876 27.0693 303.632C27.0695 288.876 39.1596 276.675 54.0547 276.675ZM203.188 276.675C218.085 276.675 230.287 288.879 230.287 303.632C230.287 316.873 218.073 330.36 203.188 330.36C188.302 330.36 176.088 316.873 176.088 303.632C176.088 288.879 188.277 276.675 203.188 276.675ZM334.512 0.802734C337.822 0.175509 341.133 0.526561 343.773 1.83984C346.412 3.15237 348.396 5.42918 349.074 8.7041L349.106 8.86133L349.226 8.9707C350.476 10.1204 350.487 11.3228 350.5 12.7363C350.499 15.3655 349.812 17.6198 348.487 19.3818C347.164 21.143 345.177 22.4493 342.513 23.1367L342.484 23.1436L342.457 23.1543L342.455 23.1553C342.454 23.1559 342.451 23.157 342.448 23.1582C342.442 23.1605 342.433 23.1634 342.421 23.168C342.397 23.1772 342.361 23.1918 342.314 23.21C342.22 23.2464 342.08 23.3004 341.896 23.3711C341.53 23.5126 340.991 23.7202 340.303 23.9863C338.925 24.5188 336.945 25.284 334.54 26.2148C329.729 28.0765 323.214 30.6009 316.396 33.251C302.765 38.5497 287.912 44.3563 283.063 46.373L282.843 46.4648L282.775 46.6953C281.405 51.4274 270.025 87.9427 258.64 124.13C252.948 142.221 247.256 160.227 242.814 174.132C238.367 188.054 235.186 197.831 234.506 199.497L234.495 199.522L234.487 199.55L217.893 258.327C216.554 260.972 214.884 262.928 212.919 264.226C210.947 265.527 208.653 266.184 206.048 266.184H47.2441C43.8745 266.184 40.8888 265.204 38.7549 263.415C36.6304 261.634 35.3165 259.025 35.3164 255.681C35.3164 249.204 40.5875 243.97 47.2441 243.97V243.47C47.2441 243.97 47.2451 243.97 47.2461 243.97H196.616L196.734 243.636C199.603 235.455 203.673 220.391 206.532 209.392L206.694 208.766H48.667C43.2651 208.765 38.0019 204.895 36.7256 199.569L36.7227 199.558L36.7197 199.545L0.764648 76.6787C-0.595627 70.1983 3.40883 63.7154 10.0684 62.252L10.124 62.2402L10.1758 62.2158C12.7405 60.9989 15.6741 61.3378 18.332 62.8301C20.9858 64.32 23.3276 66.9446 24.6611 70.2158C24.6641 70.2262 24.6676 70.2395 24.6719 70.2549C24.6852 70.3022 24.7053 70.3728 24.7314 70.4658C24.7838 70.6523 24.8612 70.9293 24.9629 71.291C25.1664 72.0148 25.4659 73.0789 25.8486 74.4385C26.6141 77.1577 27.7141 81.0603 29.0508 85.7949C31.7243 95.2647 35.3466 108.063 39.1406 121.375C46.7264 147.991 55.0061 176.687 57.7617 184.928L57.875 185.27H214.663L214.771 184.917L261.61 33.3613C263.001 29.378 265.645 26.6733 269.545 25.418L269.558 25.4141L269.569 25.4102L334.512 0.802734Z" fill="#7E4D28" stroke="#7E4D28"/>
<path d="M213.528 104.81L183.357 171.5H89.8955L59.7246 104.81H213.528Z" fill="#7E4D28" stroke="#7E4D28"/>
<path d="M80.6104 67.6355C89.8073 67.6356 98.1111 70.0985 104.101 74.0535C110.094 78.0111 113.72 83.4219 113.72 89.3289C113.72 95.236 110.094 100.648 104.101 104.605C98.1111 108.56 89.8073 111.022 80.6104 111.022C71.4134 111.022 63.1096 108.56 57.1201 104.605C51.1266 100.648 47.5 95.236 47.5 89.3289C47.5001 83.4218 51.1267 78.0111 57.1201 74.0535C63.1096 70.0985 71.4133 67.6355 80.6104 67.6355Z" fill="#7E4D28" stroke="#7E4D28"/>
<path d="M193.391 67.6355C202.588 67.6356 210.891 70.0985 216.881 74.0535C222.874 78.0111 226.5 83.4219 226.5 89.3289C226.5 95.236 222.874 100.648 216.881 104.605C210.891 108.56 202.588 111.022 193.391 111.022C184.194 111.022 175.89 108.56 169.9 104.605C163.907 100.648 160.28 95.236 160.28 89.3289C160.28 83.4218 163.907 78.0111 169.9 74.0535C175.89 70.0985 184.194 67.6355 193.391 67.6355Z" fill="#7E4D28" stroke="#7E4D28"/>
<path d="M170.237 45.4419C179.434 45.442 187.738 47.9049 193.727 51.8599C199.72 55.8175 203.346 61.2283 203.346 67.1353C203.346 73.0424 199.72 78.454 193.727 82.4116C187.738 86.3666 179.434 88.8286 170.237 88.8286C161.04 88.8286 152.736 86.3665 146.747 82.4116C140.753 78.454 137.126 73.0424 137.126 67.1353C137.127 61.2282 140.753 55.8175 146.747 51.8599C152.736 47.9049 161.04 45.4419 170.237 45.4419Z" fill="#7E4D28" stroke="#7E4D28"/>
<path d="M103.017 45.4419C112.214 45.442 120.517 47.9049 126.507 51.8599C132.5 55.8175 136.126 61.2283 136.126 67.1353C136.126 73.0424 132.5 78.454 126.507 82.4116C120.517 86.3666 112.214 88.8286 103.017 88.8286C93.8197 88.8286 85.5159 86.3665 79.5264 82.4116C73.5329 78.454 69.9062 73.0424 69.9062 67.1353C69.9063 61.2282 73.533 55.8175 79.5264 51.8599C85.5159 47.9049 93.8195 45.4419 103.017 45.4419Z" fill="#7E4D28" stroke="#7E4D28"/>
<path d="M134.759 60.9774C148.396 60.9774 160.718 64.4362 169.615 70.0018C178.519 75.5718 183.927 83.2031 183.927 91.5487C183.927 99.8942 178.518 107.525 169.615 113.095C160.718 118.66 148.396 122.119 134.759 122.119C121.123 122.119 108.801 118.66 99.9038 113.095C91.0002 107.525 85.5914 99.8941 85.5913 91.5487C85.5913 83.2031 91 75.5718 99.9038 70.0018C108.801 64.4362 121.123 60.9774 134.759 60.9774Z" fill="#7E4D28" stroke="#7E4D28"/>
<path d="M136.627 23.2484C145.824 23.2485 154.128 25.7114 160.117 29.6664C166.11 33.624 169.736 39.0348 169.736 44.9418C169.736 50.8489 166.111 56.2605 160.117 60.2181C154.128 64.1731 145.824 66.6351 136.627 66.6351C127.43 66.6351 119.126 64.173 113.137 60.2181C107.143 56.2605 103.517 50.8489 103.517 44.9418C103.517 39.0347 107.143 33.624 113.137 29.6664C119.126 25.7114 127.43 23.2484 136.627 23.2484Z" fill="#7E4D28" stroke="#7E4D28"/>
<path d="M136.626 17.1452C139.624 17.1452 142.318 18.0482 144.25 19.484C146.183 20.9199 147.329 22.8641 147.33 24.9674C147.33 27.0709 146.183 29.0159 144.25 30.4518C142.318 31.8876 139.623 32.7907 136.626 32.7907C133.629 32.7906 130.935 31.8877 129.002 30.4518C127.07 29.0159 125.923 27.0709 125.923 24.9674C125.923 22.8642 127.07 20.9199 129.002 19.484C130.935 18.0482 133.629 17.1452 136.626 17.1452Z" fill="#7E4D28" stroke="#7E4D28"/>
<path d="M156.814 2.43881L148.798 5.61322L141.879 10.838L139.028 14.8648L137.282 19.687L135.314 25.1217" stroke="#7E4D28" stroke-width="4"/>
</svg>
