<svg width="578" height="366" viewBox="0 0 578 366" fill="none" xmlns="http://www.w3.org/2000/svg">
<path d="M148.964 225.155C148.352 230.798 140.473 235.124 137.158 237.968C132.025 242.373 126.892 246.781 121.759 251.185C120.669 252.117 119.509 253.089 118.13 253.305C115.423 253.732 110.627 250.656 108.138 249.665C105.36 248.556 103.013 246.561 100.392 245.123C95.8662 242.643 90.1219 240.931 86.427 237.185C85.9058 236.66 85.4003 236.068 85.2005 235.335C84.7891 233.823 85.7765 232.318 86.7091 231.096C92.5004 223.51 98.4405 216.049 104.526 208.726C107.316 205.364 115.485 191.908 119.925 192.578C121.582 192.829 122.977 193.985 124.266 195.125C132.691 202.558 140.402 210.912 147.236 220.011C147.859 220.841 148.489 221.703 148.768 222.726C148.995 223.565 149.05 224.376 148.964 225.155Z" fill="#B6D6D0" fill-opacity="0.5"/>
<path d="M418.909 75.2597C418.924 78.414 414.853 81.3568 413.203 83.1631C410.653 85.9569 408.098 88.7506 405.547 91.5444C405.006 92.136 404.426 92.7513 403.678 92.9707C402.213 93.3978 399.376 92.046 397.942 91.6737C396.343 91.2623 394.925 90.3258 393.389 89.7223C390.74 88.6762 387.464 88.1432 385.195 86.3408C384.874 86.0861 384.561 85.8002 384.404 85.4083C384.082 84.6051 384.533 83.7038 384.968 82.9632C387.683 78.3709 390.493 73.8336 393.385 69.3627C394.713 67.3135 398.369 59.3121 400.861 59.367C401.789 59.3866 402.632 59.9274 403.412 60.4603C408.521 63.9554 413.294 68.0108 417.635 72.5404C418.031 72.9518 418.434 73.3868 418.65 73.9275C418.826 74.382 418.909 74.8209 418.909 75.2597Z" fill="#B6D6D0" fill-opacity="0.5"/>
<path d="M453.966 267.376C452.062 265.346 449.769 263.649 447.599 262C445.4 260.33 443.143 258.755 440.824 257.302C438.504 255.848 436.13 254.508 433.704 253.289C431.271 252.067 428.54 250.401 425.813 250.394C423.231 250.386 420.938 252.678 418.956 254.277C416.84 255.985 414.783 257.784 412.792 259.672C407.063 265.107 402.287 270.859 398.043 277.505C397.793 277.9 397.546 278.316 397.46 278.786C396.919 281.803 400.614 285.58 402.671 287.014C404.912 288.578 407.275 289.957 409.618 291.313C414.595 294.193 419.716 296.759 424.943 299.016C426.24 299.576 427.545 300.117 428.853 300.634C430.174 301.159 431.561 301.743 432.987 301.638C435.542 301.446 437.211 298.785 438.778 296.834C442.419 292.3 445.847 287.563 449.041 282.634C450.639 280.165 452.179 277.65 453.66 275.091C454.366 273.868 455.212 272.591 455.392 271.11C455.576 269.64 454.887 268.355 453.966 267.376Z" fill="#FFE1EB" fill-opacity="0.5"/>
<path d="M545.667 330.868C547.239 327.992 548.539 324.916 550.032 322.013C552.05 318.087 553.59 313.906 555.099 309.737C555.295 309.192 555.491 308.577 555.271 308.04C555.103 307.625 554.723 307.358 554.362 307.119C549.3 303.789 543.45 301.583 537.831 299.541C531.902 297.386 526.064 294.961 520.124 292.841C518.639 292.312 517.15 291.803 515.653 291.321C514.705 291.015 512.499 289.883 511.633 290.357C510.763 290.831 509.807 293.652 509.333 294.581C508.173 296.849 506.946 299.142 506.01 301.516C504.983 304.122 504.039 306.767 503.177 309.439C502.319 312.096 501.539 314.784 500.842 317.495C500.215 319.92 499.392 323.043 501.606 324.869C502.593 325.68 503.961 325.974 505.124 326.382C506.464 326.848 507.804 327.318 509.145 327.785C511.774 328.701 514.399 329.618 517.028 330.535C519.657 331.452 522.283 332.369 524.912 333.286C527.208 334.085 529.5 335.01 531.867 335.551C533.618 335.95 535.44 336.197 537.215 336.432C538.81 336.644 540.526 336.734 541.917 335.88C542.834 335.316 543.508 334.395 544.116 333.47C544.672 332.624 545.181 331.754 545.667 330.868Z" fill="#FFE1EB" fill-opacity="0.5"/>
<path d="M567.512 270.322C569.083 267.446 570.384 264.37 571.877 261.466C573.895 257.54 575.435 253.359 576.943 249.19C577.139 248.646 577.335 248.031 577.116 247.494C576.947 247.078 576.567 246.812 576.207 246.573C571.144 243.242 565.294 241.036 559.675 238.995C553.747 236.84 547.909 234.414 541.968 232.295C540.483 231.766 538.994 231.256 537.498 230.774C536.549 230.469 534.343 229.336 533.477 229.81C532.608 230.284 531.651 233.106 531.177 234.034C530.017 236.303 528.791 238.595 527.855 240.97C526.828 243.575 525.884 246.22 525.022 248.893C524.164 251.549 523.384 254.237 522.686 256.949C522.059 259.374 521.237 262.497 523.45 264.323C524.438 265.134 525.805 265.428 526.969 265.835C528.309 266.302 529.649 266.772 530.989 267.238C533.618 268.155 536.244 269.072 538.873 269.989C541.502 270.906 544.127 271.823 546.757 272.74C549.053 273.539 551.345 274.464 553.712 275.004C555.463 275.404 557.285 275.651 559.06 275.886C560.655 276.098 562.371 276.188 563.762 275.333C564.679 274.769 565.353 273.848 565.96 272.924C566.517 272.077 567.026 271.207 567.512 270.322Z" fill="#FFE1EB" fill-opacity="0.5"/>
<path d="M375.337 321.954C374.937 320.575 374.318 319.274 373.734 317.977C373.142 316.664 372.531 315.355 371.904 314.058C370.635 311.425 369.302 308.828 367.904 306.269C366.595 303.867 365.286 301.418 363.77 299.161C362.986 297.997 362.073 297.006 361.031 296.203C360.898 296.03 360.647 295.873 360.396 295.744C359.581 295.203 358.692 294.768 357.724 294.451C355.863 293.844 353.892 293.562 351.94 293.303C349.045 292.633 346.122 292.1 343.179 291.716C341.792 291.536 340.405 291.391 339.01 291.277C338.571 291.242 338.124 291.207 337.678 291.183C337.36 291.136 337.047 291.089 336.729 291.042C336.471 291.003 336.334 291.073 336.302 291.191C335.899 291.218 335.499 291.269 335.103 291.367C332.803 291.936 331.287 294.153 329.911 296.038C328.485 297.993 327.125 300.25 327.051 302.805C326.98 305.27 328.101 307.456 329.52 309.321C331.185 311.512 333.183 313.428 335.048 315.418C337.102 317.605 339.151 319.791 341.204 321.977C345.338 326.382 349.472 330.786 353.606 335.194C354.538 336.189 355.435 337.318 356.489 338.176C357.473 338.975 358.927 339.692 360.184 339.304C360.725 339.136 361.168 338.775 361.611 338.419C362.206 337.941 362.802 337.459 363.394 336.977L366.963 334.093C369.169 332.31 371.508 330.625 373.597 328.686C374.459 327.882 375.239 326.95 375.548 325.747C375.87 324.505 375.689 323.169 375.337 321.954Z" fill="#F4D4CB" fill-opacity="0.5"/>
<path d="M298.722 34.2972C298.334 32.722 297.488 31.3153 296.622 29.9949C294.694 27.0561 292.621 24.2035 290.419 21.492C289.381 20.2147 288.26 19.0117 286.877 18.1654C285.439 17.2837 283.758 16.9194 282.116 16.8371C280.815 16.7744 279.503 16.79 278.19 16.8566C277.779 16.5941 277.246 16.5118 276.807 16.6724C276.435 16.8057 276.059 16.9272 275.682 17.033C274.35 17.1505 273.026 17.2955 271.713 17.4365C270.62 17.5541 269.531 17.6912 268.441 17.8401C264.891 17.8049 261.302 17.4012 257.795 17.6677C252.337 18.0869 246.738 20.2381 244.073 25.6924C241.71 30.5316 241.949 36.4914 243.822 41.4677C246.021 47.3021 250.456 51.8827 254.958 55.7657C257.45 57.913 260.033 59.9387 262.591 61.9919C265.15 64.049 267.693 66.2042 270.553 67.7715C273.308 69.28 276.474 70.2518 279.581 69.6327C282.163 69.1194 284.358 67.6814 286.187 65.7104C287.994 63.7669 289.361 61.4042 290.564 59.0022C292.041 56.0478 293.37 52.9915 294.675 49.9469C296.101 46.6164 297.511 43.2075 298.467 39.6888C298.957 37.9177 299.165 36.1035 298.722 34.2972Z" fill="#C1D5EA" fill-opacity="0.5"/>
<path d="M502.632 214.047C502.244 212.472 501.398 211.065 500.532 209.745C498.604 206.806 496.531 203.953 494.329 201.242C493.291 199.965 492.17 198.762 490.787 197.915C489.349 197.034 487.668 196.669 486.026 196.587C484.726 196.524 483.413 196.54 482.1 196.607C481.689 196.344 481.156 196.262 480.717 196.422C480.345 196.556 479.969 196.677 479.593 196.783C478.26 196.9 476.936 197.045 475.623 197.186C474.53 197.304 473.441 197.441 472.351 197.59C468.801 197.555 465.212 197.151 461.705 197.418C456.247 197.837 450.648 199.988 447.983 205.442C445.621 210.282 445.86 216.241 447.733 221.218C449.931 227.052 454.366 231.633 458.868 235.516C461.361 237.663 463.943 239.689 466.501 241.742C469.06 243.799 471.603 245.954 474.463 247.521C477.218 249.03 480.384 250.002 483.491 249.383C486.073 248.869 488.268 247.431 490.098 245.46C491.904 243.517 493.271 241.154 494.474 238.752C495.952 235.798 497.28 232.741 498.585 229.697C500.011 226.366 501.422 222.957 502.378 219.439C502.863 217.668 503.075 215.849 502.632 214.047Z" fill="#FAE285" fill-opacity="0.5"/>
<path d="M418.399 156.925C418.192 157.552 417.949 158.171 417.702 158.779C413.282 169.433 409.054 180.181 404.732 190.878C401.774 198.197 398.408 215.05 391.665 219.391C389.768 220.614 387.456 220.798 385.243 220.884C376.83 221.213 368.417 220.539 360.024 219.866C357.544 219.666 355.005 219.454 352.732 218.373C347.991 216.116 345.111 210.434 341.522 206.629C335.942 200.717 330.104 195.121 324.657 189.052C322.933 187.128 321.186 185.118 320.296 182.63C318.313 177.077 321.084 171.008 323.776 165.808C325.978 161.557 328.407 155.233 332.678 153.293C336.89 151.381 343.841 152.031 348.485 151.016C358.606 148.806 368.37 145.127 377.755 140.554C381.481 138.736 385.293 136.895 389.372 136.452C398.451 135.465 406.762 141.444 414.156 147.145C416.237 148.752 418.493 150.648 418.862 153.36C419.022 154.562 418.78 155.762 418.399 156.925Z" fill="#B4B6D9" fill-opacity="0.5"/>
<path d="M138.364 64.2645C137.867 63.0146 137.373 61.7686 136.875 60.5186C135.853 57.9482 134.83 55.3778 133.807 52.8074C133.365 51.6946 132.981 50.4838 132.303 49.5042C131.59 48.4737 130.586 47.882 129.434 47.5842C127.04 46.9651 124.533 46.6674 122.076 46.5773C120.936 46.5342 119.67 46.4323 118.573 46.832C117.538 47.2081 116.774 48.0387 116.147 48.9635C114.807 50.9383 113.64 53.0817 112.515 55.2015C111.547 57.0274 110.642 58.8925 109.792 60.7851C108.013 63.9236 106.418 67.1759 105.015 70.5261C103.244 74.7618 101.266 79.7264 102.621 84.4088C103.859 88.6758 107.531 90.9367 111.281 92.2768C113.397 93.033 115.575 93.5933 117.726 94.2163C118.89 94.5533 120.054 94.9608 121.241 95.1999C122.421 95.4389 123.667 95.4036 124.623 94.5259C125.469 93.7501 126.045 92.6608 126.664 91.689C127.346 90.6115 128.024 89.534 128.694 88.4486C130.073 86.2152 131.425 83.9621 132.745 81.6855C134.066 79.4129 135.359 77.1206 136.625 74.8088C137.228 73.7038 137.839 72.5988 138.419 71.4782C138.976 70.4046 139.454 69.2722 139.403 68.0183C139.344 66.69 138.842 65.4714 138.364 64.2645Z" fill="#EFCEE1" fill-opacity="0.5"/>
<path d="M223.129 61.5297C221.879 60.0212 220.261 58.8654 218.772 57.6428C217.036 56.2205 215.301 54.7941 213.565 53.3717C210.07 50.5035 206.574 47.6393 203.079 44.7711C201.477 43.4545 199.894 42.0909 198.232 40.8566C196.724 39.7359 195.086 38.7172 193.303 38.1922C191.528 37.671 189.71 37.675 187.943 38.2157C186.293 38.7212 184.781 39.6772 183.433 40.7979C180.463 43.2664 178.061 46.5343 175.69 49.6258C173.135 52.9643 170.698 56.4046 168.39 59.9467C167.238 61.7178 166.114 63.5086 165.028 65.3267C164.574 66.0868 164.104 66.847 163.645 67.6189C162.391 68.9394 160.953 70.107 159.778 71.447C158.732 72.6461 157.85 74.0488 157.458 75.6514C156.937 77.7791 157.184 79.9773 157.45 82.1245C158.011 86.6189 158.755 91.0858 159.703 95.5057C160.177 97.7078 160.699 99.9021 161.267 102.077C161.541 103.123 161.815 104.169 162.125 105.2C162.391 106.089 162.709 106.998 163.226 107.758C164.374 109.455 166.153 110.019 168.01 110.301C170.161 110.63 172.316 110.909 174.471 111.21C178.637 111.794 182.798 112.456 186.975 112.927C190.725 113.35 194.62 113.53 198.307 112.527C201.79 111.579 204.764 109.58 207.197 106.767C209.509 104.095 211.214 100.897 212.73 97.6568C214.54 93.7894 216.163 89.8123 217.769 85.847C219.477 81.6348 221.131 77.3951 222.769 73.1515C223.553 71.1257 224.544 69.0687 224.826 66.8783C225.089 64.8526 224.371 63.0304 223.129 61.5297Z" fill="#F4D4CB" fill-opacity="0.5"/>
<path d="M540.545 117.812C539.295 116.304 537.677 115.148 536.188 113.925C534.452 112.503 532.717 111.077 530.981 109.655C527.486 106.786 523.99 103.922 520.495 101.054C518.893 99.7372 517.31 98.3736 515.648 97.1394C514.14 96.0187 512.502 95 510.719 94.4749C508.944 93.9538 507.126 93.9576 505.359 94.4984C503.709 95.0038 502.197 95.9599 500.849 97.0805C497.879 99.5491 495.477 102.817 493.106 105.909C490.551 109.247 488.114 112.691 485.806 116.23C484.654 118.001 483.53 119.791 482.444 121.609C481.99 122.369 481.52 123.13 481.061 123.902C479.807 125.222 478.369 126.39 477.194 127.73C476.148 128.929 475.266 130.332 474.874 131.934C474.353 134.062 474.6 136.26 474.866 138.407C475.427 142.902 476.171 147.368 477.119 151.788C477.593 153.99 478.115 156.185 478.683 158.359C478.957 159.406 479.231 160.452 479.541 161.482C479.807 162.372 480.125 163.281 480.642 164.041C481.79 165.738 483.569 166.302 485.426 166.588C487.577 166.917 489.732 167.195 491.888 167.497C496.053 168.081 500.214 168.743 504.391 169.213C508.141 169.636 512.036 169.817 515.723 168.813C519.206 167.865 522.18 165.867 524.613 163.054C526.925 160.381 528.63 157.184 530.146 153.943C531.956 150.076 533.579 146.099 535.185 142.134C536.893 137.921 538.547 133.682 540.185 129.438C540.969 127.412 541.96 125.355 542.242 123.165C542.509 121.135 541.788 119.313 540.545 117.812Z" fill="#C19EC8" fill-opacity="0.5"/>
<path d="M303.24 290.078C304.936 289.193 306.41 287.833 307.907 286.626C309.654 285.219 311.402 283.809 313.149 282.402C316.668 279.569 320.187 276.732 323.705 273.899C325.32 272.598 326.969 271.333 328.529 269.954C329.943 268.7 331.295 267.285 332.243 265.592C333.184 263.908 333.662 262.035 333.638 260.075C333.619 258.246 333.148 256.439 332.49 254.758C331.04 251.055 328.713 247.725 326.538 244.473C324.191 240.966 321.719 237.553 319.121 234.25C317.824 232.596 316.496 230.97 315.14 229.375C314.572 228.705 314.007 228.023 313.427 227.349C312.562 225.712 311.888 223.925 310.982 222.365C310.175 220.971 309.133 219.697 307.785 218.874C305.994 217.777 303.941 217.448 301.927 217.158C297.711 216.547 293.471 216.131 289.216 215.939C287.096 215.841 284.973 215.802 282.853 215.81C281.834 215.814 280.815 215.822 279.796 215.865C278.923 215.904 278.014 215.99 277.191 216.319C275.349 217.052 274.374 218.729 273.625 220.563C272.759 222.687 271.94 224.83 271.098 226.962C269.472 231.088 267.775 235.19 266.243 239.355C264.868 243.097 263.676 247.051 263.614 251.106C263.555 254.935 264.578 258.52 266.482 261.764C268.292 264.848 270.737 267.442 273.269 269.856C276.293 272.736 279.463 275.451 282.629 278.151C285.991 281.019 289.396 283.836 292.805 286.642C294.431 287.982 296.034 289.545 297.942 290.411C299.713 291.214 301.555 290.956 303.24 290.078Z" fill="#B6D6D0" fill-opacity="0.5"/>
<path d="M77.2811 57.6976C76.3446 55.8599 75.1652 54.1476 74.0759 52.4079C71.815 48.7952 69.5541 45.1824 67.2933 41.5697C66.1883 39.8025 65.0872 38.0315 63.9784 36.2722C63.0771 34.8459 62.1093 33.4236 60.9025 32.2755C59.7309 31.1627 58.336 30.2458 56.7647 29.9911C54.8408 29.6815 52.9992 30.375 51.2399 31.1273C46.0912 33.3333 41.1384 36.0331 36.4325 39.16C36.2287 39.0934 36.0328 39.0933 35.8682 39.1874C29.2619 42.9568 22.8829 47.1808 16.786 51.824C13.7492 54.1358 10.7831 56.5535 7.89527 59.073C5.30133 61.3338 2.59768 63.6692 0.995077 66.8783C-0.536992 69.9503 -0.250941 73.3474 1.51623 76.2274C3.33042 79.1818 6.2378 81.1645 8.95321 83.0688C15.5634 87.712 22.3265 92.0967 29.2228 96.2345C30.8841 97.2297 32.5377 98.2602 34.2421 99.1732C35.8291 100.023 37.5649 100.635 39.3556 100.313C41.1698 99.9921 42.7253 98.9381 44.2496 97.9037C45.7581 96.8771 47.251 95.8229 48.7204 94.7336C54.5587 90.4078 60.0679 85.5766 65.1734 80.3025C67.6969 77.6929 70.1262 74.9775 72.4459 72.1602C73.6567 70.6908 74.8361 69.194 75.9881 67.6698C77.0303 66.2905 78.151 64.8328 78.4253 63.0343C78.7152 61.1731 78.1079 59.3237 77.2811 57.6976Z" fill="#FAE285" fill-opacity="0.5"/>
<path d="M522.681 41.8676C521.745 40.0299 520.566 38.3176 519.476 36.5778C517.215 32.9651 514.955 29.3523 512.694 25.7396C511.589 23.9725 510.488 22.2014 509.379 20.4421C508.478 19.0158 507.51 17.5935 506.303 16.4454C505.131 15.3326 503.736 14.4157 502.165 14.161C500.241 13.8515 498.4 14.545 496.64 15.2974C491.492 17.5034 486.539 20.2031 481.833 23.3299C481.629 23.2633 481.433 23.2634 481.269 23.3574C474.662 27.1268 468.283 31.3507 462.186 35.9939C459.15 38.3057 456.183 40.7234 453.296 43.2429C450.702 45.5037 447.998 47.8391 446.395 51.0482C444.863 54.1202 445.149 57.5173 446.917 60.3973C448.731 63.3517 451.638 65.3344 454.354 67.2387C460.964 71.8819 467.727 76.2666 474.623 80.4044C476.285 81.3996 477.938 82.4301 479.643 83.3431C481.229 84.1934 482.965 84.8046 484.756 84.4833C486.57 84.162 488.126 83.108 489.65 82.0736C491.159 81.047 492.651 79.993 494.121 78.9037C499.959 74.5778 505.468 69.7465 510.574 64.4724C513.097 61.8628 515.527 59.1474 517.846 56.3301C519.057 54.8607 520.236 53.3639 521.388 51.8397C522.431 50.4604 523.551 49.0029 523.826 47.2044C524.116 45.3392 523.508 43.4937 522.681 41.8676Z" fill="#FFE1EB" fill-opacity="0.5"/>
<path d="M97.1005 134.654C96.9203 134.419 96.7126 134.227 96.4893 134.062C96.2463 132.996 95.8427 131.958 95.2785 131.01C93.1155 127.366 89.0601 125.61 85.4826 124.039C83.2453 123.056 81.004 122.072 78.7666 121.085C76.639 120.148 74.4839 118.961 72.2504 118.35C70.0953 117.762 67.8893 118.079 66.2162 119.733C64.9584 120.975 64.3942 122.762 64.2374 124.544C64.0846 126.261 64.3275 128.008 64.6332 129.693C65.1073 132.291 65.5854 134.885 66.0595 137.483C66.5062 139.92 66.9372 142.361 67.3995 144.794C67.7914 146.863 68.383 148.956 69.9739 150.351C71.5334 151.718 73.6688 151.992 75.581 152.361C77.9633 152.819 80.3496 153.266 82.7398 153.701C83.8134 153.897 84.891 154.089 85.9646 154.277C87.1205 154.481 88.2764 154.743 89.4519 154.563C91.6854 154.222 93.0293 152.392 93.7542 150.261C94.6554 147.604 95.4274 144.889 96.258 142.205C96.6695 140.88 97.1554 139.556 97.4845 138.204C97.7745 137.009 97.8763 135.665 97.1005 134.654Z" fill="#C19EC8" fill-opacity="0.5"/>
<path d="M372.853 69.1038C368.178 62.999 363.167 57.1882 357.849 51.7143C355.22 49.0067 352.517 46.3814 349.742 43.8423C348.359 42.5767 346.96 41.3307 345.546 40.1082C344.198 38.9444 342.799 37.8159 341.122 37.2556C339.194 36.6052 337.129 36.899 335.221 37.4868C333.372 38.0588 331.55 38.7563 329.743 39.4655C326.181 40.8644 322.682 42.4473 319.266 44.2027C317.581 45.0648 315.719 45.872 314.191 47.0279C313.549 47.5177 313 48.1328 312.773 48.9635C312.538 49.8295 312.73 50.7778 312.941 51.6241C313.988 55.7658 315.14 59.8839 316.237 64.0138C316.789 66.0866 317.342 68.1595 317.89 70.2323C317.902 70.2675 317.918 70.2989 317.933 70.3341C317.389 80.7256 320.386 91.2189 325.978 99.7648C329.293 104.835 333.556 109.231 338.497 112.476C341.232 114.27 344.703 116.594 347.971 115.046C349.617 114.267 350.843 112.742 352.082 111.402C353.383 109.996 354.664 108.569 355.926 107.123C361.035 101.277 365.847 95.1332 370.321 88.7228C371.426 87.1398 372.512 85.5373 373.578 83.919C374.6 82.3674 375.721 80.8157 376.375 79.0368C377.809 75.1341 375.004 71.9132 372.853 69.1038Z" fill="#EFCEE1" fill-opacity="0.5"/>
<path d="M207.476 8.30315C207.311 7.0728 207.147 5.83849 206.978 4.60813C206.853 3.66773 206.766 2.69995 206.43 1.81048C205.611 -0.352436 203.091 -0.356403 201.422 0.64669C200.595 1.14432 199.87 1.87709 199.153 2.53537C198.448 3.18189 197.762 3.848 197.123 4.56897C195.917 5.92471 194.823 7.50771 194.31 9.31407C193.421 12.4213 194.432 15.7127 196.579 17.8286C196.591 17.8482 196.598 17.8639 196.61 17.8835C197.758 19.3999 199.094 20.9632 200.83 21.7038C202.672 22.4914 204.894 22.2955 206.445 20.9123C207.93 19.584 208.404 17.4799 208.346 15.4933C208.275 13.0952 207.797 10.6777 207.476 8.30315Z" fill="#B6D6D0" fill-opacity="0.5"/>
<path d="M296.755 119.274C294.564 113.8 292.37 108.326 290.176 102.852C289.282 100.623 288.483 97.9389 286.398 96.638C284.153 95.2352 281.508 95.9914 279.381 97.261C278.895 97.5509 278.413 97.8605 277.939 98.1779C270.941 100.756 264.714 105.544 260.251 111.876C258.943 113.734 257.783 115.72 256.835 117.809C256.27 119.047 255.886 120.465 256.345 121.817C256.76 123.048 257.65 123.964 258.496 124.873C262.32 128.988 266.058 133.231 269.996 137.224C271.787 139.038 273.817 140.515 276.328 140.809C278.938 141.115 281.736 140.504 284.302 140.022C286.88 139.54 289.466 138.952 291.966 138.113C294.125 137.389 296.253 136.217 297.53 134.152C300.399 129.513 298.608 123.909 296.755 119.274Z" fill="#FAE285" fill-opacity="0.5"/>
<path d="M432.979 137.616C435.295 138.039 437.791 137.796 439.938 136.75C442.47 135.519 444.154 133.211 445.142 130.488C447.258 124.654 447.371 118.048 445.573 112.103C445.459 111.727 445.118 111.578 444.777 111.531C440.075 110.869 435.374 110.211 430.675 109.549C426.44 107.511 421.154 108.236 417.576 111.437C416.605 112.307 415.535 113.432 415.41 114.854C415.284 116.273 415.919 117.793 416.421 119.074C417.498 121.84 418.971 124.434 420.488 126.95C423.45 131.856 427.317 136.581 432.979 137.616Z" fill="#F2ADAD" fill-opacity="0.5"/>
<path d="M425.931 7.08824C425.425 6.24188 424.555 5.81083 423.693 5.57182C421.824 5.05851 419.908 4.6745 418 4.40414C416.758 4.22781 415.508 4.11812 414.258 4.09461C414.242 4.09069 414.231 4.08678 414.215 4.08678C408.028 3.20907 401.359 5.81089 397.249 11.0262C396.72 11.6962 396.226 12.4289 396.057 13.3144C395.877 14.2823 396.136 15.2736 396.633 16.0847C397.597 17.6599 399.18 18.8589 400.501 20.05C403.365 22.6361 406.363 25.0538 409.478 27.2716C412.217 29.219 415.821 32.1421 419.246 30.5982C422.287 29.2268 422.867 24.948 423.588 21.8799C424.077 19.7836 424.571 17.6873 425.061 15.591C425.296 14.5839 425.531 13.577 425.77 12.5739C425.997 11.6061 426.295 10.6264 426.389 9.63119C426.471 8.73389 426.389 7.86016 425.931 7.08824Z" fill="#FAE285" fill-opacity="0.5"/>
<path d="M561.584 72.1838C560.193 66.8863 555.31 61.9335 551.251 57.5724C549.782 55.9972 547.991 54.3632 545.914 54.5435C544.202 54.6924 542.819 56.0402 541.592 57.3254C537.748 61.3417 533.642 66.6432 535.147 72.1524C535.75 74.3702 537.208 76.2001 538.732 77.838C544.833 84.3933 550.843 90.984 558.018 83.6136C561.838 79.6913 562.548 75.8553 561.584 72.1838Z" fill="#C1D5EA" fill-opacity="0.5"/>
<path d="M251.071 185.756C251.208 185.208 251.251 184.671 251.169 184.154C250.781 181.787 245.683 177.497 244.155 175.624C242.838 174.021 241.588 172.297 240.135 170.835C239.516 170.212 238.818 169.636 238.023 169.299C237.133 168.923 236.177 168.892 235.237 168.99C232.122 169.311 227.87 170.49 226.852 174.131C226.307 176.07 226.895 178.092 227.361 179.977C227.827 181.865 228.309 183.746 228.866 185.607C230.335 190.509 234.053 201.841 240.754 198.851C243.175 197.77 244.833 195.399 246.365 193.131C247.744 191.085 250.428 188.303 251.071 185.756Z" fill="#B4B6D9" fill-opacity="0.5"/>
<path d="M390.705 227.052C390.172 224.893 389.196 222.832 388.15 220.908C387.1 218.976 385.881 217.154 384.514 215.465C383.852 214.65 383.217 213.918 382.296 213.436C381.802 213.177 381.254 212.918 380.697 212.86C380.141 212.801 379.631 213.024 379.122 213.228C376.947 214.11 374.784 215.034 372.637 215.994C370.737 216.845 368.789 217.656 366.971 218.694C366.313 219.07 365.659 219.505 365.071 220.018C362.908 221.335 361.015 223.138 359.558 225.304C358.394 227.04 357.285 229.152 357.297 231.346C357.309 233.392 358.457 235.088 359.773 236.468C361.294 238.062 362.986 239.493 364.632 240.935C366.403 242.49 368.202 244.01 370.024 245.495C371.799 246.941 373.585 248.575 375.807 249.159C377.594 249.629 379.275 248.756 380.505 247.392C381.9 245.848 382.543 243.807 383.299 241.867C384.04 239.971 384.972 238.356 386.379 236.946C387.609 235.707 389.012 234.606 389.972 233.098C391.136 231.276 391.218 229.129 390.705 227.052Z" fill="#C19EC8" fill-opacity="0.5"/>
<path d="M246.188 259.292C244.645 256.087 242.807 253.05 240.718 250.213C236.49 244.477 231.365 239.591 225.887 235.245C220.993 231.362 215.813 227.918 210.551 224.634C210.539 224.482 210.484 224.325 210.379 224.2C207.51 220.681 204.642 217.158 201.774 213.64C200.461 212.029 199.2 210.321 197.75 208.844C196.476 207.547 194.909 206.391 193.122 206.14C190.031 205.701 187.664 207.86 186.183 210.548C184.392 213.796 183.667 217.625 182.845 221.245C181.838 225.669 180.976 230.128 180.262 234.618C179.902 236.879 179.584 239.148 179.302 241.421C179.036 243.576 178.746 245.746 178.683 247.925C178.621 250.045 178.781 252.172 179.49 254.171C180.184 256.126 181.348 257.846 182.543 259.484C185.227 263.16 187.95 266.804 190.654 270.463C193.381 274.154 196.112 277.845 198.839 281.537C201.069 284.554 203.279 287.688 206.245 289.937C207.655 291.007 209.25 291.814 210.939 292.218C212.828 292.669 214.795 292.547 216.664 292.065C220.504 291.07 223.913 288.633 227.102 286.242C233.383 281.529 239.104 275.976 244.112 269.77C244.731 269.002 245.342 268.222 245.938 267.43C246.517 266.666 247.129 265.91 247.462 264.982C248.159 263.03 247.003 260.989 246.188 259.292Z" fill="#C19EC8" fill-opacity="0.5"/>
<path d="M81.3796 154.163C80.5998 152.886 79.2872 151.933 78.2214 150.95C73.1785 146.299 68.1395 141.644 63.0966 136.993C60.6359 134.724 58.1909 132.436 55.7145 130.187C53.4889 128.169 51.1614 126.253 48.5008 124.924C43.3326 122.354 37.6706 122.848 32.3064 124.317C32.1222 124.313 31.9381 124.348 31.7774 124.446C31.75 124.462 31.7225 124.474 31.6912 124.489C31.2523 124.615 30.8174 124.748 30.3825 124.885C29.7986 124.952 29.1991 124.916 28.6271 124.881C27.5378 124.815 26.4171 124.685 25.3317 124.905C24.2111 125.128 23.2589 125.747 22.7731 126.88C22.2088 128.192 22.3421 129.803 22.3107 131.209C22.1383 138.329 21.9698 145.449 21.7974 152.568C21.7543 154.386 21.7112 156.2 21.6681 158.019C21.6328 159.562 21.4918 161.157 21.6524 162.697C21.8131 164.225 22.5145 165.409 23.737 166.227C24.9477 167.035 26.3818 167.489 27.718 168.006C33.7052 170.318 39.8335 172.187 46.0597 173.617C52.2507 175.036 58.5318 175.992 64.8481 176.497C66.4546 176.627 68.0612 176.725 69.6716 176.791C71.043 176.85 72.6339 177.089 73.9583 176.603C75.3101 176.106 75.792 174.695 76.2544 173.39L77.9902 168.5C79.1618 165.197 80.4 161.909 81.5049 158.575C81.9987 157.094 82.2298 155.558 81.3796 154.163Z" fill="#C1D5EA" fill-opacity="0.5"/>
<path d="M472.492 310.477C472.249 310.074 471.838 309.772 471.505 309.462C469.929 307.993 468.354 306.52 466.783 305.05C466.015 304.333 465.251 303.608 464.479 302.899C463.785 302.26 463.057 301.653 462.226 301.238C460.612 300.423 458.844 300.579 457.167 301.046C457.109 301.046 457.054 301.057 457.003 301.085C456.995 301.089 456.983 301.093 456.975 301.097C456.838 301.136 456.701 301.179 456.568 301.222C456.388 301.242 456.2 301.234 456.019 301.222C455.678 301.202 455.33 301.159 454.989 301.23C454.64 301.3 454.342 301.496 454.189 301.853C454.013 302.268 454.056 302.778 454.044 303.22C453.99 305.469 453.939 307.722 453.884 309.972C453.872 310.548 453.856 311.12 453.845 311.696C453.833 312.185 453.79 312.687 453.841 313.173C453.892 313.655 454.111 314.031 454.491 314.29C454.867 314.544 455.318 314.689 455.733 314.85C457.602 315.583 459.518 316.171 461.462 316.625C463.394 317.072 465.357 317.377 467.328 317.534C467.829 317.573 468.331 317.605 468.832 317.628C469.259 317.648 469.757 317.722 470.172 317.569C470.595 317.413 470.744 316.966 470.889 316.554L471.43 315.007C471.795 313.96 472.182 312.922 472.527 311.868C472.684 311.402 472.758 310.916 472.492 310.477Z" fill="#C19EC8" fill-opacity="0.5"/>
<path d="M152.991 181.905C152.799 181.4 152.564 180.91 152.348 180.416C151.917 179.437 151.482 178.461 151.044 177.485C149.269 173.559 147.403 169.676 145.456 165.844C144.488 163.943 143.501 162.055 142.49 160.178C141.597 158.517 140.793 156.804 138.995 156.119C137.298 155.472 135.378 155.601 133.603 155.601C131.895 155.601 130.186 155.641 128.49 155.817C125.406 156.134 122.295 156.851 119.622 158.587C119.38 158.568 119.137 158.583 118.964 158.677C117.123 159.704 115.281 160.726 113.435 161.753C112.62 162.204 111.696 162.607 111.014 163.281C110.426 163.861 110.128 164.66 110.07 165.503C110.007 166.392 110.168 167.278 110.32 168.148C110.508 169.214 110.7 170.279 110.889 171.345C111.198 173.089 111.316 175.279 112.511 176.643C113.663 177.952 115.402 178.437 116.993 178.794C119.007 179.245 121.033 179.648 123.059 180.052C127.193 180.875 131.342 181.627 135.5 182.313C137.568 182.654 139.637 182.979 141.706 183.284C143.783 183.594 145.871 183.95 147.968 184.099C148.975 184.17 149.986 184.162 150.989 184.025C151.659 183.935 152.807 183.841 153.116 183.065C153.269 182.689 153.128 182.266 152.991 181.905Z" fill="#FAE285" fill-opacity="0.5"/>
<path d="M55.813 254.582C55.4799 252.114 54.6845 249.751 53.8225 247.447C52.7567 244.606 51.7575 241.738 50.8524 238.835C47.224 227.228 44.9514 215.152 44.0972 202.954C43.9914 201.458 43.9091 199.957 43.8464 198.456C43.8307 198.033 43.4193 197.872 43.1019 197.778C39.8105 196.795 36.4173 197.688 33.6313 199.636C29.905 201.058 27.4247 204.882 25.3989 208.389C23.8002 211.159 22.2094 213.937 20.6185 216.712C19.1374 219.294 17.5936 221.845 16.2182 224.494C14.8978 227.037 13.8006 229.732 13.3696 232.62C12.9268 235.602 13.2482 238.635 13.9299 241.546C14.6196 244.489 15.6971 247.318 16.853 250.084C18.0403 252.929 19.2941 255.746 20.6028 258.532C21.2807 259.974 21.9703 261.408 22.6796 262.834C23.2751 264.037 23.8629 265.299 24.7328 266.306C26.4568 268.308 29.0743 268.841 31.5233 268.79C34.2543 268.735 37.0128 268.246 39.693 267.709C42.6043 267.125 45.4882 266.349 48.3172 265.397C50.6525 264.609 53.1211 263.602 54.5905 261.389C55.9031 259.402 56.1304 256.941 55.813 254.582Z" fill="#EFCEE1" fill-opacity="0.5"/>
<path d="M226.671 115.376C224.363 115.779 222.161 116.677 220.014 117.648C217.369 118.843 214.701 119.968 211.993 120.995C201.178 125.105 189.894 127.781 178.464 128.949C177.061 129.094 175.654 129.211 174.248 129.309C173.852 129.337 173.711 129.776 173.625 130.116C172.77 133.643 173.683 137.24 175.568 140.163C176.983 144.105 180.623 146.664 183.957 148.744C186.59 150.39 189.231 152.02 191.868 153.662C194.321 155.186 196.751 156.773 199.266 158.184C201.684 159.535 204.231 160.648 206.954 161.044C209.76 161.455 212.604 161.048 215.32 160.256C218.07 159.457 220.696 158.254 223.27 156.965C225.915 155.64 228.532 154.246 231.118 152.796C232.458 152.043 233.791 151.275 235.115 150.492C236.232 149.83 237.403 149.179 238.332 148.231C240.174 146.35 240.616 143.552 240.518 140.943C240.409 138.035 239.892 135.108 239.331 132.264C238.72 129.172 237.932 126.12 236.98 123.13C236.193 120.658 235.193 118.052 233.085 116.536C231.193 115.18 228.877 114.988 226.671 115.376Z" fill="#B6D6D0" fill-opacity="0.5"/>
<path d="M75.8155 198.225C75.2239 197.151 74.542 196.132 73.8328 195.141C73.488 194.655 73.1471 194.162 72.7827 193.691C72.4301 193.237 72.0069 192.9 71.4426 192.829C70.851 192.759 70.2711 192.923 69.7029 193.084C69.1739 193.233 68.6489 193.401 68.1317 193.601C67.0933 194.001 66.0824 194.502 65.1224 195.09C64.1702 195.678 63.2651 196.356 62.4227 197.112C61.6076 197.849 60.7339 198.675 60.201 199.675C59.5936 200.803 59.6171 202.065 59.8209 203.311C60.0011 204.416 60.2284 205.521 60.4635 206.614C60.918 208.71 61.4823 210.791 62.3717 212.727C62.8067 213.675 63.32 214.58 63.9391 215.403C65.0871 216.931 67.9671 218.741 69.9341 218.44C70.8001 218.306 71.4113 217.495 71.9324 216.743C73.3234 214.737 74.7145 212.731 76.1055 210.72C78.6406 207.08 77.8413 201.9 75.8155 198.225Z" fill="#FFE1EB" fill-opacity="0.5"/>
<path d="M134.458 294.976C128.478 288.903 122.495 282.829 116.516 276.752C113.785 273.978 111.101 271.117 108.15 268.606C105.302 266.184 102.1 264.002 98.5346 263.026C96.7752 262.544 94.9375 262.415 93.1469 262.779C91.3758 263.14 89.8045 264.088 88.3978 265.264C87.0068 266.427 85.7882 267.818 84.5775 269.186C83.3275 270.6 82.1089 272.054 80.9256 273.535C76.1609 279.511 71.8742 286.011 68.3869 292.919C67.5445 294.588 66.7882 296.383 66.6785 298.299C66.5884 299.913 66.894 301.512 67.5641 302.966C68.9394 305.951 71.4001 308.224 73.9039 310.117C73.9039 310.301 73.9627 310.481 74.0842 310.638C76.6468 313.898 79.3347 317.205 82.8651 319.305C84.7734 320.438 86.8736 321.057 89.0483 321.198C91.4032 321.351 93.766 320.904 96.0582 320.375C98.3387 319.85 100.611 319.309 102.896 318.804C105.137 318.31 107.276 317.577 109.247 316.315C111.226 315.05 113.036 313.49 114.882 312.021L120.861 307.256C125.367 303.667 129.873 300.078 134.379 296.489C134.912 296.069 134.944 295.47 134.458 294.976Z" fill="#B4B6D9" fill-opacity="0.5"/>
<path d="M54.4218 327.35C54.3278 325.484 54.1318 323.623 53.7165 321.805C53.3168 320.058 52.6742 318.384 51.6789 316.927C50.6092 315.363 49.1242 314.188 47.4589 313.435C44.0264 311.88 40.0062 312.013 36.3544 312.252C34.3913 312.381 32.3851 312.675 30.5827 313.557C28.7332 314.462 27.3226 315.998 26.2255 317.801C24.5249 320.598 23.1535 323.713 22.0955 326.891C21.7429 327.005 21.4725 327.255 21.4921 327.643C21.5117 327.976 21.5274 328.31 21.547 328.643C21.4098 329.105 21.2766 329.571 21.1551 330.034C20.2147 333.56 19.6897 337.635 21.1081 341.107C21.3393 341.675 21.6332 342.216 21.9662 342.725C22.311 346.4 24.6581 349.625 27.8476 351.036C29.509 351.772 31.6249 352.078 33.2824 351.149C34.1052 350.687 34.6695 349.982 35.1122 349.124C35.5002 348.371 35.7862 347.498 36.3583 346.871C36.9617 346.208 37.9021 345.962 38.7053 345.699C39.7515 345.358 40.8056 345.049 41.8518 344.727C43.8619 344.108 45.8876 343.442 47.7528 342.415C51.0677 340.59 53.8223 337.647 54.3748 333.58C54.6412 331.534 54.5237 329.407 54.4218 327.35Z" fill="#FFE1EB" fill-opacity="0.5"/>
<path d="M178.304 286.713C177.904 285.694 177.344 284.757 176.815 283.809C176.258 282.814 175.706 281.818 175.149 280.823C174.021 278.801 172.892 276.779 171.768 274.758L168.437 268.782C167.461 267.031 166.588 265.013 165.205 263.579C164.562 262.916 163.782 262.415 162.893 262.254C161.85 262.07 160.871 262.427 159.923 262.85C158.038 263.696 156.188 264.652 154.378 265.663C152.556 266.682 150.754 267.763 149.026 268.951C148.289 269.456 147.541 270.032 147.031 270.804C146.487 271.631 146.271 272.583 146.185 273.578C145.997 275.682 146.087 277.857 146.212 279.965C146.338 282.097 146.577 284.22 146.918 286.328C147.607 290.607 148.759 294.78 150.315 298.793C153.802 307.801 161.988 304.286 168.888 301.665C169.62 301.387 170.365 301.101 171 300.623C172.504 299.486 173.147 297.476 174.189 295.846C175.439 293.891 177.438 293.53 178.394 291.414C179.068 289.894 178.895 288.225 178.304 286.713Z" fill="#C1D5EA" fill-opacity="0.5"/>
<path d="M252.572 318.525C252.435 317.777 252.2 317.056 251.675 316.511C251.177 316.002 250.472 315.775 249.833 315.543C248.164 314.928 246.495 314.313 244.822 313.706C241.659 312.554 238.305 311.535 234.971 312.468C232.177 313.251 225.296 319.195 224.709 322.295C224.387 323.987 224.928 325.711 225.461 327.341C226.613 330.856 226.441 336.322 228.643 339.226C229.501 340.358 230.653 341.142 231.922 341.659C235.045 342.932 238.482 342.27 241.663 341.647C243.344 341.318 245.037 341.024 246.706 340.644C248.25 340.292 249.759 339.684 250.836 338.403C251.73 337.341 252.208 335.966 252.498 334.594C252.854 332.913 253.015 331.17 253.124 329.45C253.352 325.837 253.234 322.091 252.572 318.525Z" fill="#F2ADAD" fill-opacity="0.5"/>
<path d="M184.126 323.298C181.125 322.691 178.127 322.079 175.126 321.472C172.168 320.873 169.201 320.136 166.22 319.689C163.187 319.235 160.605 320.908 158.069 322.436C152.968 325.512 148.156 329.172 143.83 333.392C137.8 339.277 131.484 348.599 134.791 357.744C135.269 359.061 136.017 360.318 137.079 361.184C138.102 362.015 139.328 362.493 140.578 362.771C141.914 363.069 143.278 363.198 144.63 363.371C146.154 363.563 147.674 363.755 149.198 363.947C152.161 364.319 155.127 364.777 158.101 365.048C160.718 365.287 163.634 365.283 166.035 363.994C167.117 363.414 168.049 362.587 168.688 361.482C168.806 361.278 168.802 361.098 168.72 360.953C176.298 356.435 183.558 351.048 187.665 342.666C188.813 340.323 189.687 337.823 190.251 335.249C190.541 333.932 190.748 332.596 190.882 331.252C191.015 329.912 191.136 328.501 190.792 327.185C189.969 324.019 186.666 323.815 184.126 323.298Z" fill="#FFE1EB" fill-opacity="0.5"/>
</svg>
