<svg width="474" height="474" viewBox="0 0 474 474" fill="none" xmlns="http://www.w3.org/2000/svg">
<path d="M456.073 236.985C456.073 230.299 455.725 223.699 455.139 217.172H473.97C464.43 101.62 372.35 9.5404 256.798 0V18.8306C250.265 18.245 243.665 17.8973 236.985 17.8973C230.299 17.8973 223.699 18.245 217.172 18.8306V0C101.62 9.5404 9.5404 101.62 0 217.172H18.8307C18.2451 223.705 17.8974 230.305 17.8974 236.985C17.8974 243.671 18.2451 250.271 18.8307 256.798H0C9.5404 372.35 101.62 464.43 217.172 473.97V455.139C223.705 455.725 230.306 456.073 236.985 456.073C243.671 456.073 250.271 455.725 256.798 455.139V473.97C372.35 464.43 464.43 372.35 473.97 256.798H455.139C455.725 250.271 456.073 243.671 456.073 236.985Z" fill="#7E4D28" fill-opacity="0.8"/>
<path d="M236.985 441.518C124.208 441.518 32.4521 349.762 32.4521 236.985C32.4521 124.208 124.208 32.4521 236.985 32.4521C349.762 32.4521 441.518 124.208 441.518 236.985C441.518 349.762 349.762 441.518 236.985 441.518ZM236.985 36.4172C126.386 36.4172 36.4111 126.392 36.4111 236.991C36.4111 347.59 126.386 437.565 236.985 437.565C347.584 437.565 437.559 347.59 437.559 236.991C437.559 126.392 347.578 36.4172 236.985 36.4172Z" fill="white"/>
<path fill-rule="evenodd" clip-rule="evenodd" d="M312.936 236.991C312.936 196.225 279.905 163.224 239.181 163.224C198.433 163.224 165.432 196.225 165.432 236.991C165.432 277.715 198.433 310.71 239.181 310.71C279.905 310.716 312.936 277.721 312.936 236.991ZM311.527 153.196C304.951 153.196 299.657 158.551 299.657 165.078C299.657 171.654 304.951 176.937 311.527 176.937C318.054 176.937 323.41 171.654 323.41 165.078C323.41 158.551 318.054 153.196 311.527 153.196ZM178.907 136.158H299.449C321.787 136.158 340.002 154.415 340.002 176.68V297.271C340.002 319.591 321.787 337.794 299.449 337.794H178.907C156.599 337.794 138.36 319.591 138.36 297.271V176.68C138.36 154.415 156.606 136.158 178.907 136.158ZM299.455 122.653H178.913C149.2 122.653 124.855 146.98 124.855 176.68V297.271C124.855 327.027 149.2 351.33 178.913 351.33H299.455C329.223 351.33 353.513 327.027 353.513 297.271V176.68C353.513 146.98 329.223 122.653 299.455 122.653ZM180.762 236.991C180.762 204.71 206.931 178.529 239.181 178.529C271.469 178.529 297.601 204.71 297.601 236.991C297.601 269.23 271.462 295.411 239.181 295.411C206.931 295.417 180.762 269.236 180.762 236.991Z" fill="white"/>
</svg>
