<svg width="594" height="194" viewBox="0 0 594 194" fill="none" xmlns="http://www.w3.org/2000/svg">
<path d="M161.502 91.1598C161.399 91.2628 160.52 91.4438 159.519 91.5678C158.518 91.6918 157.393 91.9628 156.98 92.1798C156.387 92.4908 156.172 92.4508 155.907 91.9758C155.443 91.1468 150.79 91.1588 148.974 91.9928C148.07 92.4078 146.446 94.0888 143.939 97.2018C140.447 101.539 137.166 106.076 137.104 106.654C137.088 106.797 136.518 107.877 135.831 109.063C131.645 116.291 127.685 125.164 126.022 131.043C121.671 146.426 120.333 156.337 121.296 166.034C121.543 168.517 123.317 171.462 125.4 172.846C126.438 173.536 127.661 174.167 128.18 174.281C128.699 174.395 129.433 174.61 129.848 174.769C132.517 175.792 133.348 176.015 134.667 176.062C135.482 176.091 136.517 176.241 136.965 176.394C137.41 176.546 138.109 176.495 138.503 176.283C139.093 175.965 139.335 176.061 139.819 176.802C140.279 177.507 140.69 177.694 141.654 177.636C142.321 177.596 143.17 177.33 143.489 177.061C143.807 176.793 144.434 176.672 144.842 176.802C145.307 176.95 146.306 176.688 147.418 176.128C149.457 175.1 150.463 174.212 151.336 172.67C152.26 171.039 152.79 170.228 153.659 169.112C154.121 168.519 154.497 167.838 154.497 167.592C154.497 166.946 156.461 165.146 157.166 165.146C158.05 165.146 159.316 163.181 159.316 161.81C159.316 161.07 159.844 159.883 160.799 158.474C161.603 157.288 162.282 156.185 162.282 156.065C162.282 155.75 164.536 152.914 166.79 150.394C167.751 149.319 168.764 148.043 169.027 147.577C169.925 145.983 171.463 143.835 172.068 143.329C172.402 143.05 172.661 142.662 172.661 142.444C172.661 142.233 173.119 141.462 173.662 140.758C174.205 140.054 174.682 139.19 174.705 138.868C174.757 138.127 177.002 134.754 177.443 134.754C177.63 134.754 178.152 134.142 178.629 133.364C179.106 132.586 179.612 131.919 179.778 131.849C180.163 131.687 180.388 131.455 183.758 127.748C185.274 126.08 186.685 124.746 186.932 124.746C187.177 124.746 187.677 124.413 188.044 124.005C188.411 123.597 188.811 123.364 188.934 123.486C189.056 123.608 189.165 132.326 189.175 142.853C189.187 155.53 189.338 162.937 189.62 164.778C189.854 166.307 190.217 168.892 190.425 170.523C190.799 173.451 192.119 178.334 192.72 179.011C192.908 179.223 193.049 179.604 193.049 179.901C193.049 180.568 195.114 184.942 195.744 185.609C195.992 185.871 196.914 187.054 197.766 188.204C199.608 190.687 201.223 191.992 203.39 192.747C205.28 193.405 209.792 193.721 211.285 193.299C212.701 192.899 216.088 189.205 218.096 185.869C218.297 185.535 218.667 185.003 218.883 184.738C219.111 184.458 219.731 183.422 220.291 182.384C220.839 181.37 222.181 179.675 223.256 178.64C224.331 177.606 225.338 176.364 225.48 175.897C225.622 175.432 226.481 174.345 227.37 173.506C228.26 172.667 229.001 171.833 229.001 171.671C229.001 171.51 230.226 170.133 231.688 168.65C233.15 167.167 235.516 164.735 236.877 163.312C238.261 161.866 239.454 160.699 239.546 160.699C239.639 160.699 240.306 160.152 241.047 159.469C242.69 157.955 242.641 156.968 240.899 156.466C239.829 156.157 239.342 156.259 237.674 157.14C236.599 157.708 234.893 159.051 233.907 160.105C230.025 164.257 211.923 182.197 211.616 182.197C211.24 182.197 210.861 180.9 210.848 179.565C210.842 179.024 210.602 177.934 210.301 177.082C209.947 176.081 209.89 175.48 210.134 175.321C210.349 175.181 210.411 174.839 210.282 174.506C210.159 174.188 210.324 173.246 210.653 172.393C211.119 171.183 211.167 170.503 210.875 169.205C210.642 168.167 210.635 167.425 210.856 167.203C211.054 167.005 211.208 166.388 211.208 165.795C211.208 165.2 211.451 164.164 211.764 163.423C212.077 162.682 212.228 161.961 212.11 161.773C211.62 160.994 211.652 155.212 212.159 152.951C212.466 151.58 212.558 150.407 212.376 150.171C211.89 149.541 211.621 148.115 211.949 147.91C212.114 147.807 212.36 146.576 212.505 145.13C212.65 143.685 212.912 142.445 213.098 142.331C213.285 142.217 213.432 141.719 213.432 141.201C213.432 140.686 213.77 139.533 214.192 138.606C214.614 137.679 214.845 136.773 214.711 136.567C214.576 136.359 214.641 135.993 214.859 135.733C215.073 135.478 215.497 134.269 215.801 133.046C216.381 130.711 217.045 128.675 217.565 127.634C217.865 127.034 218.579 124.261 218.834 122.704C218.9 122.3 219.036 121.592 219.133 121.147C219.376 120.035 218.183 116.93 217.324 116.437C216.937 116.214 215.953 115.39 215.137 114.605C213.938 113.451 212.839 112.911 209.392 111.783C199.755 108.63 196.951 108.063 194.232 108.718C193.268 108.95 191.877 109.245 191.118 109.379C190.377 109.509 189.474 109.926 189.154 110.287C188.649 110.855 188.633 111.084 189.043 111.825C189.31 112.307 189.765 112.887 190.062 113.122C190.518 113.483 190.433 113.712 189.506 114.623C188.894 115.225 187.597 116.247 186.559 116.945C180.674 120.906 169.118 132.044 156.702 145.721C154.414 148.241 152.682 149.752 152.409 149.465C152.292 149.341 152.707 148.242 153.347 146.982C153.987 145.722 154.496 144.442 154.496 144.091C154.496 143.738 154.726 143.053 155.019 142.534C156.128 140.57 157.09 138.313 157.09 137.678C157.09 137.307 157.238 136.92 157.424 136.807C157.605 136.697 157.868 136.103 157.998 135.51C158.129 134.917 158.485 134.213 158.776 133.972C159.075 133.725 159.585 132.934 159.925 132.193C160.265 131.452 160.817 130.529 161.167 130.117C161.509 129.715 161.899 128.467 162.02 127.393C162.157 126.17 162.576 124.963 163.113 124.242C163.583 123.612 164.095 122.776 164.225 122.426C164.363 122.055 164.617 121.777 164.818 121.777C165.014 121.777 165.59 120.887 166.115 119.775C166.64 118.663 167.381 117.666 167.783 117.532C168.172 117.402 168.968 116.624 169.507 115.845C170.049 115.062 171.323 113.873 172.287 113.25C173.251 112.628 174.27 111.855 174.511 111.564C174.765 111.257 175.289 111.027 175.734 111.027C176.172 111.027 177.087 110.631 177.828 110.119C178.552 109.619 180.145 109.027 181.368 108.803C182.591 108.579 184.426 108.237 185.445 108.043C186.483 107.846 188.032 107.591 188.966 107.464C191.042 107.182 191.931 106.427 191.931 104.948C191.931 104.095 191.639 103.608 190.8 103.058C190.17 102.645 189.581 101.972 189.468 101.538C188.822 99.0358 183.59 96.5678 173.026 93.7798C170.876 93.2128 167.823 92.3638 166.206 91.8838C163.356 91.0368 161.856 90.8058 161.502 91.1598Z" fill="#7E4D28"/>
<path d="M124.648 56.108C124.337 56.189 123.607 56.779 123.067 57.386C120.702 60.047 119.612 60.948 117.418 62.057C114.295 63.636 110.507 66.221 107.701 68.687C105.648 70.492 101.18 75.489 98.569 78.902C97.772 79.943 90.668 94.037 90.668 94.576C90.668 94.701 90.388 95.328 90.061 95.935C89.726 96.558 88.761 99.405 87.905 102.297C85.398 110.77 85.086 111.707 84.826 111.548C84.704 111.474 84.734 111.146 84.889 110.857C85.183 110.308 84.964 107.676 84.624 107.676C84.529 107.676 84.483 106.621 84.523 105.348C84.568 103.902 84.431 102.467 84.161 101.56C83.921 100.75 83.79 99.996 83.868 99.868C84.075 99.528 83.493 95.357 82.964 93.39C82.715 92.465 82.591 91.641 82.686 91.554C82.779 91.468 82.714 91.221 82.545 91.019C82.254 90.672 81.964 88.677 81.964 87.028C81.964 86.706 81.727 86.059 81.429 85.568C81.135 85.083 80.797 84.165 80.679 83.529C80.367 81.852 78.868 78.786 77.681 77.398C77.112 76.733 76.346 75.791 75.987 75.316C75.069 74.101 69.962 71.431 67.244 70.744C66.376 70.525 65.193 70.209 64.641 70.05C62.735 69.499 57.845 69.055 55.676 69.236C54.49 69.335 52.786 69.64 51.917 69.908C51.032 70.182 49.589 70.554 48.663 70.747C47.738 70.94 47 71.177 47 71.282C47 71.384 47.463 71.743 48.012 72.068C49.42 72.9 51.777 76.184 53.019 79.047C54.031 81.38 55.33 88.822 55.518 93.362C55.557 94.313 55.745 96.861 55.934 99.001C56.709 107.793 56.834 109.374 56.834 110.395C56.834 111.262 56.93 111.449 57.34 111.378C57.745 111.309 57.863 111.537 57.933 112.52C58 113.474 57.916 113.749 57.557 113.749C57.008 113.749 57.008 113.749 57.601 115.224C57.973 116.149 58.011 116.629 57.774 117.407C57.501 118.303 57.523 118.387 57.991 118.231C58.416 118.09 58.536 118.26 58.642 119.156C58.714 119.763 58.643 120.417 58.483 120.616C58.271 120.881 58.309 120.933 58.628 120.812C59.351 120.536 59.504 121.218 58.802 121.585C58.426 121.781 58.105 121.957 58.065 121.99C58.026 122.022 58.196 122.626 58.441 123.32C58.714 124.094 58.913 125.691 58.948 127.398C59.007 130.174 59.196 130.856 59.552 129.567C59.719 128.96 59.746 128.954 60.129 129.451C60.798 130.319 61.619 135.034 61.206 135.64C61.105 135.789 60.812 135.981 60.523 136.088C60.234 136.196 60.017 136.4 60.017 136.565C60.017 136.941 60.511 136.961 60.74 136.594C61.089 136.035 61.463 136.334 61.463 137.172C61.463 137.664 61.338 138.04 61.174 138.04C61.02 138.04 60.885 137.838 60.885 137.606C60.885 137.374 60.743 137.172 60.581 137.172C60.397 137.172 60.352 137.418 60.465 137.794C60.587 138.199 60.542 138.346 60.335 138.214C59.979 137.989 59.972 138.589 60.314 139.919C60.478 140.555 60.546 140.625 60.568 140.179C60.606 139.427 61.374 138.695 61.721 139.08C61.85 139.224 62.039 139.76 62.143 140.28C62.317 141.148 62.275 141.22 61.608 141.22C61.203 141.22 60.885 141.385 60.885 141.596C60.885 142.232 61.238 142.406 61.724 142.009C62.093 141.707 62.122 141.741 61.918 142.233C61.606 142.985 61.733 147.131 62.071 147.256C62.212 147.308 62.331 147.67 62.331 148.046C62.331 148.422 62.47 148.74 62.635 148.74C62.829 148.74 62.913 149.781 62.866 151.632C62.807 153.974 62.882 154.628 63.256 155.073C63.5 155.362 63.637 155.705 63.546 155.796C63.205 156.138 63.314 159.663 63.661 159.529C64.057 159.376 64.364 160.423 64.543 162.534C64.648 163.777 64.588 164.067 64.225 164.067C63.965 164.067 63.777 164.249 63.777 164.501C63.777 164.771 64.023 164.907 64.428 164.863C64.992 164.8 65.103 164.964 65.264 166.092C65.478 167.596 67.445 173.625 67.859 174.045C68.008 174.196 68.115 174.493 68.115 174.753C68.115 174.998 68.515 176.04 68.997 177.052C69.658 178.44 69.792 178.958 69.532 179.123C69.037 179.437 68.693 179.192 68.693 178.527C68.693 177.717 68.113 177.498 68.082 178.296C68.068 178.66 68.01 179.583 67.955 180.335C67.868 181.521 67.939 181.754 68.475 182.041C68.82 182.225 69.748 182.986 70.557 183.747C71.453 184.59 72.464 185.238 73.174 185.425C75.141 185.943 80.821 185.455 81.43 184.715C81.618 184.486 82.052 184.31 82.428 184.31C82.804 184.31 83.225 184.153 83.397 183.948C83.563 183.75 83.786 182.083 83.889 180.261C83.992 178.439 84.26 176.53 84.482 176.039C84.736 175.478 84.891 174.073 84.897 172.28C84.911 168.376 85.044 166.975 85.436 166.583C85.607 166.412 85.754 165.918 85.754 165.513C85.754 165.108 85.894 164.621 86.058 164.457C86.225 164.29 86.413 162.563 86.476 160.625C86.614 156.374 86.829 154.796 87.481 153.251C87.838 152.406 87.965 151.4 87.924 149.752C87.884 148.132 88.031 146.918 88.416 145.703C88.719 144.746 89.141 142.088 89.356 139.774C89.571 137.46 89.883 135.069 90.05 134.438C90.219 133.802 90.283 133.187 90.195 133.05C90.109 132.917 90.255 132.558 90.513 132.269C90.776 131.974 91.042 131.17 91.106 130.476C91.17 129.784 91.319 128.437 91.439 127.483C91.558 126.529 91.623 125.631 91.584 125.488C91.543 125.342 91.594 125.025 91.7 124.765C91.805 124.506 91.932 123.984 91.989 123.579C92.046 123.174 92.229 122.22 92.406 121.41C92.768 119.752 93.145 117.246 93.408 114.759C93.619 112.764 93.744 112.127 94.322 110.132C95.118 107.385 95.959 104.938 96.2 104.666C96.343 104.505 96.457 104.102 96.457 103.755C96.457 103.412 96.716 102.381 97.035 101.456C97.354 100.531 97.613 99.539 97.613 99.244C97.613 98.948 98.13 97.61 98.77 96.251C99.41 94.892 99.927 93.534 99.927 93.214C99.927 92.659 101.639 89.194 102.356 88.298C103.05 87.43 103.975 85.464 103.975 84.857C103.975 84.51 104.099 84.25 104.264 84.25C104.422 84.25 104.553 84.033 104.553 83.773C104.553 83.513 105.013 82.79 105.565 82.182C106.117 81.575 106.577 80.898 106.577 80.693C106.577 80.489 106.967 80.026 107.43 79.681C107.904 79.327 108.944 78.235 109.771 77.223C112.076 74.4 114.819 71.706 118.29 68.86C118.926 68.338 119.492 67.813 119.548 67.694C119.609 67.564 119.753 67.477 119.909 67.477C120.062 67.477 120.098 68.822 119.996 70.73C119.9 72.523 119.959 75.262 120.126 76.832C120.314 78.596 120.325 79.945 120.155 80.375C119.949 80.896 119.985 81.069 120.3 81.069C120.574 81.069 120.785 81.546 120.907 82.443C121.01 83.195 121.344 84.38 121.644 85.06C121.951 85.754 122.238 86.661 122.295 87.113C122.436 88.241 122.685 88.564 123.293 88.405C123.582 88.33 123.981 88.462 124.189 88.703C124.495 89.056 124.452 89.296 123.958 89.99C123.629 90.453 123.351 90.909 123.351 90.988C123.351 91.277 124.483 91.384 124.576 91.104C124.635 90.926 124.84 90.888 125.043 91.017C125.233 91.139 125.322 91.509 125.23 91.798C124.98 92.585 126.561 93.343 127.92 93.087C128.73 92.935 128.9 92.975 128.773 93.287C128.682 93.51 128.874 93.845 129.221 94.068C129.655 94.347 129.861 94.363 129.944 94.126C130.01 93.936 130.233 93.793 130.465 93.793C130.696 93.793 130.87 93.65 130.87 93.46C130.87 93.262 131.087 93.321 131.405 93.605C131.694 93.863 132.166 94.082 132.432 94.082C132.692 94.082 133.001 94.286 133.088 94.516C133.264 94.979 134.788 95.114 135.049 94.69C135.138 94.544 135.642 94.528 136.192 94.652C137.32 94.907 137.656 94.743 137.185 94.17C136.822 93.728 136.8 93.746 138.39 93.184C139.2 92.898 139.691 92.549 139.691 92.261C139.691 92.001 139.786 91.71 139.908 91.596C140.03 91.482 140.125 91.191 140.125 90.931C140.125 90.671 140.251 90.279 140.414 90.035C140.671 89.649 140.738 89.659 141.021 90.122C141.325 90.62 141.367 90.614 141.99 89.977C142.576 89.378 142.641 89.051 142.641 86.709C142.641 85.176 142.51 84.023 142.323 83.904C142.12 83.775 142.251 83.524 142.684 83.21C143.291 82.771 143.315 82.691 142.901 82.458C142.479 82.221 142.489 82.125 143.017 81.374C143.434 80.78 143.595 80.102 143.595 78.945C143.595 78.048 143.723 77.008 143.884 76.588C144.046 76.168 144.199 75.128 144.231 74.231C144.263 73.335 144.391 72.568 144.52 72.496C144.649 72.424 144.627 72.134 144.472 71.845C144.127 71.201 144.538 68.317 145.201 66.726C145.638 65.679 145.629 65.627 144.826 64.326C143.878 62.79 141.916 61.211 139.256 59.844C134.687 57.496 133.805 57.088 132.315 56.633C130.75 56.158 125.773 55.816 124.648 56.108ZM61.314 75.866C61.413 76.031 61.357 76.155 61.184 76.155C61.01 76.155 60.88 76.031 60.88 75.866C60.88 75.692 60.932 75.577 61.01 75.577C61.088 75.577 61.21 75.692 61.314 75.866ZM62.616 145.562C62.616 145.727 62.486 145.851 62.312 145.851C62.138 145.851 62.083 145.727 62.182 145.562C62.286 145.388 62.408 145.273 62.486 145.273C62.564 145.273 62.616 145.388 62.616 145.562ZM65.652 164.012C65.42 164.244 64.943 163.723 65.124 163.434C65.235 163.256 65.394 163.289 65.536 163.521C65.661 163.723 65.714 163.95 65.652 164.012Z" fill="#7E4D28"/>
<path d="M131.299 94.663C131.403 94.837 131.525 94.952 131.603 94.952C131.681 94.952 131.733 94.836 131.733 94.663C131.733 94.498 131.603 94.374 131.429 94.374C131.256 94.374 131.2 94.498 131.299 94.663Z" fill="#7E4D28"/>
<path d="M59.434 139.503C59.434 139.676 59.558 139.732 59.723 139.633C59.896 139.529 60.012 139.407 60.012 139.329C60.012 139.251 59.896 139.199 59.723 139.199C59.558 139.199 59.434 139.329 59.434 139.503Z" fill="#7E4D28"/>
<path d="M60.013 141.527C60.013 141.7 60.137 141.756 60.302 141.657C60.475 141.553 60.591 141.431 60.591 141.353C60.591 141.275 60.475 141.223 60.302 141.223C60.137 141.224 60.013 141.354 60.013 141.527Z" fill="#7E4D28"/>
<path d="M60.49 145.113C60.402 145.344 60.454 145.61 60.606 145.706C60.771 145.81 60.881 145.827 60.881 145.749C60.881 145.676 60.957 145.416 61.055 145.156C61.153 144.896 61.102 144.693 60.939 144.693C60.779 144.694 60.578 144.882 60.49 145.113Z" fill="#7E4D28"/>
<path d="M60.88 151.635C60.88 151.803 61.068 151.924 61.328 151.924C61.588 151.924 61.704 151.803 61.603 151.635C61.499 151.461 61.32 151.346 61.155 151.346C60.99 151.345 60.88 151.461 60.88 151.635Z" fill="#7E4D28"/>
<path d="M63.352 162.913C63.257 163.069 63.31 163.243 63.483 163.347C63.637 163.44 63.772 163.318 63.772 163.087C63.772 162.566 63.604 162.497 63.352 162.913Z" fill="#7E4D28"/>
<path d="M67.387 176.794C67.288 176.959 67.344 177.083 67.517 177.083C67.691 177.083 67.821 176.959 67.821 176.794C67.821 176.62 67.769 176.505 67.691 176.505C67.613 176.505 67.491 176.621 67.387 176.794Z" fill="#7E4D28"/>
<path d="M12.3812 81.0105C11.8672 81.5245 11.8682 81.5735 12.4132 81.8915C12.7242 82.0725 13.3742 82.5456 13.8232 82.9166L14.6562 83.6055L14.6082 97.4945C14.5822 105.12 14.5112 117.164 14.4512 124.2C14.3362 137.785 14.3442 137.902 16.1062 149.19C16.4362 151.305 16.7852 154.03 16.8802 155.245C17.0582 157.506 17.7152 159.891 19.3592 164.248C19.8912 165.658 20.6022 167.604 20.9392 168.573C22.3542 172.642 24.6032 176.502 27.2102 179.338C31.0942 183.564 35.7692 185.603 41.5042 185.574C45.2852 185.555 45.7012 185.462 48.9372 183.927C51.4842 182.719 53.8852 180.78 58.0312 176.582C59.9652 174.624 60.4452 173.602 62.2292 167.643C62.7472 165.913 62.8952 164.813 62.7782 163.574C62.6342 162.044 62.4452 161.7 60.8722 160.098C59.8972 159.105 59.0342 158.412 58.9182 158.528C58.8052 158.641 58.7102 159.249 58.7102 159.858C58.7102 161.483 58.1102 163.286 56.6082 166.17C52.2882 174.468 47.7552 178.91 44.1962 178.333C40.8952 177.798 37.3672 174.116 36.7162 170.528C36.6002 169.887 36.4012 169.232 36.2692 169.054C35.9722 168.653 35.7032 167.26 35.2492 163.767C34.8832 160.954 34.8342 159.634 34.9592 156.078C35.0002 154.925 35.0272 153.781 35.0202 153.515C35.0092 153.06 35.2012 150.151 35.4642 146.787C35.5272 145.984 35.7402 144.352 35.9452 143.102C36.1502 141.853 36.3702 140.171 36.4422 139.305C36.5132 138.44 36.7902 137.503 37.0672 137.19C37.3622 136.857 37.6482 135.732 37.7722 134.419C37.8872 133.202 38.0772 132.064 38.1962 131.888C38.5762 131.325 39.1152 129.069 39.4972 126.441C39.7022 125.031 40.0512 123.373 40.2732 122.757C40.9062 120.995 41.9252 116.105 41.7742 115.548C41.7312 115.389 41.8312 114.971 41.9952 114.619C42.8972 112.685 43.3112 107.57 42.8652 103.854C42.6082 101.708 42.5132 100.874 42.2462 98.3745C41.9852 95.9345 40.8922 93.9535 38.1632 90.9735C35.5232 88.0905 33.7942 86.7175 31.5722 85.7415C30.8942 85.4435 29.6662 84.8655 28.8012 84.4375C27.9362 84.0095 27.0412 83.6685 26.7832 83.6685C26.5262 83.6685 25.6462 83.3395 24.8132 82.9315C23.9802 82.5235 22.6632 82.0085 21.8662 81.7785C21.0652 81.5475 20.0682 81.2196 19.6232 81.0416C19.1792 80.8646 17.5082 80.6646 15.8742 80.5936C13.4062 80.4866 12.8372 80.5545 12.3812 81.0105Z" fill="#7E4D28"/>
<path d="M542.603 63.7377C541.942 64.2067 541.2 64.5897 540.951 64.5897C540.379 64.5897 536.454 68.5197 533.726 71.8237C532.578 73.2147 531.389 74.6457 531.096 74.9887C525.394 81.6787 521.17 90.8477 519.784 99.5427C517.911 111.298 517.632 116.323 518.396 124.549C519.229 133.522 520.665 139.144 523.859 145.938C528.486 155.78 534.764 162.175 543.107 165.543C545.856 166.652 545.959 166.666 551.628 166.666C556.323 166.666 557.746 166.546 559.453 166.005C560.601 165.642 561.853 165.319 562.235 165.289C564.565 165.104 566.548 164.593 567.626 163.901C568.287 163.476 569.368 162.915 569.991 162.673C571.239 162.189 574.69 157.902 575.344 156.024C575.538 155.467 575.898 155.015 576.147 155.015C576.554 155.015 578.408 152.163 578.408 151.537C578.408 151.382 578.946 150.459 579.625 149.45C580.304 148.441 580.842 147.48 580.842 147.276C580.842 147.075 581.248 146.059 581.746 145.015C582.244 143.972 582.697 142.854 582.755 142.528C582.813 142.201 583.487 140.615 584.263 138.981C586.739 133.764 587.103 132.897 587.103 132.199C587.103 131.825 587.424 130.877 587.798 130.147C588.173 129.417 588.494 128.462 588.494 128.078C588.494 127.685 588.884 126.6 589.363 125.661C589.842 124.722 590.139 123.816 590.024 123.644C589.906 123.467 590.046 122.983 590.345 122.531C590.89 121.709 591.728 119.053 591.728 118.149C591.728 117.871 591.841 117.465 591.971 117.28C592.104 117.089 592.489 116.045 592.823 114.967C593.329 113.332 593.362 112.791 593.019 111.75C592.572 110.394 592.365 110.27 591.658 110.94C591.31 111.269 591.166 111.263 591.035 110.915C590.829 110.371 590.163 110.38 589.119 110.943C586.125 112.556 585.643 113.315 583.988 119.019C581.282 128.34 576.806 139.921 573.772 145.451C571.138 150.25 565.014 158.613 563.313 159.731C562.519 160.253 561.331 160.129 556.879 159.062C553.54 158.262 547.106 151.521 547.106 148.824C547.106 148.302 546.88 147.527 546.619 147.155C546.017 146.296 545.003 142.808 545.05 141.764C545.071 141.313 544.976 140.425 544.845 139.834C544.636 138.895 544.706 138.706 545.332 138.509C545.98 138.306 547.935 136.443 550.492 133.591C553.423 130.322 554.963 128.498 555.247 127.957C555.419 127.63 555.923 127.04 556.375 126.635C556.827 126.231 557.192 125.726 557.192 125.505C557.192 125.292 557.435 125.105 557.714 125.105C558.003 125.105 558.375 124.74 558.549 124.288C558.721 123.84 559.349 123.062 559.94 122.567C560.531 122.071 561.018 121.568 561.018 121.454C561.018 121.187 564.878 116.621 565.226 116.477C565.358 116.422 565.906 115.472 566.426 114.394C566.946 113.316 567.478 112.337 567.591 112.247C568.225 111.748 569.017 110.255 569.017 109.559C569.017 109.107 569.153 108.759 569.33 108.759C569.501 108.759 569.809 108.324 570.008 107.803C570.207 107.281 570.61 106.451 570.895 105.977C571.187 105.49 571.738 104.342 572.147 103.369C572.556 102.395 573.023 101.401 573.208 101.108C573.384 100.83 573.628 100.343 573.73 100.065C573.834 99.7797 574.15 99.0217 574.426 98.3957C574.701 97.7697 574.93 96.9557 574.93 96.6047C574.93 96.2567 575.17 95.8737 575.452 95.7697C575.733 95.6667 575.974 95.1607 575.974 94.6737C575.974 94.1847 576.262 93.1787 576.6 92.4827C576.948 91.7677 577.427 90.5007 577.678 89.6307C577.929 88.7607 578.269 87.7957 578.443 87.4567C578.622 87.1087 578.756 86.5877 578.756 86.2397C578.756 85.9097 579.13 85.0747 579.573 84.4137C580.016 83.7547 580.558 82.4317 580.755 81.5267C581.105 79.9267 581.075 79.7997 580.025 78.4837C579.415 77.7187 578.583 77.0177 578.147 76.9017C577.695 76.7807 577.365 76.4287 577.365 76.0667C577.365 75.6287 576.843 75.2637 575.626 74.8497C574.617 74.5067 573.887 74.0537 573.887 73.7717C573.887 73.5037 573.574 72.9717 573.191 72.5897C572.808 72.2067 572.496 71.7847 572.496 71.6507C572.496 71.3977 570.792 69.8067 569.192 68.5647C568.618 68.1197 566.584 67.3327 564.671 66.8157C562.758 66.2987 560.771 65.5867 560.254 65.2327C559.176 64.4937 558.535 64.4307 557.959 65.0067C557.673 65.2927 556.829 65.1487 554.603 64.4327C552.968 63.9067 550.729 63.4217 549.63 63.3547C548.517 63.2867 546.782 63.1557 545.717 63.0587C544.081 62.9107 543.628 63.0097 542.603 63.7377ZM570.367 83.0567C571.138 84.1877 571.163 84.4127 570.935 88.2037C570.649 92.9687 569.616 97.1207 567.727 101.107C565.222 106.393 564.843 107.344 564.843 108.341C564.843 108.967 564.532 109.588 563.973 110.08C563.486 110.508 563.104 111.159 563.104 111.558C563.104 111.941 562.862 112.36 562.582 112.462C562.304 112.564 562.06 112.881 562.06 113.14C562.06 113.418 561.933 113.627 561.764 113.627C561.604 113.627 561.173 114.305 560.825 115.105C560.477 115.905 559.99 116.703 559.764 116.844C559.245 117.168 558.234 119.087 558.234 119.748C558.234 120.021 557.851 120.388 557.364 120.583C556.877 120.778 556.494 121.137 556.494 121.4C556.494 121.657 555.746 122.562 554.842 123.4C553.938 124.238 553.185 125.088 553.179 125.278C553.169 125.614 551.138 127.739 549.677 128.942C549.318 129.238 548.349 130.216 547.556 131.086C546.762 131.956 545.77 132.789 545.382 132.912C544.999 133.033 544.669 133.291 544.669 133.468C544.669 133.666 544.544 133.798 544.356 133.798C543.923 133.798 543.655 130.216 544.051 129.729C544.238 129.499 544.289 128.999 544.165 128.616C544.044 128.245 544.134 127.555 544.356 127.138C544.586 126.707 544.758 125.364 544.739 124.147C544.72 122.93 544.876 121.517 545.087 121C545.296 120.488 545.517 119.191 545.574 118.148C545.631 117.105 545.837 115.603 546.026 114.844C546.216 114.083 546.468 112.705 546.582 111.801C546.696 110.897 547.019 109.921 547.295 109.645C547.57 109.37 547.902 108.619 548.025 107.993C548.148 107.367 548.425 106.608 548.634 106.324C548.842 106.041 549.319 105.246 549.677 104.585C550.036 103.924 550.433 103.288 550.547 103.193C550.93 102.873 552.669 99.0547 552.669 98.5327C552.669 98.2407 553.052 97.6287 553.539 97.1417C554.026 96.6547 554.408 95.9657 554.408 95.5767C554.408 95.1897 554.794 94.4637 555.277 93.9417C555.76 93.4197 556.147 92.7327 556.147 92.3937C556.147 92.0587 556.46 91.7067 556.843 91.6117C557.26 91.5077 557.622 91.0207 557.747 90.3947C557.869 89.7857 558.651 88.6627 559.625 87.6997C560.529 86.8047 561.222 85.8567 561.137 85.6307C560.991 85.2437 564.32 83.3697 565.155 83.3697C565.318 83.3697 565.535 83.1787 565.607 82.9697C565.685 82.7457 566.268 82.5157 566.928 82.4477C567.589 82.3797 568.264 82.1727 568.458 81.9777C568.993 81.4467 569.441 81.7007 570.367 83.0567Z" fill="#7E4D28"/>
<path d="M418.382 0.373088C417.842 0.793088 417.853 0.862077 418.558 1.46208C418.975 1.81608 419.569 2.10307 419.888 2.10307C420.464 2.10307 421.743 3.83308 422.376 5.46708C423.254 7.73508 423.519 11.8431 423.305 19.8851C423.187 24.3061 423.033 28.2541 422.96 28.6961C422.825 29.5171 422.303 37.3471 421.968 43.5941C421.863 45.5481 421.729 47.6891 421.668 48.4001C421.081 55.1921 420.849 81.9251 421.344 85.7261C421.424 86.3411 421.57 88.8021 421.666 91.1731C421.763 93.5441 421.994 96.6561 422.179 98.0611C422.362 99.4591 422.493 101.906 422.467 103.443C422.43 105.59 422.541 106.454 422.932 107.064C423.322 107.673 423.356 107.973 423.076 108.314C422.865 108.57 422.793 108.9 422.906 109.083C423.199 109.555 423.374 110.941 423.687 115.267C423.835 117.318 424.035 119.106 424.132 119.256C424.229 119.406 424.619 122.476 425 126.096C425.88 134.458 426.335 137.318 427.977 144.839C428.712 148.203 429.326 151.571 429.351 152.368C429.399 153.938 429.758 155.537 430.185 156.085C430.334 156.276 430.576 157.302 430.714 158.328C430.976 160.28 432.204 162.557 434.514 165.377C435.887 167.053 437.957 167.796 441.353 167.832C444.012 167.86 445.518 167.228 445.518 166.082C445.518 165.749 445.867 164.865 446.289 164.128C446.952 162.972 447.25 161.693 447.574 158.617C447.665 157.754 448.298 155.509 449.101 153.202C449.569 151.856 449.69 150.964 449.539 149.966C449.413 149.133 449.464 148.506 449.667 148.38C449.846 148.269 450.003 147.835 450.003 147.451C450.003 147.054 450.205 145.945 450.452 144.984C450.699 144.023 450.98 142.727 451.077 142.101C451.176 141.46 451.456 140.572 451.718 140.066C451.975 139.569 452.19 138.576 452.199 137.839C452.208 137.108 452.453 135.644 452.744 134.587C453.035 133.53 453.337 132.232 453.417 131.703C453.499 131.158 453.686 130.464 453.85 130.101C454.011 129.744 454.214 128.467 454.309 127.217C454.529 124.334 454.834 122.503 455.163 122.091C455.302 121.917 455.463 120.938 455.516 119.944C455.63 117.788 455.831 117.893 457.464 120.969C458.387 122.706 459.307 124.91 461.547 130.741C462.359 132.856 466.665 146.549 466.665 147.017C466.665 147.305 466.786 147.562 466.921 147.562C467.185 147.562 467.45 148.203 470.037 155.091C471.745 159.64 474.911 166.115 477.181 169.701C478.621 171.976 479.078 172.969 478.936 173.514C478.811 173.994 478.928 174.351 479.272 174.539C479.566 174.699 479.801 175.084 479.801 175.404C479.801 176.85 488.451 183.295 491.655 184.236C492.099 184.366 493.385 184.921 494.539 185.481C496.39 186.378 496.942 186.49 499.505 186.49C502.036 186.49 502.698 186.361 504.92 185.438C508.124 184.107 511.765 181.094 512.477 179.185C512.907 178.032 514.319 174.868 514.722 174.155C515.628 172.553 517.928 167.817 517.928 167.555C517.928 167.376 518.104 167.058 518.329 166.834C518.554 166.61 518.734 166.335 518.741 166.209C518.757 165.88 519.524 163.518 519.853 162.781C520.012 162.425 520.36 161.371 520.636 160.41C520.912 159.449 521.325 158.381 521.565 158.007C521.805 157.633 522.149 156.693 522.339 155.893C522.894 153.554 524.331 149.452 525.156 147.851C525.387 147.402 525.504 146.937 525.409 146.842C525.314 146.747 525.463 146.169 525.729 145.593C526.006 144.995 526.517 143.527 526.882 142.277C527.248 141.027 527.695 139.609 527.891 139.073C528.091 138.528 528.292 137.765 528.356 137.311C528.418 136.867 528.672 135.709 528.925 134.716C529.505 132.441 529.202 131.721 527.795 132.031C527.25 132.151 526.368 132.491 525.841 132.784C524.495 133.533 522.418 136.055 522.085 137.343C521.931 137.94 521.5 139.65 521.131 141.124C520.762 142.599 519.722 145.93 518.829 148.493C511.675 169.03 511.845 168.629 506.946 176.655C505.362 179.25 504.152 180.338 503.222 180.001C502.517 179.746 501.588 178.845 501.588 178.417C501.588 178.195 501.363 178 501.106 178C500.85 178 500.626 177.85 500.626 177.68C500.626 177.493 500.466 177.356 500.241 177.351C499.353 177.331 496.46 174.028 496.46 173.035C496.46 172.745 496.043 172.168 495.499 171.705C494.762 171.079 494.583 170.709 494.73 170.119C494.866 169.574 494.773 169.294 494.41 169.158C494.122 169.05 493.925 168.805 493.962 168.597C493.997 168.395 493.692 167.54 493.289 166.707C492.886 165.874 492.632 164.975 492.728 164.72C492.825 164.464 492.696 164.09 492.44 163.887C492.182 163.682 491.975 163.134 491.975 162.654C491.975 162.174 491.724 161.433 491.41 160.988C490.754 160.059 490.636 159.49 491.046 159.241C491.205 159.144 491.119 158.649 490.854 158.137C490.589 157.624 490.373 156.921 490.373 156.567C490.373 156.214 490.25 155.854 490.101 155.766C489.949 155.677 489.744 154.997 489.636 154.228C489.532 153.48 489.07 151.905 488.627 150.784C488.184 149.663 487.81 148.095 487.81 147.356C487.81 146.619 487.67 145.906 487.506 145.802C487.337 145.695 487.202 145.225 487.202 144.745C487.202 143.303 486.624 140.026 486.242 139.298C486.043 138.92 485.888 138.225 485.888 137.712C485.888 137.199 485.733 136.644 485.536 136.446C485.344 136.254 485.06 135.533 484.911 134.86C484.76 134.175 484.468 132.986 484.254 132.185C484.04 131.384 483.881 130.473 483.895 130.134C483.926 129.365 482.089 125.415 481.499 124.983C481.252 124.803 481.088 124.367 481.133 124.014C481.251 123.105 480.487 120.65 479.778 119.657C479.435 119.176 479.16 118.642 479.16 118.456C479.16 118.264 478.982 117.927 478.745 117.671C477.931 116.791 477.513 115.749 477.331 114.147C477.225 113.218 476.915 112.198 476.629 111.84C476.351 111.492 475.831 110.687 475.492 110.078C475.153 109.469 474.406 108.517 473.858 107.995C473.313 107.476 472.79 106.886 472.721 106.714C472.426 105.977 468.014 102.389 467.403 102.389C466.314 102.389 466.226 101.188 467.275 100.644C467.756 100.395 468.529 99.8741 468.941 99.5221C469.358 99.1651 470.223 98.5281 470.831 98.1281C471.44 97.7281 472.135 97.0101 472.353 96.5581C472.573 96.1001 473.33 95.2491 474.035 94.6681C474.74 94.0861 475.317 93.4451 475.317 93.2421C475.317 93.0381 475.99 92.2301 476.823 91.4321C478.393 89.9291 479.803 87.9281 479.803 87.2021C479.803 86.9701 480.272 86.2731 480.859 85.6321C482.062 84.3181 483.968 81.4111 483.968 80.8901C483.968 80.7051 484.256 80.2901 484.577 80.0151C485.538 79.1901 487.813 74.9631 487.813 74.0021C487.813 73.7781 487.946 73.5041 488.101 73.4091C488.262 73.3111 488.489 72.6721 488.614 71.9671C488.739 71.2621 489.037 70.5381 489.287 70.3331C489.535 70.1291 489.736 69.6281 489.736 69.2121C489.736 68.7951 489.865 68.3801 490.024 68.2831C490.182 68.1861 490.413 67.5301 490.537 66.8251C490.66 66.1201 490.891 65.4641 491.05 65.3671C491.204 65.2731 491.338 64.8541 491.338 64.4701C491.338 64.0691 491.608 63.1881 491.947 62.4841C492.279 61.7941 492.716 60.4181 492.908 59.4561C493.1 58.4951 493.413 56.9661 493.597 56.0921C493.785 55.1951 494.067 53.8631 494.238 53.0641C494.402 52.2951 494.454 51.1511 494.35 50.5811C494.245 50.0041 494.298 49.3491 494.465 49.1391C494.934 48.5521 494.696 44.1731 494.08 42.0581C493.454 39.9111 492.384 38.5211 490.698 37.6631C489.738 37.1741 489.032 37.0871 486.981 37.2041C485.603 37.2821 483.691 37.5541 482.784 37.8001C479.204 38.7711 474.906 42.1541 471.839 46.4151C469.596 49.5321 468.743 51.0611 467.336 54.4891C466.758 55.8991 466.061 57.5571 465.788 58.1741C465.518 58.7831 465.321 59.5521 465.355 59.8561C465.392 60.1761 465.206 60.4991 464.922 60.6091C464.634 60.7211 464.425 60.9561 464.425 61.1701C464.425 61.3751 464.226 61.9231 463.977 62.4031C463.732 62.8751 463.07 64.5501 462.519 66.0881C461.968 67.6261 461.218 69.6141 460.869 70.4611C460.512 71.3261 460.299 72.0931 460.388 72.1911C460.48 72.2921 460.39 72.6561 460.18 73.0401C459.969 73.4241 459.839 73.8231 459.876 73.9691C459.912 74.1111 459.734 74.6101 459.476 75.0901C459.219 75.5691 458.723 76.8841 458.365 78.0381C457.51 80.7931 455.101 90.3841 454.904 91.8151C454.82 92.4241 454.64 93.0831 454.51 93.2571C454.379 93.4321 454.074 94.3461 453.837 95.2761C453.387 97.0411 453.565 96.9011 449.368 98.8191C448.919 99.0241 448.356 99.3191 448.086 99.4891C447.82 99.6581 446.885 100.008 445.987 100.274C445.09 100.54 444.112 100.855 443.792 100.979C443.254 101.188 443.231 101.011 443.456 98.3521C443.588 96.7821 443.718 94.7091 443.744 93.7381C443.77 92.7771 443.909 91.5751 444.048 91.0951C444.206 90.5501 444.17 90.0491 443.952 89.7811C443.691 89.4611 443.712 89.2531 444.032 88.9801C444.274 88.7741 444.401 88.2591 444.32 87.8101C444.239 87.3621 444.359 86.7911 444.592 86.5131C444.822 86.2381 445.048 85.3441 445.097 84.5101C445.237 82.1391 445.452 79.4801 445.505 79.4801C445.532 79.4801 445.596 78.9031 445.649 78.1981C445.701 77.4991 446 76.1161 446.306 75.1541C446.614 74.1851 446.989 72.2391 447.139 70.8291C447.288 69.4261 447.643 66.8881 447.924 65.2221C448.205 63.5561 448.509 61.4531 448.597 60.5761C448.685 59.6971 448.99 56.7311 449.272 54.0081C449.957 47.4081 450.004 46.5601 449.968 41.5131C449.916 34.1761 449.92 33.0601 450.001 31.5811C450.121 29.4021 449.759 25.2811 449.331 23.9561C449.118 23.2961 448.537 21.7771 448.019 20.5281C447.501 19.2781 447.005 17.6471 446.898 16.8431C446.791 16.0421 446.514 15.1231 446.273 14.7771C446.029 14.4251 445.84 13.9711 445.84 13.7361C445.84 13.3431 445.491 12.7751 443.933 10.6281C442.84 9.12209 439.175 5.67209 437.734 4.79209C435.267 3.28609 433.554 2.42607 433.024 2.42607C432.74 2.42607 431.71 2.14307 430.717 1.79307C426.424 0.276071 419.526 -0.516912 418.382 0.373088ZM484.098 44.1701C484.3 45.4661 484.23 47.5021 483.856 51.1871C482.846 61.1511 481.956 65.3131 480.172 68.4241C480.018 68.6921 479.411 69.8981 478.801 71.1471C477.299 74.2231 474.76 78.5641 473.554 80.1181C473.007 80.8231 472.355 81.7021 472.106 82.0721C469.538 85.8851 466.659 88.9281 463.108 91.5841C461.634 92.6861 461.266 92.6801 461.438 91.5561C461.512 91.0741 461.613 90.2581 461.666 89.7141C461.719 89.1691 461.911 88.4601 462.098 88.1121C462.288 87.7601 462.436 87.4171 462.438 87.3271C462.451 86.6481 463.009 84.3151 463.472 83.0021C463.788 82.1051 464.13 80.9071 464.248 80.2791C464.483 79.0291 466.24 73.4251 466.718 72.3971C466.882 72.0441 466.98 71.6191 466.936 71.4521C466.892 71.2861 467.103 70.5871 467.4 69.9141C467.697 69.2411 467.945 68.5421 467.945 68.3761C467.945 68.2111 468.23 67.5271 468.565 66.8861C469.42 65.2521 470.828 61.8631 470.828 61.4391C470.828 61.2451 471.197 60.2531 471.651 59.2281C472.459 57.4021 472.64 57.0231 473.307 55.7681C473.498 55.4091 473.966 54.4221 474.373 53.5251C475.258 51.5711 477.994 47.4621 479.223 46.2441C479.704 45.7681 480.12 45.2431 480.12 45.1141C480.12 44.9801 480.678 44.2651 481.382 43.4961C483.108 41.6151 483.724 41.7671 484.098 44.1701ZM444.75 104.701C446.865 105.683 448.221 106.74 449.551 108.44C450.553 109.722 450.656 110.026 450.485 111.179C450.381 111.884 450.239 112.842 450.174 113.278C449.701 116.472 448.852 120.743 448.009 124.171C447.465 126.382 446.974 128.75 446.912 129.457C446.85 130.162 446.648 131.171 446.463 131.7C446.279 132.226 445.858 134.039 445.534 135.705C445.208 137.379 444.581 140.191 444.14 141.953C443.699 143.715 443.093 146.281 442.792 147.656C442.245 150.155 441.712 150.901 441.647 149.258C441.328 141.216 441.247 140.156 440.908 139.614C440.768 139.39 440.807 139.005 440.993 138.781C441.498 138.172 441.563 134.273 441.077 133.687C440.865 133.431 440.814 133.122 440.967 133.026C441.378 132.768 441.694 129.554 441.349 129.138C441.157 128.906 441.152 128.353 441.335 127.744C441.499 127.199 441.521 126.329 441.383 125.854C441.243 125.373 441.229 124.682 441.351 124.332C441.477 123.972 441.512 123.243 441.431 122.666C441.35 122.089 441.396 121.388 441.536 121.064C441.84 120.361 441.908 119.622 441.973 116.322C442.001 114.912 442.176 113.182 442.363 112.477C442.686 111.256 442.715 110.074 442.518 106.229C442.444 104.787 442.661 104.052 443.177 103.99C443.198 103.989 443.917 104.314 444.75 104.701Z" fill="#7E4D28"/>
<path d="M351.502 73.1598C351.399 73.2628 350.52 73.4438 349.519 73.5678C348.518 73.6918 347.393 73.9628 346.98 74.1798C346.387 74.4908 346.172 74.4508 345.907 73.9758C345.443 73.1468 340.79 73.1588 338.974 73.9928C338.07 74.4078 336.446 76.0888 333.939 79.2018C330.447 83.5388 327.166 88.0758 327.104 88.6538C327.088 88.7968 326.518 89.8768 325.831 91.0628C321.645 98.2908 317.685 107.164 316.022 113.043C311.671 128.426 310.333 138.337 311.296 148.034C311.543 150.517 313.317 153.462 315.4 154.846C316.438 155.536 317.661 156.167 318.18 156.281C318.699 156.395 319.433 156.61 319.848 156.769C322.517 157.792 323.348 158.015 324.667 158.062C325.482 158.091 326.517 158.241 326.965 158.394C327.41 158.546 328.109 158.495 328.503 158.283C329.093 157.965 329.335 158.061 329.819 158.802C330.279 159.507 330.69 159.694 331.654 159.636C332.321 159.596 333.17 159.33 333.489 159.061C333.807 158.793 334.434 158.672 334.842 158.802C335.307 158.95 336.306 158.688 337.418 158.128C339.457 157.1 340.463 156.212 341.336 154.67C342.26 153.039 342.79 152.228 343.659 151.112C344.121 150.519 344.497 149.838 344.497 149.592C344.497 148.946 346.461 147.146 347.166 147.146C348.05 147.146 349.316 145.181 349.316 143.81C349.316 143.07 349.844 141.883 350.799 140.474C351.603 139.288 352.282 138.185 352.282 138.065C352.282 137.75 354.536 134.914 356.79 132.394C357.751 131.319 358.764 130.043 359.027 129.577C359.925 127.983 361.463 125.835 362.068 125.329C362.402 125.05 362.661 124.662 362.661 124.444C362.661 124.233 363.119 123.462 363.662 122.758C364.205 122.054 364.682 121.19 364.705 120.868C364.757 120.127 367.002 116.754 367.443 116.754C367.63 116.754 368.152 116.142 368.629 115.364C369.106 114.586 369.612 113.919 369.778 113.849C370.163 113.687 370.388 113.455 373.758 109.748C375.274 108.08 376.685 106.746 376.932 106.746C377.177 106.746 377.677 106.413 378.044 106.005C378.411 105.597 378.811 105.364 378.934 105.486C379.056 105.608 379.165 114.326 379.175 124.853C379.187 137.53 379.338 144.937 379.62 146.778C379.854 148.307 380.217 150.892 380.425 152.523C380.799 155.451 382.119 160.334 382.72 161.011C382.908 161.223 383.049 161.604 383.049 161.901C383.049 162.568 385.114 166.942 385.744 167.609C385.992 167.871 386.914 169.054 387.766 170.204C389.608 172.687 391.223 173.992 393.39 174.747C395.28 175.405 399.792 175.721 401.285 175.299C402.701 174.899 406.088 171.205 408.096 167.869C408.297 167.535 408.667 167.003 408.883 166.738C409.111 166.458 409.731 165.422 410.291 164.384C410.839 163.37 412.181 161.675 413.256 160.64C414.331 159.606 415.338 158.364 415.48 157.897C415.622 157.432 416.481 156.345 417.37 155.506C418.26 154.667 419.001 153.833 419.001 153.671C419.001 153.51 420.226 152.133 421.688 150.65C423.15 149.167 425.516 146.735 426.877 145.312C428.261 143.866 429.454 142.699 429.546 142.699C429.639 142.699 430.306 142.152 431.047 141.469C432.69 139.955 432.641 138.968 430.899 138.466C429.829 138.157 429.342 138.259 427.674 139.14C426.599 139.708 424.893 141.051 423.907 142.105C420.025 146.257 401.923 164.197 401.616 164.197C401.24 164.197 400.861 162.9 400.848 161.565C400.842 161.024 400.602 159.934 400.301 159.082C399.947 158.081 399.89 157.48 400.134 157.321C400.349 157.181 400.411 156.839 400.282 156.506C400.159 156.188 400.324 155.246 400.653 154.393C401.119 153.183 401.167 152.503 400.875 151.205C400.642 150.167 400.635 149.425 400.856 149.203C401.054 149.005 401.208 148.388 401.208 147.795C401.208 147.2 401.451 146.164 401.764 145.423C402.077 144.682 402.228 143.961 402.11 143.773C401.62 142.994 401.652 137.212 402.159 134.951C402.466 133.58 402.558 132.407 402.376 132.171C401.89 131.541 401.621 130.115 401.949 129.91C402.114 129.807 402.36 128.576 402.505 127.13C402.65 125.685 402.912 124.445 403.098 124.331C403.285 124.217 403.432 123.719 403.432 123.201C403.432 122.686 403.77 121.533 404.192 120.606C404.614 119.679 404.845 118.773 404.711 118.567C404.576 118.359 404.641 117.993 404.859 117.733C405.073 117.478 405.497 116.269 405.801 115.046C406.381 112.711 407.045 110.675 407.565 109.634C407.865 109.034 408.579 106.261 408.834 104.704C408.9 104.3 409.036 103.592 409.133 103.147C409.376 102.035 408.183 98.9298 407.324 98.4368C406.937 98.2138 405.953 97.3898 405.137 96.6048C403.938 95.4508 402.839 94.9108 399.392 93.7828C389.755 90.6298 386.951 90.0628 384.232 90.7178C383.268 90.9498 381.877 91.2448 381.118 91.3788C380.377 91.5088 379.474 91.9258 379.154 92.2868C378.649 92.8548 378.633 93.0838 379.043 93.8248C379.31 94.3068 379.765 94.8868 380.062 95.1218C380.518 95.4828 380.433 95.7118 379.506 96.6228C378.894 97.2248 377.597 98.2468 376.559 98.9448C370.674 102.906 359.118 114.044 346.702 127.721C344.414 130.241 342.682 131.752 342.409 131.465C342.292 131.341 342.707 130.242 343.347 128.982C343.987 127.722 344.496 126.442 344.496 126.091C344.496 125.738 344.726 125.053 345.019 124.534C346.128 122.57 347.09 120.313 347.09 119.678C347.09 119.307 347.238 118.92 347.424 118.807C347.605 118.697 347.868 118.103 347.998 117.51C348.129 116.917 348.485 116.213 348.776 115.972C349.075 115.725 349.585 114.934 349.925 114.193C350.265 113.452 350.817 112.529 351.167 112.117C351.509 111.715 351.899 110.467 352.02 109.393C352.157 108.17 352.576 106.963 353.113 106.242C353.583 105.612 354.095 104.776 354.225 104.426C354.363 104.055 354.617 103.777 354.818 103.777C355.014 103.777 355.59 102.887 356.115 101.775C356.64 100.663 357.381 99.6658 357.783 99.5318C358.172 99.4018 358.968 98.6238 359.507 97.8448C360.049 97.0618 361.323 95.8728 362.287 95.2498C363.251 94.6278 364.27 93.8548 364.511 93.5638C364.765 93.2568 365.289 93.0268 365.734 93.0268C366.172 93.0268 367.087 92.6308 367.828 92.1188C368.552 91.6188 370.145 91.0268 371.368 90.8028C372.591 90.5788 374.426 90.2368 375.445 90.0428C376.483 89.8458 378.032 89.5908 378.966 89.4638C381.042 89.1818 381.931 88.4268 381.931 86.9478C381.931 86.0948 381.639 85.6078 380.8 85.0578C380.17 84.6448 379.581 83.9718 379.468 83.5378C378.822 81.0358 373.59 78.5678 363.026 75.7798C360.876 75.2128 357.823 74.3638 356.206 73.8838C353.356 73.0368 351.856 72.8058 351.502 73.1598Z" fill="#7E4D28"/>
<path d="M300.05 63.2061C298.801 63.5091 298.219 64.3241 297.985 66.0981C297.857 67.0661 297.284 68.8631 296.694 70.1501C296.104 71.4371 295.602 72.6481 295.564 72.8801C295.524 73.1181 295.284 73.6101 295.002 74.0281C294.429 74.8781 294.312 74.8441 289.756 72.4971C288.504 71.8521 287.358 71.4261 287.235 71.5581C287.115 71.6871 286.806 71.5231 286.577 71.2101C285.891 70.2711 283.358 69.1921 282.905 69.6451C282.63 69.9201 282.14 69.9131 281.166 69.6221C277.41 68.5001 266.577 66.9961 265.968 67.5121C265.725 67.7181 265.446 67.6971 265.203 67.4531C264.925 67.1751 264.759 67.1751 264.594 67.4531C264.469 67.6641 263.916 67.8361 263.359 67.8361C262.629 67.8361 262.283 68.0521 262.107 68.6191C261.974 69.0481 260.863 70.5491 259.65 71.9401C257.384 74.5401 254.454 78.5131 252.085 82.2001C251.325 83.3831 250.495 84.4821 250.247 84.6351C249.994 84.7911 249.795 85.2961 249.795 85.7831C249.795 86.3051 249.559 86.7391 249.204 86.8701C248.357 87.1811 248.081 87.6611 248.049 88.8791C248.034 89.4531 247.779 90.5481 247.483 91.3141C247.181 92.0931 246.73 93.4701 246.457 94.4441C246.184 95.4181 245.817 96.2361 245.622 96.3051C245.428 96.3731 245.274 97.1401 245.274 98.0441C245.274 98.9451 245.112 100.739 244.909 102.096C244.708 103.435 244.382 106.409 244.185 108.704C243.739 113.886 243.678 114.422 243.219 117.225C242.872 119.34 242.943 125.607 243.393 132.528C243.78 138.483 244.872 143.866 246.92 149.917C249.275 156.873 253.969 162.511 259.186 164.648C260.056 165.004 261.029 165.435 261.377 165.618C262.378 166.144 268.298 166.538 270.559 166.23C273.793 165.789 276.953 164.964 277.584 164.396C277.909 164.103 278.488 163.874 278.871 163.886C279.601 163.91 282.995 162.675 283.636 162.152C283.862 161.968 284.732 161.612 285.531 161.377C286.435 161.111 287.232 160.591 287.583 160.038C287.905 159.53 288.592 158.722 289.148 158.195C289.704 157.668 290.139 157.172 290.139 157.065C290.139 156.959 290.384 156.596 290.69 156.248C292.343 154.37 293.965 151.924 293.965 151.309C293.965 150.892 294.313 150.474 294.834 150.266C295.321 150.071 295.703 149.712 295.703 149.449C295.703 149.191 296.555 147.901 297.598 146.58C298.642 145.258 299.947 143.321 300.502 142.267C301.061 141.208 302.189 139.346 303.031 138.094C304.949 135.242 305.44 134.391 305.44 133.92C305.44 133.709 305.846 132.999 306.344 132.338C306.842 131.677 307.162 130.904 307.057 130.616C306.939 130.295 307.126 129.954 307.544 129.729C307.932 129.52 308.222 128.999 308.222 128.512C308.222 128.06 308.565 127.375 308.952 127.053C310.065 126.128 312.424 122.349 312.22 121.817C312.128 121.576 312.29 121.272 312.569 121.167C313.173 120.937 315.525 117.47 315.525 116.809C315.525 116.542 315.997 115.574 316.568 114.67C317.139 113.766 317.611 112.837 317.611 112.618C317.611 112.398 317.92 111.905 318.298 111.522C319.432 110.374 320.754 108.2 320.982 107.105C321.098 106.548 321.333 106.008 321.505 105.899C322.025 105.571 321.818 104.773 321.157 104.56C320.812 104.448 319.036 104.83 317.192 105.411C312.979 106.74 312.483 107.279 309.064 114.235C304.807 122.895 298.254 134.137 294.145 139.832C292.966 141.467 291.292 143.954 290.4 145.397C288.143 149.049 286.536 151.145 283.52 154.37C281.308 156.735 280.636 157.236 279.04 157.709C276.188 158.555 274.321 158.451 272.919 157.369C271.962 156.63 271.561 155.9 270.817 153.535C269.624 149.745 269.387 146.718 269.458 136.18C269.517 127.451 269.958 122.349 270.798 120.669C271.054 120.156 271.182 119.313 271.094 118.721C271 118.095 271.132 117.483 271.424 117.191C272.191 116.424 272.441 115.522 272.6 112.948C272.679 111.661 272.992 109.997 273.285 109.296C273.576 108.601 273.784 107.506 273.737 106.914C273.69 106.323 273.818 105.602 274.015 105.349C274.219 105.086 274.641 104.167 274.971 103.262C275.302 102.358 275.853 101.384 276.223 101.053C276.58 100.734 276.988 99.9581 277.11 99.3661C277.232 98.7751 277.536 98.0301 277.771 97.7491C278.017 97.4531 278.356 96.7751 278.554 96.1841C278.741 95.6221 279.327 94.5151 279.823 93.7841C280.319 93.0541 280.745 92.2831 280.745 92.1151C280.745 91.7321 283.771 88.7071 284.153 88.7071C284.325 88.7071 284.748 88.3941 285.092 88.0111C285.453 87.6101 286.153 87.3161 286.744 87.3161C287.301 87.3161 288.216 87.0521 288.744 86.7391C290.1 85.9361 290.927 86.3131 290.465 87.5241C289.533 89.9721 286.241 105.122 285.975 108.183C285.719 111.139 285.575 117.074 285.743 117.747C286.067 119.043 287.63 120.675 289.403 121.57C291.385 122.57 294.529 123.529 295.107 123.31C295.36 123.214 295.835 122.564 296.185 121.834C296.535 121.104 296.956 120.247 297.141 119.886C297.321 119.536 297.567 118.425 297.68 117.451C297.793 116.477 298.016 115.493 298.167 115.295C298.324 115.089 298.445 114.634 298.445 114.252C298.445 113.881 298.863 112.391 299.367 110.965C299.871 109.539 300.352 107.884 300.428 107.313C300.507 106.722 300.793 106.104 301.089 105.888C301.608 105.509 302.184 104.218 302.441 102.861C302.633 101.846 303.423 100.148 304.9 97.5751C305.556 96.4331 306.83 93.9931 307.715 92.1841C308.6 90.3761 309.631 88.2741 309.993 87.5411C310.353 86.8111 310.654 86.0441 310.654 85.8541C310.654 85.6661 311.135 84.7931 311.697 83.9591C312.26 83.1241 312.74 82.1071 312.74 81.7511C312.74 81.4031 313.045 80.9251 313.383 80.7421C313.744 80.5471 314.118 79.9591 314.235 79.4031C314.35 78.8591 315.079 77.6121 315.852 76.6381C316.625 75.6641 317.261 74.6291 317.261 74.3421C317.261 74.0541 317.713 73.6351 318.27 73.4071C320.183 72.6231 319.905 70.4111 317.713 68.9841C317.222 68.6641 316.079 67.6971 315.209 66.8661C313.024 64.7781 311.07 63.9481 308.566 64.0421C307.488 64.0831 306.441 64.0291 306.271 63.9251C305.861 63.6741 301.993 62.9561 301.298 63.0021C300.996 63.0201 300.432 63.1131 300.05 63.2061Z" fill="#7E4D28"/>
<path d="M30.1839 35.8796C28.4832 35.6795 29.7219 34.9699 24.9759 32.1983C23.8003 31.7047 23.0897 30.6591 19.2344 29.7874C16.5479 30.1537 12.8188 30.9477 9.67622 38.4765C5.45896 48.58 7.30249 48.6127 7.30253 52.1754C7.30212 57.1545 7.36142 57.4752 8.90343 60.844C11.0162 65.4552 13.0001 67.2238 18.1641 69.0963C18.68 69.2831 19.5665 69.3191 20.1337 69.1747C20.6783 69.0357 21.3308 69.1184 21.5204 69.3505C21.7347 69.6123 22.0405 69.6839 22.285 69.5281C22.5085 69.3858 23.9787 69.8089 25.5433 70.4659C28.2562 71.6051 28.5048 71.6198 30.6851 70.7824C31.9341 70.3011 33.1924 69.9703 33.4532 70.0529C33.7198 70.1379 34.1949 70.2851 34.5308 70.3858C34.8667 70.4865 35.217 70.3601 35.3274 70.0971C35.4325 69.8469 35.9348 69.5512 36.4062 69.4622C38.3928 69.086 43.9712 59.2432 46.0672 52.4138C46.6925 50.378 47.4185 47.9737 46.7922 46.5899C46.4717 45.8815 46.2349 45.4324 45.8903 44.7168C45.4393 43.7802 46.0157 43.473 44.5374 41.9071C43.3688 40.6692 44.0865 40.9706 42.9178 39.7327C42.2826 38.7964 41.4435 38.3664 41.0315 38.1934C40.6181 38.0198 41.7215 38.5607 38.8785 37.2893C35.296 35.7683 38.9159 37.3155 35.2902 35.7822C32.4259 34.3479 32.6578 36.1727 30.1839 35.8796Z" fill="#7E4D28"/>
<path d="M53.7498 16.8347C53.5291 16.5284 53.3374 16.2046 53.3234 16.1151C53.2852 15.8707 53.163 15.9115 52.4974 16.3897C51.481 17.1201 51.3441 17.1441 46.8439 17.3854C42.8861 17.5976 42.845 17.6019 41.6987 17.9285C40.0965 18.385 40.0032 18.4244 39.1776 18.9944C38.554 19.9675 38.554 19.9675 38.0205 21.2379C38.1908 20.9843 37.9179 21.3907 38.0205 21.2379C38.0205 21.2379 37.4204 21.637 37.2372 22.0086C37.1889 22.0689 40.3112 24.1818 40.4023 24.2089C40.4856 24.2338 38.8195 22.3692 38.8703 22.6944C38.9584 23.2582 38.9954 23.3017 39.6302 23.5941C39.6131 23.5424 39.9944 23.7615 39.6302 23.5941C39.6475 23.647 40.3785 24.1428 40.4023 24.2089C40.4262 24.2751 40.5194 24.2714 40.6287 24.3174C41.0138 24.4418 40.9062 24.3702 41.0138 24.4418C41.4678 24.7437 45.5699 24.7859 48.1186 24.5147C48.8785 24.4339 50.6898 23.9175 51.0301 23.6846C51.2044 23.5654 51.4223 23.4622 51.5095 23.4576C51.7576 23.4446 52.595 22.7838 52.5697 22.6215C52.5571 22.5412 52.7007 22.3256 52.8955 22.1322C53.0903 21.9388 53.2333 21.7189 53.2199 21.6333C53.2065 21.5474 53.2592 21.4348 53.3405 21.3764C53.6182 21.1769 54.1975 18.9415 54.1737 18.1623C54.1552 17.5458 54.0701 17.2805 53.7498 16.8347Z" fill="#7E4D28"/>
<path d="M39.7089 7.28521C39.5386 7.52817 39.528 7.55369 39.5201 7.74495C39.5157 7.85385 39.4859 8.13073 39.4556 8.345L39.3992 8.74289L38.0848 17.2273C36.4165 21.192 33.3783 26.9387 31.8348 30.5956C28.8548 37.6561 27.5053 36.9692 25.2389 42.924C24.8143 44.0398 24.2586 45.4737 24.0039 46.1101C23.5302 47.2946 23.0835 48.5663 22.3177 50.9105C22.0698 51.6691 21.7251 52.715 21.5516 53.235C20.8228 55.4186 20.2338 57.533 19.9089 59.1318C19.4248 61.5141 19.5077 62.7965 20.162 63.0535C20.5933 63.223 20.6606 63.1943 21.3615 62.5495C21.9131 62.042 22.6079 61.1474 23.9932 59.1605C24.6394 58.2339 24.9168 57.7251 26.4199 54.7103C26.8562 53.835 27.1132 53.2699 27.3706 52.6199C27.6885 51.8173 27.7423 51.6294 27.9144 50.7215C28.0212 50.1587 28.075 49.7573 28.0366 49.8122C27.9991 49.8656 27.8556 50.1773 27.7226 50.4941C27.3677 51.3393 26.9061 52.2486 26.1065 53.6774C23.806 57.7885 22.3237 59.8839 22.0476 59.4149C21.7915 58.98 22.1971 56.8975 22.9072 55.0004C23.0341 54.6615 23.1546 54.3114 23.1786 54.2125C23.2326 53.9899 23.5065 53.2526 24.2181 51.4142C24.7911 49.9337 25.0739 49.2448 25.8647 47.4011C26.1211 46.8034 26.374 46.2096 26.4313 46.0709C26.5295 45.8338 27.1865 44.3298 27.9509 42.5926C28.1334 42.1779 28.5139 41.3391 28.8101 40.6987C29.1061 40.0588 29.4983 39.1944 29.6956 38.7473C29.8925 38.3008 30.1285 37.8266 30.2281 37.6769C30.3342 37.5177 30.6122 36.9461 30.913 36.2691C31.1918 35.6415 31.4618 35.0586 31.5137 34.9727C31.6796 34.6979 32.2332 33.5501 32.8504 32.2013C33.1815 31.4776 33.583 30.6318 33.7426 30.3219C34.199 29.4355 35.3822 26.9404 35.4867 26.6435C35.5166 26.5588 35.6192 26.3461 35.7146 26.1708C36.2389 25.2077 37.4029 22.5668 38.1641 20.6129C38.6038 19.4845 38.7752 19.0462 39.2908 17.7337C39.7942 16.4522 40.1034 15.3699 40.4459 13.6905C40.7773 12.0657 40.8818 11.2695 40.844 10.6564C40.8324 10.4693 40.8199 10.1104 40.8157 9.84673C40.8114 9.58307 40.7848 9.36324 40.7556 9.351C40.7266 9.3388 40.699 9.12593 40.694 8.8742C40.689 8.62246 40.6527 8.29212 40.6129 8.13468C40.5728 7.97652 40.5318 7.75862 40.5204 7.64492C40.5089 7.53179 40.3638 7.34849 40.1947 7.23404C39.9392 7.06129 39.8601 7.06966 39.7089 7.28521Z" fill="#7E4D28"/>
</svg>
