<svg width="587" height="194" viewBox="0 0 587 194" fill="none" xmlns="http://www.w3.org/2000/svg">
<path d="M154.502 91.1598C154.399 91.2628 153.52 91.4438 152.519 91.5678C151.518 91.6918 150.393 91.9628 149.98 92.1798C149.387 92.4908 149.172 92.4508 148.907 91.9758C148.443 91.1468 143.79 91.1588 141.974 91.9928C141.07 92.4078 139.446 94.0888 136.939 97.2018C133.447 101.539 130.166 106.076 130.104 106.654C130.088 106.797 129.518 107.877 128.831 109.063C124.645 116.291 120.685 125.164 119.022 131.043C114.671 146.426 113.333 156.337 114.296 166.034C114.543 168.517 116.317 171.462 118.4 172.846C119.438 173.536 120.661 174.167 121.18 174.281C121.699 174.395 122.433 174.61 122.848 174.769C125.517 175.792 126.348 176.015 127.667 176.062C128.482 176.091 129.517 176.241 129.965 176.394C130.41 176.546 131.109 176.495 131.503 176.283C132.093 175.965 132.335 176.061 132.819 176.802C133.279 177.507 133.69 177.694 134.654 177.636C135.321 177.596 136.17 177.33 136.489 177.061C136.807 176.793 137.434 176.672 137.842 176.802C138.307 176.95 139.306 176.688 140.418 176.128C142.457 175.1 143.463 174.212 144.336 172.67C145.26 171.039 145.79 170.228 146.659 169.112C147.121 168.519 147.497 167.838 147.497 167.592C147.497 166.946 149.461 165.146 150.166 165.146C151.05 165.146 152.316 163.181 152.316 161.81C152.316 161.07 152.844 159.883 153.799 158.474C154.603 157.288 155.282 156.185 155.282 156.065C155.282 155.75 157.536 152.914 159.79 150.394C160.751 149.319 161.764 148.043 162.027 147.577C162.925 145.983 164.463 143.835 165.068 143.329C165.402 143.05 165.661 142.662 165.661 142.444C165.661 142.233 166.119 141.462 166.662 140.758C167.205 140.054 167.682 139.19 167.705 138.868C167.757 138.127 170.002 134.754 170.443 134.754C170.63 134.754 171.152 134.142 171.629 133.364C172.106 132.586 172.612 131.919 172.778 131.849C173.163 131.687 173.388 131.455 176.758 127.748C178.274 126.08 179.685 124.746 179.932 124.746C180.177 124.746 180.677 124.413 181.044 124.005C181.411 123.597 181.811 123.364 181.934 123.486C182.056 123.608 182.165 132.326 182.175 142.853C182.187 155.53 182.338 162.937 182.62 164.778C182.854 166.307 183.217 168.892 183.425 170.523C183.799 173.451 185.119 178.334 185.72 179.011C185.908 179.223 186.049 179.604 186.049 179.901C186.049 180.568 188.114 184.942 188.744 185.609C188.992 185.871 189.914 187.054 190.766 188.204C192.608 190.687 194.223 191.992 196.39 192.747C198.28 193.405 202.792 193.721 204.285 193.299C205.701 192.899 209.088 189.205 211.096 185.869C211.297 185.535 211.667 185.003 211.883 184.738C212.111 184.458 212.731 183.422 213.291 182.384C213.839 181.37 215.181 179.675 216.256 178.64C217.331 177.606 218.338 176.364 218.48 175.897C218.622 175.432 219.481 174.345 220.37 173.506C221.26 172.667 222.001 171.833 222.001 171.671C222.001 171.51 223.226 170.133 224.688 168.65C226.15 167.167 228.516 164.735 229.877 163.312C231.261 161.866 232.454 160.699 232.546 160.699C232.639 160.699 233.306 160.152 234.047 159.469C235.69 157.955 235.641 156.968 233.899 156.466C232.829 156.157 232.342 156.259 230.674 157.14C229.599 157.708 227.893 159.051 226.907 160.105C223.025 164.257 204.923 182.197 204.616 182.197C204.24 182.197 203.861 180.9 203.848 179.565C203.842 179.024 203.602 177.934 203.301 177.082C202.947 176.081 202.89 175.48 203.134 175.321C203.349 175.181 203.411 174.839 203.282 174.506C203.159 174.188 203.324 173.246 203.653 172.393C204.119 171.183 204.167 170.503 203.875 169.205C203.642 168.167 203.635 167.425 203.856 167.203C204.054 167.005 204.208 166.388 204.208 165.795C204.208 165.2 204.451 164.164 204.764 163.423C205.077 162.682 205.228 161.961 205.11 161.773C204.62 160.994 204.652 155.212 205.159 152.951C205.466 151.58 205.558 150.407 205.376 150.171C204.89 149.541 204.621 148.115 204.949 147.91C205.114 147.807 205.36 146.576 205.505 145.13C205.65 143.685 205.912 142.445 206.098 142.331C206.285 142.217 206.432 141.719 206.432 141.201C206.432 140.686 206.77 139.533 207.192 138.606C207.614 137.679 207.845 136.773 207.711 136.567C207.576 136.359 207.641 135.993 207.859 135.733C208.073 135.478 208.497 134.269 208.801 133.046C209.381 130.711 210.045 128.675 210.565 127.634C210.865 127.034 211.579 124.261 211.834 122.704C211.9 122.3 212.036 121.592 212.133 121.147C212.376 120.035 211.183 116.93 210.324 116.437C209.937 116.214 208.953 115.39 208.137 114.605C206.938 113.451 205.839 112.911 202.392 111.783C192.755 108.63 189.951 108.063 187.232 108.718C186.268 108.95 184.877 109.245 184.118 109.379C183.377 109.509 182.474 109.926 182.154 110.287C181.649 110.855 181.633 111.084 182.043 111.825C182.31 112.307 182.765 112.887 183.062 113.122C183.518 113.483 183.433 113.712 182.506 114.623C181.894 115.225 180.597 116.247 179.559 116.945C173.674 120.906 162.118 132.044 149.702 145.721C147.414 148.241 145.682 149.752 145.409 149.465C145.292 149.341 145.707 148.242 146.347 146.982C146.987 145.722 147.496 144.442 147.496 144.091C147.496 143.738 147.726 143.053 148.019 142.534C149.128 140.57 150.09 138.313 150.09 137.678C150.09 137.307 150.238 136.92 150.424 136.807C150.605 136.697 150.868 136.103 150.998 135.51C151.129 134.917 151.485 134.213 151.776 133.972C152.075 133.725 152.585 132.934 152.925 132.193C153.265 131.452 153.817 130.529 154.167 130.117C154.509 129.715 154.899 128.467 155.02 127.393C155.157 126.17 155.576 124.963 156.113 124.242C156.583 123.612 157.095 122.776 157.225 122.426C157.363 122.055 157.617 121.777 157.818 121.777C158.014 121.777 158.59 120.887 159.115 119.775C159.64 118.663 160.381 117.666 160.783 117.532C161.172 117.402 161.968 116.624 162.507 115.845C163.049 115.062 164.323 113.873 165.287 113.25C166.251 112.628 167.27 111.855 167.511 111.564C167.765 111.257 168.289 111.027 168.734 111.027C169.172 111.027 170.087 110.631 170.828 110.119C171.552 109.619 173.145 109.027 174.368 108.803C175.591 108.579 177.426 108.237 178.445 108.043C179.483 107.846 181.032 107.591 181.966 107.464C184.042 107.182 184.931 106.427 184.931 104.948C184.931 104.095 184.639 103.608 183.8 103.058C183.17 102.645 182.581 101.972 182.468 101.538C181.822 99.0358 176.59 96.5678 166.026 93.7798C163.876 93.2128 160.823 92.3638 159.206 91.8838C156.356 91.0368 154.856 90.8058 154.502 91.1598Z" fill="#7E4D28"/>
<path d="M117.648 56.108C117.337 56.189 116.607 56.779 116.067 57.386C113.702 60.047 112.612 60.948 110.418 62.057C107.295 63.636 103.507 66.221 100.701 68.687C98.648 70.492 94.18 75.489 91.569 78.902C90.772 79.943 83.668 94.037 83.668 94.576C83.668 94.701 83.388 95.328 83.061 95.935C82.726 96.558 81.761 99.405 80.905 102.297C78.398 110.77 78.086 111.707 77.826 111.548C77.704 111.474 77.734 111.146 77.889 110.857C78.183 110.308 77.964 107.676 77.624 107.676C77.529 107.676 77.483 106.621 77.523 105.348C77.568 103.902 77.431 102.467 77.161 101.56C76.921 100.75 76.79 99.996 76.868 99.868C77.075 99.528 76.493 95.357 75.964 93.39C75.715 92.465 75.591 91.641 75.686 91.554C75.779 91.468 75.714 91.221 75.545 91.019C75.254 90.672 74.964 88.677 74.964 87.028C74.964 86.706 74.727 86.059 74.429 85.568C74.135 85.083 73.797 84.165 73.679 83.529C73.367 81.852 71.868 78.786 70.681 77.398C70.112 76.733 69.346 75.791 68.987 75.316C68.069 74.101 62.962 71.431 60.244 70.744C59.376 70.525 58.193 70.209 57.641 70.05C55.735 69.499 50.845 69.055 48.676 69.236C47.49 69.335 45.786 69.64 44.917 69.908C44.032 70.182 42.589 70.554 41.663 70.747C40.738 70.94 40 71.177 40 71.282C40 71.384 40.463 71.743 41.012 72.068C42.42 72.9 44.777 76.184 46.019 79.047C47.031 81.38 48.33 88.822 48.518 93.362C48.557 94.313 48.745 96.861 48.934 99.001C49.709 107.793 49.834 109.374 49.834 110.395C49.834 111.262 49.93 111.449 50.34 111.378C50.745 111.309 50.863 111.537 50.933 112.52C51 113.474 50.916 113.749 50.557 113.749C50.008 113.749 50.008 113.749 50.601 115.224C50.973 116.149 51.011 116.629 50.774 117.407C50.501 118.303 50.523 118.387 50.991 118.231C51.416 118.09 51.536 118.26 51.642 119.156C51.714 119.763 51.643 120.417 51.483 120.616C51.271 120.881 51.309 120.933 51.628 120.812C52.351 120.536 52.504 121.218 51.802 121.585C51.426 121.781 51.105 121.957 51.065 121.99C51.026 122.022 51.196 122.626 51.441 123.32C51.714 124.094 51.913 125.691 51.948 127.398C52.007 130.174 52.196 130.856 52.552 129.567C52.719 128.96 52.746 128.954 53.129 129.451C53.798 130.319 54.619 135.034 54.206 135.64C54.105 135.789 53.812 135.981 53.523 136.088C53.234 136.196 53.017 136.4 53.017 136.565C53.017 136.941 53.511 136.961 53.74 136.594C54.089 136.035 54.463 136.334 54.463 137.172C54.463 137.664 54.338 138.04 54.174 138.04C54.02 138.04 53.885 137.838 53.885 137.606C53.885 137.374 53.743 137.172 53.581 137.172C53.397 137.172 53.352 137.418 53.465 137.794C53.587 138.199 53.542 138.346 53.335 138.214C52.979 137.989 52.972 138.589 53.314 139.919C53.478 140.555 53.546 140.625 53.568 140.179C53.606 139.427 54.374 138.695 54.721 139.08C54.85 139.224 55.039 139.76 55.143 140.28C55.317 141.148 55.275 141.22 54.608 141.22C54.203 141.22 53.885 141.385 53.885 141.596C53.885 142.232 54.238 142.406 54.724 142.009C55.093 141.707 55.122 141.741 54.918 142.233C54.606 142.985 54.733 147.131 55.071 147.256C55.212 147.308 55.331 147.67 55.331 148.046C55.331 148.422 55.47 148.74 55.635 148.74C55.829 148.74 55.913 149.781 55.866 151.632C55.807 153.974 55.882 154.628 56.256 155.073C56.5 155.362 56.637 155.705 56.546 155.796C56.205 156.138 56.314 159.663 56.661 159.529C57.057 159.376 57.364 160.423 57.543 162.534C57.648 163.777 57.588 164.067 57.225 164.067C56.965 164.067 56.777 164.249 56.777 164.501C56.777 164.771 57.023 164.907 57.428 164.863C57.992 164.8 58.103 164.964 58.264 166.092C58.478 167.596 60.445 173.625 60.859 174.045C61.008 174.196 61.115 174.493 61.115 174.753C61.115 174.998 61.515 176.04 61.997 177.052C62.658 178.44 62.792 178.958 62.532 179.123C62.037 179.437 61.693 179.192 61.693 178.527C61.693 177.717 61.113 177.498 61.082 178.296C61.068 178.66 61.01 179.583 60.955 180.335C60.868 181.521 60.939 181.754 61.475 182.041C61.82 182.225 62.748 182.986 63.557 183.747C64.453 184.59 65.464 185.238 66.174 185.425C68.141 185.943 73.821 185.455 74.43 184.715C74.618 184.486 75.052 184.31 75.428 184.31C75.804 184.31 76.225 184.153 76.397 183.948C76.563 183.75 76.786 182.083 76.889 180.261C76.992 178.439 77.26 176.53 77.482 176.039C77.736 175.478 77.891 174.073 77.897 172.28C77.911 168.376 78.044 166.975 78.436 166.583C78.607 166.412 78.754 165.918 78.754 165.513C78.754 165.108 78.894 164.621 79.058 164.457C79.225 164.29 79.413 162.563 79.476 160.625C79.614 156.374 79.829 154.796 80.481 153.251C80.838 152.406 80.965 151.4 80.924 149.752C80.884 148.132 81.031 146.918 81.416 145.703C81.719 144.746 82.141 142.088 82.356 139.774C82.571 137.46 82.883 135.069 83.05 134.438C83.219 133.802 83.283 133.187 83.195 133.05C83.109 132.917 83.255 132.558 83.513 132.269C83.776 131.974 84.042 131.17 84.106 130.476C84.17 129.784 84.319 128.437 84.439 127.483C84.558 126.529 84.623 125.631 84.584 125.488C84.543 125.342 84.594 125.025 84.7 124.765C84.805 124.506 84.932 123.984 84.989 123.579C85.046 123.174 85.229 122.22 85.406 121.41C85.768 119.752 86.145 117.246 86.408 114.759C86.619 112.764 86.744 112.127 87.322 110.132C88.118 107.385 88.959 104.938 89.2 104.666C89.343 104.505 89.457 104.102 89.457 103.755C89.457 103.412 89.716 102.381 90.035 101.456C90.354 100.531 90.613 99.539 90.613 99.244C90.613 98.948 91.13 97.61 91.77 96.251C92.41 94.892 92.927 93.534 92.927 93.214C92.927 92.659 94.639 89.194 95.356 88.298C96.05 87.43 96.975 85.464 96.975 84.857C96.975 84.51 97.099 84.25 97.264 84.25C97.422 84.25 97.553 84.033 97.553 83.773C97.553 83.513 98.013 82.79 98.565 82.182C99.117 81.575 99.577 80.898 99.577 80.693C99.577 80.489 99.967 80.026 100.43 79.681C100.904 79.327 101.944 78.235 102.771 77.223C105.076 74.4 107.819 71.706 111.29 68.86C111.926 68.338 112.492 67.813 112.548 67.694C112.609 67.564 112.753 67.477 112.909 67.477C113.062 67.477 113.098 68.822 112.996 70.73C112.9 72.523 112.959 75.262 113.126 76.832C113.314 78.596 113.325 79.945 113.155 80.375C112.949 80.896 112.985 81.069 113.3 81.069C113.574 81.069 113.785 81.546 113.907 82.443C114.01 83.195 114.344 84.38 114.644 85.06C114.951 85.754 115.238 86.661 115.295 87.113C115.436 88.241 115.685 88.564 116.293 88.405C116.582 88.33 116.981 88.462 117.189 88.703C117.495 89.056 117.452 89.296 116.958 89.99C116.629 90.453 116.351 90.909 116.351 90.988C116.351 91.277 117.483 91.384 117.576 91.104C117.635 90.926 117.84 90.888 118.043 91.017C118.233 91.139 118.322 91.509 118.23 91.798C117.98 92.585 119.561 93.343 120.92 93.087C121.73 92.935 121.9 92.975 121.773 93.287C121.682 93.51 121.874 93.845 122.221 94.068C122.655 94.347 122.861 94.363 122.944 94.126C123.01 93.936 123.233 93.793 123.465 93.793C123.696 93.793 123.87 93.65 123.87 93.46C123.87 93.262 124.087 93.321 124.405 93.605C124.694 93.863 125.166 94.082 125.432 94.082C125.692 94.082 126.001 94.286 126.088 94.516C126.264 94.979 127.788 95.114 128.049 94.69C128.138 94.544 128.642 94.528 129.192 94.652C130.32 94.907 130.656 94.743 130.185 94.17C129.822 93.728 129.8 93.746 131.39 93.184C132.2 92.898 132.691 92.549 132.691 92.261C132.691 92.001 132.786 91.71 132.908 91.596C133.03 91.482 133.125 91.191 133.125 90.931C133.125 90.671 133.251 90.279 133.414 90.035C133.671 89.649 133.738 89.659 134.021 90.122C134.325 90.62 134.367 90.614 134.99 89.977C135.576 89.378 135.641 89.051 135.641 86.709C135.641 85.176 135.51 84.023 135.323 83.904C135.12 83.775 135.251 83.524 135.684 83.21C136.291 82.771 136.315 82.691 135.901 82.458C135.479 82.221 135.489 82.125 136.017 81.374C136.434 80.78 136.595 80.102 136.595 78.945C136.595 78.048 136.723 77.008 136.884 76.588C137.046 76.168 137.199 75.128 137.231 74.231C137.263 73.335 137.391 72.568 137.52 72.496C137.649 72.424 137.627 72.134 137.472 71.845C137.127 71.201 137.538 68.317 138.201 66.726C138.638 65.679 138.629 65.627 137.826 64.326C136.878 62.79 134.916 61.211 132.256 59.844C127.687 57.496 126.805 57.088 125.315 56.633C123.75 56.158 118.773 55.816 117.648 56.108ZM54.314 75.866C54.413 76.031 54.357 76.155 54.184 76.155C54.01 76.155 53.88 76.031 53.88 75.866C53.88 75.692 53.932 75.577 54.01 75.577C54.088 75.577 54.21 75.692 54.314 75.866ZM55.616 145.562C55.616 145.727 55.486 145.851 55.312 145.851C55.138 145.851 55.083 145.727 55.182 145.562C55.286 145.388 55.408 145.273 55.486 145.273C55.564 145.273 55.616 145.388 55.616 145.562ZM58.652 164.012C58.42 164.244 57.943 163.723 58.124 163.434C58.235 163.256 58.394 163.289 58.536 163.521C58.661 163.723 58.714 163.95 58.652 164.012Z" fill="#7E4D28"/>
<path d="M124.299 94.663C124.403 94.837 124.525 94.952 124.603 94.952C124.681 94.952 124.733 94.836 124.733 94.663C124.733 94.498 124.603 94.374 124.429 94.374C124.256 94.374 124.2 94.498 124.299 94.663Z" fill="#7E4D28"/>
<path d="M52.434 139.503C52.434 139.676 52.558 139.732 52.723 139.633C52.896 139.529 53.012 139.407 53.012 139.329C53.012 139.251 52.896 139.199 52.723 139.199C52.558 139.199 52.434 139.329 52.434 139.503Z" fill="#7E4D28"/>
<path d="M53.013 141.527C53.013 141.7 53.137 141.756 53.302 141.657C53.475 141.553 53.591 141.431 53.591 141.353C53.591 141.275 53.475 141.223 53.302 141.223C53.137 141.224 53.013 141.354 53.013 141.527Z" fill="#7E4D28"/>
<path d="M53.49 145.113C53.402 145.344 53.454 145.61 53.606 145.706C53.771 145.81 53.881 145.827 53.881 145.749C53.881 145.676 53.957 145.416 54.055 145.156C54.153 144.896 54.102 144.693 53.939 144.693C53.779 144.694 53.578 144.882 53.49 145.113Z" fill="#7E4D28"/>
<path d="M53.88 151.635C53.88 151.803 54.068 151.924 54.328 151.924C54.588 151.924 54.704 151.803 54.603 151.635C54.499 151.461 54.32 151.346 54.155 151.346C53.99 151.345 53.88 151.461 53.88 151.635Z" fill="#7E4D28"/>
<path d="M56.352 162.913C56.257 163.069 56.31 163.243 56.483 163.347C56.637 163.44 56.772 163.318 56.772 163.087C56.772 162.566 56.604 162.497 56.352 162.913Z" fill="#7E4D28"/>
<path d="M60.387 176.794C60.288 176.959 60.344 177.083 60.517 177.083C60.691 177.083 60.821 176.959 60.821 176.794C60.821 176.62 60.769 176.505 60.691 176.505C60.613 176.505 60.491 176.621 60.387 176.794Z" fill="#7E4D28"/>
<path d="M5.38122 81.0105C4.86722 81.5245 4.86822 81.5735 5.41322 81.8915C5.72422 82.0725 6.37422 82.5456 6.82322 82.9166L7.65622 83.6055L7.60822 97.4945C7.58222 105.12 7.51122 117.164 7.45122 124.2C7.33622 137.785 7.34422 137.902 9.10623 149.19C9.43622 151.305 9.78522 154.03 9.88022 155.245C10.0582 157.506 10.7152 159.891 12.3592 164.248C12.8912 165.658 13.6022 167.604 13.9392 168.573C15.3542 172.642 17.6032 176.502 20.2102 179.338C24.0942 183.564 28.7692 185.603 34.5042 185.574C38.2852 185.555 38.7012 185.462 41.9372 183.927C44.4842 182.719 46.8852 180.78 51.0312 176.582C52.9652 174.624 53.4452 173.602 55.2292 167.643C55.7472 165.913 55.8952 164.813 55.7782 163.574C55.6342 162.044 55.4452 161.7 53.8722 160.098C52.8972 159.105 52.0342 158.412 51.9182 158.528C51.8052 158.641 51.7102 159.249 51.7102 159.858C51.7102 161.483 51.1102 163.286 49.6082 166.17C45.2882 174.468 40.7552 178.91 37.1962 178.333C33.8952 177.798 30.3672 174.116 29.7162 170.528C29.6002 169.887 29.4012 169.232 29.2692 169.054C28.9722 168.653 28.7032 167.26 28.2492 163.767C27.8832 160.954 27.8342 159.634 27.9592 156.078C28.0002 154.925 28.0272 153.781 28.0202 153.515C28.0092 153.06 28.2012 150.151 28.4642 146.787C28.5272 145.984 28.7402 144.352 28.9452 143.102C29.1502 141.853 29.3702 140.171 29.4422 139.305C29.5132 138.44 29.7902 137.503 30.0672 137.19C30.3622 136.857 30.6482 135.732 30.7722 134.419C30.8872 133.202 31.0772 132.064 31.1962 131.888C31.5762 131.325 32.1152 129.069 32.4972 126.441C32.7022 125.031 33.0512 123.373 33.2732 122.757C33.9062 120.995 34.9252 116.105 34.7742 115.548C34.7312 115.389 34.8312 114.971 34.9952 114.619C35.8972 112.685 36.3112 107.57 35.8652 103.854C35.6082 101.708 35.5132 100.874 35.2462 98.3745C34.9852 95.9345 33.8922 93.9535 31.1632 90.9735C28.5232 88.0905 26.7942 86.7175 24.5722 85.7415C23.8942 85.4435 22.6662 84.8655 21.8012 84.4375C20.9362 84.0095 20.0412 83.6685 19.7832 83.6685C19.5262 83.6685 18.6462 83.3395 17.8132 82.9315C16.9802 82.5235 15.6632 82.0085 14.8662 81.7785C14.0652 81.5475 13.0682 81.2196 12.6232 81.0416C12.1792 80.8646 10.5082 80.6646 8.87422 80.5936C6.40622 80.4866 5.83722 80.5545 5.38122 81.0105Z" fill="#7E4D28"/>
<path d="M535.603 63.7377C534.942 64.2067 534.2 64.5897 533.951 64.5897C533.379 64.5897 529.454 68.5197 526.726 71.8237C525.578 73.2147 524.389 74.6457 524.096 74.9887C518.394 81.6787 514.17 90.8477 512.784 99.5427C510.911 111.298 510.632 116.323 511.396 124.549C512.229 133.522 513.665 139.144 516.859 145.938C521.486 155.78 527.764 162.175 536.107 165.543C538.856 166.652 538.959 166.666 544.628 166.666C549.323 166.666 550.746 166.546 552.453 166.005C553.601 165.642 554.853 165.319 555.235 165.289C557.565 165.104 559.548 164.593 560.626 163.901C561.287 163.476 562.368 162.915 562.991 162.673C564.239 162.189 567.69 157.902 568.344 156.024C568.538 155.467 568.898 155.015 569.147 155.015C569.554 155.015 571.408 152.163 571.408 151.537C571.408 151.382 571.946 150.459 572.625 149.45C573.304 148.441 573.842 147.48 573.842 147.276C573.842 147.075 574.248 146.059 574.746 145.015C575.244 143.972 575.697 142.854 575.755 142.528C575.813 142.201 576.487 140.615 577.263 138.981C579.739 133.764 580.103 132.897 580.103 132.199C580.103 131.825 580.424 130.877 580.798 130.147C581.173 129.417 581.494 128.462 581.494 128.078C581.494 127.685 581.884 126.6 582.363 125.661C582.842 124.722 583.139 123.816 583.024 123.644C582.906 123.467 583.046 122.983 583.345 122.531C583.89 121.709 584.728 119.053 584.728 118.149C584.728 117.871 584.841 117.465 584.971 117.28C585.104 117.089 585.489 116.045 585.823 114.967C586.329 113.332 586.362 112.791 586.019 111.75C585.572 110.394 585.365 110.27 584.658 110.94C584.31 111.269 584.166 111.263 584.035 110.915C583.829 110.371 583.163 110.38 582.119 110.943C579.125 112.556 578.643 113.315 576.988 119.019C574.282 128.34 569.806 139.921 566.772 145.451C564.138 150.25 558.014 158.613 556.313 159.731C555.519 160.253 554.331 160.129 549.879 159.062C546.54 158.262 540.106 151.521 540.106 148.824C540.106 148.302 539.88 147.527 539.619 147.155C539.017 146.296 538.003 142.808 538.05 141.764C538.071 141.313 537.976 140.425 537.845 139.834C537.636 138.895 537.706 138.706 538.332 138.509C538.98 138.306 540.935 136.443 543.492 133.591C546.423 130.322 547.963 128.498 548.247 127.957C548.419 127.63 548.923 127.04 549.375 126.635C549.827 126.231 550.192 125.726 550.192 125.505C550.192 125.292 550.435 125.105 550.714 125.105C551.003 125.105 551.375 124.74 551.549 124.288C551.721 123.84 552.349 123.062 552.94 122.567C553.531 122.071 554.018 121.568 554.018 121.454C554.018 121.187 557.878 116.621 558.226 116.477C558.358 116.422 558.906 115.472 559.426 114.394C559.946 113.316 560.478 112.337 560.591 112.247C561.225 111.748 562.017 110.255 562.017 109.559C562.017 109.107 562.153 108.759 562.33 108.759C562.501 108.759 562.809 108.324 563.008 107.803C563.207 107.281 563.61 106.451 563.895 105.977C564.187 105.49 564.738 104.342 565.147 103.369C565.556 102.395 566.023 101.401 566.208 101.108C566.384 100.83 566.628 100.343 566.73 100.065C566.834 99.7797 567.15 99.0217 567.426 98.3957C567.701 97.7697 567.93 96.9557 567.93 96.6047C567.93 96.2567 568.17 95.8737 568.452 95.7697C568.733 95.6667 568.974 95.1607 568.974 94.6737C568.974 94.1847 569.262 93.1787 569.6 92.4827C569.948 91.7677 570.427 90.5007 570.678 89.6307C570.929 88.7607 571.269 87.7957 571.443 87.4567C571.622 87.1087 571.756 86.5877 571.756 86.2397C571.756 85.9097 572.13 85.0747 572.573 84.4137C573.016 83.7547 573.558 82.4317 573.755 81.5267C574.105 79.9267 574.075 79.7997 573.025 78.4837C572.415 77.7187 571.583 77.0177 571.147 76.9017C570.695 76.7807 570.365 76.4287 570.365 76.0667C570.365 75.6287 569.843 75.2637 568.626 74.8497C567.617 74.5067 566.887 74.0537 566.887 73.7717C566.887 73.5037 566.574 72.9717 566.191 72.5897C565.808 72.2067 565.496 71.7847 565.496 71.6507C565.496 71.3977 563.792 69.8067 562.192 68.5647C561.618 68.1197 559.584 67.3327 557.671 66.8157C555.758 66.2987 553.771 65.5867 553.254 65.2327C552.176 64.4937 551.535 64.4307 550.959 65.0067C550.673 65.2927 549.829 65.1487 547.603 64.4327C545.968 63.9067 543.729 63.4217 542.63 63.3547C541.517 63.2867 539.782 63.1557 538.717 63.0587C537.081 62.9107 536.628 63.0097 535.603 63.7377ZM563.367 83.0567C564.138 84.1877 564.163 84.4127 563.935 88.2037C563.649 92.9687 562.616 97.1207 560.727 101.107C558.222 106.393 557.843 107.344 557.843 108.341C557.843 108.967 557.532 109.588 556.973 110.08C556.486 110.508 556.104 111.159 556.104 111.558C556.104 111.941 555.862 112.36 555.582 112.462C555.304 112.564 555.06 112.881 555.06 113.14C555.06 113.418 554.933 113.627 554.764 113.627C554.604 113.627 554.173 114.305 553.825 115.105C553.477 115.905 552.99 116.703 552.764 116.844C552.245 117.168 551.234 119.087 551.234 119.748C551.234 120.021 550.851 120.388 550.364 120.583C549.877 120.778 549.494 121.137 549.494 121.4C549.494 121.657 548.746 122.562 547.842 123.4C546.938 124.238 546.185 125.088 546.179 125.278C546.169 125.614 544.138 127.739 542.677 128.942C542.318 129.238 541.349 130.216 540.556 131.086C539.762 131.956 538.77 132.789 538.382 132.912C537.999 133.033 537.669 133.291 537.669 133.468C537.669 133.666 537.544 133.798 537.356 133.798C536.923 133.798 536.655 130.216 537.051 129.729C537.238 129.499 537.289 128.999 537.165 128.616C537.044 128.245 537.134 127.555 537.356 127.138C537.586 126.707 537.758 125.364 537.739 124.147C537.72 122.93 537.876 121.517 538.087 121C538.296 120.488 538.517 119.191 538.574 118.148C538.631 117.105 538.837 115.603 539.026 114.844C539.216 114.083 539.468 112.705 539.582 111.801C539.696 110.897 540.019 109.921 540.295 109.645C540.57 109.37 540.902 108.619 541.025 107.993C541.148 107.367 541.425 106.608 541.634 106.324C541.842 106.041 542.319 105.246 542.677 104.585C543.036 103.924 543.433 103.288 543.547 103.193C543.93 102.873 545.669 99.0547 545.669 98.5327C545.669 98.2407 546.052 97.6287 546.539 97.1417C547.026 96.6547 547.408 95.9657 547.408 95.5767C547.408 95.1897 547.794 94.4637 548.277 93.9417C548.76 93.4197 549.147 92.7327 549.147 92.3937C549.147 92.0587 549.46 91.7067 549.843 91.6117C550.26 91.5077 550.622 91.0207 550.747 90.3947C550.869 89.7857 551.651 88.6627 552.625 87.6997C553.529 86.8047 554.222 85.8567 554.137 85.6307C553.991 85.2437 557.32 83.3697 558.155 83.3697C558.318 83.3697 558.535 83.1787 558.607 82.9697C558.685 82.7457 559.268 82.5157 559.928 82.4477C560.589 82.3797 561.264 82.1727 561.458 81.9777C561.993 81.4467 562.441 81.7007 563.367 83.0567Z" fill="#7E4D28"/>
<path d="M411.382 0.373088C410.842 0.793088 410.853 0.862077 411.558 1.46208C411.975 1.81608 412.569 2.10307 412.888 2.10307C413.464 2.10307 414.743 3.83308 415.376 5.46708C416.254 7.73508 416.519 11.8431 416.305 19.8851C416.187 24.3061 416.033 28.2541 415.96 28.6961C415.825 29.5171 415.303 37.3471 414.968 43.5941C414.863 45.5481 414.729 47.6891 414.668 48.4001C414.081 55.1921 413.849 81.9251 414.344 85.7261C414.424 86.3411 414.57 88.8021 414.666 91.1731C414.763 93.5441 414.994 96.6561 415.179 98.0611C415.362 99.4591 415.493 101.906 415.467 103.443C415.43 105.59 415.541 106.454 415.932 107.064C416.322 107.673 416.356 107.973 416.076 108.314C415.865 108.57 415.793 108.9 415.906 109.083C416.199 109.555 416.374 110.941 416.687 115.267C416.835 117.318 417.035 119.106 417.132 119.256C417.229 119.406 417.619 122.476 418 126.096C418.88 134.458 419.335 137.318 420.977 144.839C421.712 148.203 422.326 151.571 422.351 152.368C422.399 153.938 422.758 155.537 423.185 156.085C423.334 156.276 423.576 157.302 423.714 158.328C423.976 160.28 425.204 162.557 427.514 165.377C428.887 167.053 430.957 167.796 434.353 167.832C437.012 167.86 438.518 167.228 438.518 166.082C438.518 165.749 438.867 164.865 439.289 164.128C439.952 162.972 440.25 161.693 440.574 158.617C440.665 157.754 441.298 155.509 442.101 153.202C442.569 151.856 442.69 150.964 442.539 149.966C442.413 149.133 442.464 148.506 442.667 148.38C442.846 148.269 443.003 147.835 443.003 147.451C443.003 147.054 443.205 145.945 443.452 144.984C443.699 144.023 443.98 142.727 444.077 142.101C444.176 141.46 444.456 140.572 444.718 140.066C444.975 139.569 445.19 138.576 445.199 137.839C445.208 137.108 445.453 135.644 445.744 134.587C446.035 133.53 446.337 132.232 446.417 131.703C446.499 131.158 446.686 130.464 446.85 130.101C447.011 129.744 447.214 128.467 447.309 127.217C447.529 124.334 447.834 122.503 448.163 122.091C448.302 121.917 448.463 120.938 448.516 119.944C448.63 117.788 448.831 117.893 450.464 120.969C451.387 122.706 452.307 124.91 454.547 130.741C455.359 132.856 459.665 146.549 459.665 147.017C459.665 147.305 459.786 147.562 459.921 147.562C460.185 147.562 460.45 148.203 463.037 155.091C464.745 159.64 467.911 166.115 470.181 169.701C471.621 171.976 472.078 172.969 471.936 173.514C471.811 173.994 471.928 174.351 472.272 174.539C472.566 174.699 472.801 175.084 472.801 175.404C472.801 176.85 481.451 183.295 484.655 184.236C485.099 184.366 486.385 184.921 487.539 185.481C489.39 186.378 489.942 186.49 492.505 186.49C495.036 186.49 495.698 186.361 497.92 185.438C501.124 184.107 504.765 181.094 505.477 179.185C505.907 178.032 507.319 174.868 507.722 174.155C508.628 172.553 510.928 167.817 510.928 167.555C510.928 167.376 511.104 167.058 511.329 166.834C511.554 166.61 511.733 166.335 511.741 166.209C511.757 165.88 512.523 163.518 512.853 162.781C513.011 162.425 513.36 161.371 513.636 160.41C513.912 159.449 514.325 158.381 514.565 158.007C514.805 157.633 515.149 156.693 515.339 155.893C515.894 153.554 517.331 149.452 518.156 147.851C518.387 147.402 518.504 146.937 518.409 146.842C518.313 146.747 518.463 146.169 518.729 145.593C519.006 144.995 519.517 143.527 519.882 142.277C520.248 141.027 520.695 139.609 520.891 139.073C521.091 138.528 521.292 137.765 521.356 137.311C521.418 136.867 521.672 135.709 521.925 134.716C522.505 132.441 522.202 131.721 520.795 132.031C520.25 132.151 519.368 132.491 518.841 132.784C517.495 133.533 515.418 136.055 515.085 137.343C514.931 137.94 514.5 139.65 514.131 141.124C513.762 142.599 512.722 145.93 511.829 148.493C504.675 169.03 504.845 168.629 499.946 176.655C498.362 179.25 497.152 180.338 496.222 180.001C495.517 179.746 494.588 178.845 494.588 178.417C494.588 178.195 494.364 178 494.106 178C493.851 178 493.626 177.85 493.626 177.68C493.626 177.493 493.465 177.356 493.241 177.351C492.353 177.331 489.46 174.028 489.46 173.035C489.46 172.745 489.043 172.168 488.499 171.705C487.762 171.079 487.583 170.709 487.73 170.119C487.866 169.574 487.773 169.294 487.41 169.158C487.122 169.05 486.925 168.805 486.962 168.597C486.997 168.395 486.692 167.54 486.289 166.707C485.886 165.874 485.632 164.975 485.728 164.72C485.825 164.464 485.696 164.09 485.44 163.887C485.182 163.682 484.975 163.134 484.975 162.654C484.975 162.174 484.724 161.433 484.41 160.988C483.754 160.059 483.636 159.49 484.046 159.241C484.205 159.144 484.119 158.649 483.854 158.137C483.589 157.624 483.373 156.921 483.373 156.567C483.373 156.214 483.25 155.854 483.101 155.766C482.949 155.677 482.744 154.997 482.636 154.228C482.532 153.48 482.07 151.905 481.627 150.784C481.184 149.663 480.81 148.095 480.81 147.356C480.81 146.619 480.67 145.906 480.506 145.802C480.337 145.695 480.202 145.225 480.202 144.745C480.202 143.303 479.624 140.026 479.242 139.298C479.043 138.92 478.888 138.225 478.888 137.712C478.888 137.199 478.733 136.644 478.536 136.446C478.344 136.254 478.06 135.533 477.911 134.86C477.76 134.175 477.468 132.986 477.254 132.185C477.04 131.384 476.881 130.473 476.895 130.134C476.926 129.365 475.089 125.415 474.499 124.983C474.252 124.803 474.088 124.367 474.133 124.014C474.251 123.105 473.487 120.65 472.778 119.657C472.435 119.176 472.16 118.642 472.16 118.456C472.16 118.264 471.982 117.927 471.745 117.671C470.931 116.791 470.513 115.749 470.331 114.147C470.225 113.218 469.915 112.198 469.629 111.84C469.351 111.492 468.831 110.687 468.492 110.078C468.153 109.469 467.406 108.517 466.858 107.995C466.313 107.476 465.79 106.886 465.721 106.714C465.426 105.977 461.014 102.389 460.403 102.389C459.314 102.389 459.226 101.188 460.275 100.644C460.756 100.395 461.529 99.8741 461.941 99.5221C462.358 99.1651 463.223 98.5281 463.831 98.1281C464.44 97.7281 465.135 97.0101 465.353 96.5581C465.573 96.1001 466.33 95.2491 467.035 94.6681C467.74 94.0861 468.317 93.4451 468.317 93.2421C468.317 93.0381 468.99 92.2301 469.823 91.4321C471.393 89.9291 472.803 87.9281 472.803 87.2021C472.803 86.9701 473.272 86.2731 473.859 85.6321C475.062 84.3181 476.968 81.4111 476.968 80.8901C476.968 80.7051 477.256 80.2901 477.577 80.0151C478.538 79.1901 480.813 74.9631 480.813 74.0021C480.813 73.7781 480.946 73.5041 481.101 73.4091C481.262 73.3111 481.489 72.6721 481.614 71.9671C481.739 71.2621 482.037 70.5381 482.287 70.3331C482.535 70.1291 482.736 69.6281 482.736 69.2121C482.736 68.7951 482.865 68.3801 483.024 68.2831C483.182 68.1861 483.413 67.5301 483.537 66.8251C483.66 66.1201 483.891 65.4641 484.05 65.3671C484.204 65.2731 484.338 64.8541 484.338 64.4701C484.338 64.0691 484.608 63.1881 484.947 62.4841C485.279 61.7941 485.716 60.4181 485.908 59.4561C486.1 58.4951 486.413 56.9661 486.597 56.0921C486.785 55.1951 487.067 53.8631 487.238 53.0641C487.402 52.2951 487.454 51.1511 487.35 50.5811C487.245 50.0041 487.298 49.3491 487.465 49.1391C487.934 48.5521 487.696 44.1731 487.08 42.0581C486.454 39.9111 485.384 38.5211 483.698 37.6631C482.738 37.1741 482.032 37.0871 479.981 37.2041C478.603 37.2821 476.691 37.5541 475.784 37.8001C472.204 38.7711 467.906 42.1541 464.839 46.4151C462.596 49.5321 461.743 51.0611 460.336 54.4891C459.758 55.8991 459.061 57.5571 458.788 58.1741C458.518 58.7831 458.321 59.5521 458.355 59.8561C458.392 60.1761 458.206 60.4991 457.922 60.6091C457.634 60.7211 457.425 60.9561 457.425 61.1701C457.425 61.3751 457.226 61.9231 456.977 62.4031C456.732 62.8751 456.07 64.5501 455.519 66.0881C454.968 67.6261 454.218 69.6141 453.869 70.4611C453.512 71.3261 453.299 72.0931 453.388 72.1911C453.48 72.2921 453.39 72.6561 453.18 73.0401C452.969 73.4241 452.839 73.8231 452.876 73.9691C452.912 74.1111 452.734 74.6101 452.476 75.0901C452.219 75.5691 451.723 76.8841 451.365 78.0381C450.51 80.7931 448.101 90.3841 447.904 91.8151C447.82 92.4241 447.64 93.0831 447.51 93.2571C447.379 93.4321 447.074 94.3461 446.837 95.2761C446.387 97.0411 446.565 96.9011 442.368 98.8191C441.919 99.0241 441.356 99.3191 441.086 99.4891C440.82 99.6581 439.885 100.008 438.987 100.274C438.09 100.54 437.112 100.855 436.792 100.979C436.254 101.188 436.231 101.011 436.456 98.3521C436.588 96.7821 436.718 94.7091 436.744 93.7381C436.77 92.7771 436.909 91.5751 437.048 91.0951C437.206 90.5501 437.17 90.0491 436.952 89.7811C436.691 89.4611 436.712 89.2531 437.032 88.9801C437.274 88.7741 437.401 88.2591 437.32 87.8101C437.239 87.3621 437.359 86.7911 437.592 86.5131C437.822 86.2381 438.048 85.3441 438.097 84.5101C438.237 82.1391 438.452 79.4801 438.505 79.4801C438.532 79.4801 438.596 78.9031 438.649 78.1981C438.701 77.4991 439 76.1161 439.306 75.1541C439.614 74.1851 439.989 72.2391 440.139 70.8291C440.288 69.4261 440.643 66.8881 440.924 65.2221C441.205 63.5561 441.509 61.4531 441.597 60.5761C441.685 59.6971 441.99 56.7311 442.272 54.0081C442.957 47.4081 443.004 46.5601 442.968 41.5131C442.916 34.1761 442.92 33.0601 443.001 31.5811C443.121 29.4021 442.759 25.2811 442.331 23.9561C442.118 23.2961 441.537 21.7771 441.019 20.5281C440.501 19.2781 440.005 17.6471 439.898 16.8431C439.791 16.0421 439.514 15.1231 439.273 14.7771C439.029 14.4251 438.84 13.9711 438.84 13.7361C438.84 13.3431 438.491 12.7751 436.933 10.6281C435.84 9.12209 432.175 5.67209 430.734 4.79209C428.267 3.28609 426.554 2.42607 426.024 2.42607C425.74 2.42607 424.71 2.14307 423.717 1.79307C419.424 0.276071 412.526 -0.516912 411.382 0.373088ZM477.098 44.1701C477.3 45.4661 477.23 47.5021 476.856 51.1871C475.846 61.1511 474.956 65.3131 473.172 68.4241C473.018 68.6921 472.411 69.8981 471.801 71.1471C470.299 74.2231 467.76 78.5641 466.554 80.1181C466.007 80.8231 465.355 81.7021 465.106 82.0721C462.538 85.8851 459.659 88.9281 456.108 91.5841C454.634 92.6861 454.266 92.6801 454.438 91.5561C454.512 91.0741 454.613 90.2581 454.666 89.7141C454.719 89.1691 454.911 88.4601 455.098 88.1121C455.288 87.7601 455.436 87.4171 455.438 87.3271C455.451 86.6481 456.009 84.3151 456.472 83.0021C456.788 82.1051 457.13 80.9071 457.248 80.2791C457.483 79.0291 459.24 73.4251 459.718 72.3971C459.882 72.0441 459.98 71.6191 459.936 71.4521C459.892 71.2861 460.103 70.5871 460.4 69.9141C460.697 69.2411 460.945 68.5421 460.945 68.3761C460.945 68.2111 461.23 67.5271 461.565 66.8861C462.42 65.2521 463.828 61.8631 463.828 61.4391C463.828 61.2451 464.197 60.2531 464.651 59.2281C465.459 57.4021 465.64 57.0231 466.307 55.7681C466.498 55.4091 466.966 54.4221 467.373 53.5251C468.258 51.5711 470.994 47.4621 472.223 46.2441C472.704 45.7681 473.12 45.2431 473.12 45.1141C473.12 44.9801 473.678 44.2651 474.382 43.4961C476.108 41.6151 476.724 41.7671 477.098 44.1701ZM437.75 104.701C439.865 105.683 441.221 106.74 442.551 108.44C443.553 109.722 443.656 110.026 443.485 111.179C443.381 111.884 443.239 112.842 443.174 113.278C442.701 116.472 441.852 120.743 441.009 124.171C440.465 126.382 439.974 128.75 439.912 129.457C439.85 130.162 439.648 131.171 439.463 131.7C439.279 132.226 438.858 134.039 438.534 135.705C438.208 137.379 437.581 140.191 437.14 141.953C436.699 143.715 436.093 146.281 435.792 147.656C435.245 150.155 434.712 150.901 434.647 149.258C434.328 141.216 434.247 140.156 433.908 139.614C433.768 139.39 433.807 139.005 433.993 138.781C434.498 138.172 434.563 134.273 434.077 133.687C433.865 133.431 433.814 133.122 433.967 133.026C434.378 132.768 434.694 129.554 434.349 129.138C434.157 128.906 434.152 128.353 434.335 127.744C434.499 127.199 434.521 126.329 434.383 125.854C434.243 125.373 434.229 124.682 434.351 124.332C434.477 123.972 434.512 123.243 434.431 122.666C434.35 122.089 434.396 121.388 434.536 121.064C434.84 120.361 434.908 119.622 434.973 116.322C435.001 114.912 435.176 113.182 435.363 112.477C435.686 111.256 435.715 110.074 435.518 106.229C435.444 104.787 435.661 104.052 436.177 103.99C436.198 103.989 436.917 104.314 437.75 104.701Z" fill="#7E4D28"/>
<path d="M344.502 73.1598C344.399 73.2628 343.52 73.4438 342.519 73.5678C341.518 73.6918 340.393 73.9628 339.98 74.1798C339.387 74.4908 339.172 74.4508 338.907 73.9758C338.443 73.1468 333.79 73.1588 331.974 73.9928C331.07 74.4078 329.446 76.0888 326.939 79.2018C323.447 83.5388 320.166 88.0758 320.104 88.6538C320.088 88.7968 319.518 89.8768 318.831 91.0628C314.645 98.2908 310.685 107.164 309.022 113.043C304.671 128.426 303.333 138.337 304.296 148.034C304.543 150.517 306.317 153.462 308.4 154.846C309.438 155.536 310.661 156.167 311.18 156.281C311.699 156.395 312.433 156.61 312.848 156.769C315.517 157.792 316.348 158.015 317.667 158.062C318.482 158.091 319.517 158.241 319.965 158.394C320.41 158.546 321.109 158.495 321.503 158.283C322.093 157.965 322.335 158.061 322.819 158.802C323.279 159.507 323.69 159.694 324.654 159.636C325.321 159.596 326.17 159.33 326.489 159.061C326.807 158.793 327.434 158.672 327.842 158.802C328.307 158.95 329.306 158.688 330.418 158.128C332.457 157.1 333.463 156.212 334.336 154.67C335.26 153.039 335.79 152.228 336.659 151.112C337.121 150.519 337.497 149.838 337.497 149.592C337.497 148.946 339.461 147.146 340.166 147.146C341.05 147.146 342.316 145.181 342.316 143.81C342.316 143.07 342.844 141.883 343.799 140.474C344.603 139.288 345.282 138.185 345.282 138.065C345.282 137.75 347.536 134.914 349.79 132.394C350.751 131.319 351.764 130.043 352.027 129.577C352.925 127.983 354.463 125.835 355.068 125.329C355.402 125.05 355.661 124.662 355.661 124.444C355.661 124.233 356.119 123.462 356.662 122.758C357.205 122.054 357.682 121.19 357.705 120.868C357.757 120.127 360.002 116.754 360.443 116.754C360.63 116.754 361.152 116.142 361.629 115.364C362.106 114.586 362.612 113.919 362.778 113.849C363.163 113.687 363.388 113.455 366.758 109.748C368.274 108.08 369.685 106.746 369.932 106.746C370.177 106.746 370.677 106.413 371.044 106.005C371.411 105.597 371.811 105.364 371.934 105.486C372.056 105.608 372.165 114.326 372.175 124.853C372.187 137.53 372.338 144.937 372.62 146.778C372.854 148.307 373.217 150.892 373.425 152.523C373.799 155.451 375.119 160.334 375.72 161.011C375.908 161.223 376.049 161.604 376.049 161.901C376.049 162.568 378.114 166.942 378.744 167.609C378.992 167.871 379.914 169.054 380.766 170.204C382.608 172.687 384.223 173.992 386.39 174.747C388.28 175.405 392.792 175.721 394.285 175.299C395.701 174.899 399.088 171.205 401.096 167.869C401.297 167.535 401.667 167.003 401.883 166.738C402.111 166.458 402.731 165.422 403.291 164.384C403.839 163.37 405.181 161.675 406.256 160.64C407.331 159.606 408.338 158.364 408.48 157.897C408.622 157.432 409.481 156.345 410.37 155.506C411.26 154.667 412.001 153.833 412.001 153.671C412.001 153.51 413.226 152.133 414.688 150.65C416.15 149.167 418.516 146.735 419.877 145.312C421.261 143.866 422.454 142.699 422.546 142.699C422.639 142.699 423.306 142.152 424.047 141.469C425.69 139.955 425.641 138.968 423.899 138.466C422.829 138.157 422.342 138.259 420.674 139.14C419.599 139.708 417.893 141.051 416.907 142.105C413.025 146.257 394.923 164.197 394.616 164.197C394.24 164.197 393.861 162.9 393.848 161.565C393.842 161.024 393.602 159.934 393.301 159.082C392.947 158.081 392.89 157.48 393.134 157.321C393.349 157.181 393.411 156.839 393.282 156.506C393.159 156.188 393.324 155.246 393.653 154.393C394.119 153.183 394.167 152.503 393.875 151.205C393.642 150.167 393.635 149.425 393.856 149.203C394.054 149.005 394.208 148.388 394.208 147.795C394.208 147.2 394.451 146.164 394.764 145.423C395.077 144.682 395.228 143.961 395.11 143.773C394.62 142.994 394.652 137.212 395.159 134.951C395.466 133.58 395.558 132.407 395.376 132.171C394.89 131.541 394.621 130.115 394.949 129.91C395.114 129.807 395.36 128.576 395.505 127.13C395.65 125.685 395.912 124.445 396.098 124.331C396.285 124.217 396.432 123.719 396.432 123.201C396.432 122.686 396.77 121.533 397.192 120.606C397.614 119.679 397.845 118.773 397.711 118.567C397.576 118.359 397.641 117.993 397.859 117.733C398.073 117.478 398.497 116.269 398.801 115.046C399.381 112.711 400.045 110.675 400.565 109.634C400.865 109.034 401.579 106.261 401.834 104.704C401.9 104.3 402.036 103.592 402.133 103.147C402.376 102.035 401.183 98.9298 400.324 98.4368C399.937 98.2138 398.953 97.3898 398.137 96.6048C396.938 95.4508 395.839 94.9108 392.392 93.7828C382.755 90.6298 379.951 90.0628 377.232 90.7178C376.268 90.9498 374.877 91.2448 374.118 91.3788C373.377 91.5088 372.474 91.9258 372.154 92.2868C371.649 92.8548 371.633 93.0838 372.043 93.8248C372.31 94.3068 372.765 94.8868 373.062 95.1218C373.518 95.4828 373.433 95.7118 372.506 96.6228C371.894 97.2248 370.597 98.2468 369.559 98.9448C363.674 102.906 352.118 114.044 339.702 127.721C337.414 130.241 335.682 131.752 335.409 131.465C335.292 131.341 335.707 130.242 336.347 128.982C336.987 127.722 337.496 126.442 337.496 126.091C337.496 125.738 337.726 125.053 338.019 124.534C339.128 122.57 340.09 120.313 340.09 119.678C340.09 119.307 340.238 118.92 340.424 118.807C340.605 118.697 340.868 118.103 340.998 117.51C341.129 116.917 341.485 116.213 341.776 115.972C342.075 115.725 342.585 114.934 342.925 114.193C343.265 113.452 343.817 112.529 344.167 112.117C344.509 111.715 344.899 110.467 345.02 109.393C345.157 108.17 345.576 106.963 346.113 106.242C346.583 105.612 347.095 104.776 347.225 104.426C347.363 104.055 347.617 103.777 347.818 103.777C348.014 103.777 348.59 102.887 349.115 101.775C349.64 100.663 350.381 99.6658 350.783 99.5318C351.172 99.4018 351.968 98.6238 352.507 97.8448C353.049 97.0618 354.323 95.8728 355.287 95.2498C356.251 94.6278 357.27 93.8548 357.511 93.5638C357.765 93.2568 358.289 93.0268 358.734 93.0268C359.172 93.0268 360.087 92.6308 360.828 92.1188C361.552 91.6188 363.145 91.0268 364.368 90.8028C365.591 90.5788 367.426 90.2368 368.445 90.0428C369.483 89.8458 371.032 89.5908 371.966 89.4638C374.042 89.1818 374.931 88.4268 374.931 86.9478C374.931 86.0948 374.639 85.6078 373.8 85.0578C373.17 84.6448 372.581 83.9718 372.468 83.5378C371.822 81.0358 366.59 78.5678 356.026 75.7798C353.876 75.2128 350.823 74.3638 349.206 73.8838C346.356 73.0368 344.856 72.8058 344.502 73.1598Z" fill="#7E4D28"/>
<path d="M293.05 63.2061C291.801 63.5091 291.219 64.3241 290.985 66.0981C290.857 67.0661 290.284 68.8631 289.694 70.1501C289.104 71.4371 288.602 72.6481 288.564 72.8801C288.524 73.1181 288.284 73.6101 288.002 74.0281C287.429 74.8781 287.312 74.8441 282.756 72.4971C281.504 71.8521 280.358 71.4261 280.235 71.5581C280.115 71.6871 279.806 71.5231 279.577 71.2101C278.891 70.2711 276.358 69.1921 275.905 69.6451C275.63 69.9201 275.14 69.9131 274.166 69.6221C270.41 68.5001 259.577 66.9961 258.968 67.5121C258.725 67.7181 258.446 67.6971 258.203 67.4531C257.925 67.1751 257.759 67.1751 257.594 67.4531C257.469 67.6641 256.916 67.8361 256.359 67.8361C255.629 67.8361 255.283 68.0521 255.107 68.6191C254.974 69.0481 253.863 70.5491 252.65 71.9401C250.384 74.5401 247.454 78.5131 245.085 82.2001C244.325 83.3831 243.495 84.4821 243.247 84.6351C242.994 84.7911 242.795 85.2961 242.795 85.7831C242.795 86.3051 242.559 86.7391 242.204 86.8701C241.357 87.1811 241.081 87.6611 241.049 88.8791C241.034 89.4531 240.779 90.5481 240.483 91.3141C240.181 92.0931 239.73 93.4701 239.457 94.4441C239.184 95.4181 238.817 96.2361 238.622 96.3051C238.428 96.3731 238.274 97.1401 238.274 98.0441C238.274 98.9451 238.112 100.739 237.909 102.096C237.708 103.435 237.382 106.409 237.185 108.704C236.739 113.886 236.678 114.422 236.219 117.225C235.872 119.34 235.943 125.607 236.393 132.528C236.78 138.483 237.872 143.866 239.92 149.917C242.275 156.873 246.969 162.511 252.186 164.648C253.056 165.004 254.029 165.435 254.377 165.618C255.378 166.144 261.298 166.538 263.559 166.23C266.793 165.789 269.953 164.964 270.584 164.396C270.909 164.103 271.488 163.874 271.871 163.886C272.601 163.91 275.995 162.675 276.636 162.152C276.862 161.968 277.732 161.612 278.531 161.377C279.435 161.111 280.232 160.591 280.583 160.038C280.905 159.53 281.592 158.722 282.148 158.195C282.704 157.668 283.139 157.172 283.139 157.065C283.139 156.959 283.384 156.596 283.69 156.248C285.343 154.37 286.965 151.924 286.965 151.309C286.965 150.892 287.313 150.474 287.834 150.266C288.321 150.071 288.703 149.712 288.703 149.449C288.703 149.191 289.555 147.901 290.598 146.58C291.642 145.258 292.947 143.321 293.502 142.267C294.061 141.208 295.189 139.346 296.031 138.094C297.949 135.242 298.44 134.391 298.44 133.92C298.44 133.709 298.846 132.999 299.344 132.338C299.842 131.677 300.162 130.904 300.057 130.616C299.939 130.295 300.126 129.954 300.544 129.729C300.932 129.52 301.222 128.999 301.222 128.512C301.222 128.06 301.565 127.375 301.952 127.053C303.065 126.128 305.424 122.349 305.22 121.817C305.128 121.576 305.29 121.272 305.569 121.167C306.173 120.937 308.525 117.47 308.525 116.809C308.525 116.542 308.997 115.574 309.568 114.67C310.139 113.766 310.611 112.837 310.611 112.618C310.611 112.398 310.92 111.905 311.298 111.522C312.432 110.374 313.754 108.2 313.982 107.105C314.098 106.548 314.333 106.008 314.505 105.899C315.025 105.571 314.818 104.773 314.157 104.56C313.812 104.448 312.036 104.83 310.192 105.411C305.979 106.74 305.483 107.279 302.064 114.235C297.807 122.895 291.254 134.137 287.145 139.832C285.966 141.467 284.292 143.954 283.4 145.397C281.143 149.049 279.536 151.145 276.52 154.37C274.308 156.735 273.636 157.236 272.04 157.709C269.188 158.555 267.321 158.451 265.919 157.369C264.962 156.63 264.561 155.9 263.817 153.535C262.624 149.745 262.387 146.718 262.458 136.18C262.517 127.451 262.958 122.349 263.798 120.669C264.054 120.156 264.182 119.313 264.094 118.721C264 118.095 264.132 117.483 264.424 117.191C265.191 116.424 265.441 115.522 265.6 112.948C265.679 111.661 265.992 109.997 266.285 109.296C266.576 108.601 266.784 107.506 266.737 106.914C266.69 106.323 266.818 105.602 267.015 105.349C267.219 105.086 267.641 104.167 267.971 103.262C268.302 102.358 268.853 101.384 269.223 101.053C269.58 100.734 269.988 99.9581 270.11 99.3661C270.232 98.7751 270.536 98.0301 270.771 97.7491C271.017 97.4531 271.356 96.7751 271.554 96.1841C271.741 95.6221 272.327 94.5151 272.823 93.7841C273.319 93.0541 273.745 92.2831 273.745 92.1151C273.745 91.7321 276.771 88.7071 277.153 88.7071C277.325 88.7071 277.748 88.3941 278.092 88.0111C278.453 87.6101 279.153 87.3161 279.744 87.3161C280.301 87.3161 281.216 87.0521 281.744 86.7391C283.1 85.9361 283.927 86.3131 283.465 87.5241C282.533 89.9721 279.241 105.122 278.975 108.183C278.719 111.139 278.575 117.074 278.743 117.747C279.067 119.043 280.63 120.675 282.403 121.57C284.385 122.57 287.529 123.529 288.107 123.31C288.36 123.214 288.835 122.564 289.185 121.834C289.535 121.104 289.956 120.247 290.141 119.886C290.321 119.536 290.567 118.425 290.68 117.451C290.793 116.477 291.016 115.493 291.167 115.295C291.324 115.089 291.445 114.634 291.445 114.252C291.445 113.881 291.863 112.391 292.367 110.965C292.871 109.539 293.352 107.884 293.428 107.313C293.507 106.722 293.793 106.104 294.089 105.888C294.608 105.509 295.184 104.218 295.441 102.861C295.633 101.846 296.423 100.148 297.9 97.5751C298.556 96.4331 299.83 93.9931 300.715 92.1841C301.6 90.3761 302.631 88.2741 302.993 87.5411C303.353 86.8111 303.654 86.0441 303.654 85.8541C303.654 85.6661 304.135 84.7931 304.697 83.9591C305.26 83.1241 305.74 82.1071 305.74 81.7511C305.74 81.4031 306.045 80.9251 306.383 80.7421C306.744 80.5471 307.118 79.9591 307.235 79.4031C307.35 78.8591 308.079 77.6121 308.852 76.6381C309.625 75.6641 310.261 74.6291 310.261 74.3421C310.261 74.0541 310.713 73.6351 311.27 73.4071C313.183 72.6231 312.905 70.4111 310.713 68.9841C310.222 68.6641 309.079 67.6971 308.209 66.8661C306.024 64.7781 304.07 63.9481 301.566 64.0421C300.488 64.0831 299.441 64.0291 299.271 63.9251C298.861 63.6741 294.993 62.9561 294.298 63.0021C293.996 63.0201 293.432 63.1131 293.05 63.2061Z" fill="#7E4D28"/>
<path d="M55.4641 16.8764C55.2164 16.5827 54.9976 16.2748 54.9775 16.1921C54.9227 15.9664 54.7986 15.996 54.1387 16.3917C53.1309 16.9961 52.9906 17.0095 48.3424 16.9499C44.2545 16.8975 44.2122 16.8989 43.0447 17.1261C41.4129 17.4436 40.6828 17.6467 39.8628 18.1164C39.2771 18.9671 39.5549 18.5914 39.0812 19.7195C39.2515 19.1766 38.9844 19.8527 39.0812 19.7195C39.0812 19.7195 38.8423 20.2497 38.6756 20.5779C38.6293 20.63 41.9962 22.7558 42.0924 22.7863C42.1801 22.8141 40.3377 21.006 40.4106 21.3064C40.537 21.8273 40.578 21.8694 41.254 22.1762C41.233 22.1278 41.6418 22.3518 41.254 22.1762C41.2752 22.2256 42.0635 22.7243 42.0924 22.7863C42.1212 22.8482 42.2175 22.8507 42.3337 22.8995C42.7405 23.0372 42.6245 22.965 42.7405 23.0372C43.2297 23.3414 47.4829 23.6353 50.1071 23.5461C50.8894 23.5196 52.7342 23.1602 53.0723 22.9685C53.2455 22.8704 53.4649 22.7896 53.5549 22.7909C53.8112 22.7944 54.6378 22.2425 54.6015 22.0926C54.5835 22.0184 54.7188 21.8302 54.9087 21.6656C55.0985 21.5009 55.2329 21.3089 55.2137 21.2298C55.1944 21.1504 55.2421 21.0508 55.3227 21.0025C55.598 20.8374 56.0592 18.8301 55.986 18.1164C55.9285 17.5517 55.8237 17.3038 55.4641 16.8764Z" fill="#7E4D28"/>
<path d="M40.6444 8.23235C40.483 8.44384 40.4737 8.46651 40.4774 8.64085C40.4796 8.74012 40.4659 8.99135 40.4479 9.18532L40.4142 9.54552L39.5804 17.2192C38.0985 20.7395 35.3081 25.8033 33.9364 29.0499C31.2879 35.3184 29.8468 34.6064 27.8692 39.9086C27.4986 40.9021 27.012 42.1782 26.7878 42.7441C26.3707 43.7974 25.987 44.932 25.3393 47.0271C25.1298 47.7052 24.8377 48.6397 24.6902 49.1043C24.0709 51.0548 23.5923 52.951 23.3552 54.3922C23.0018 56.5397 23.1675 57.717 23.8615 57.9927C24.319 58.1745 24.387 58.1525 25.0731 57.6066C25.6131 57.1771 26.2773 56.4026 27.5891 54.6727C28.2009 53.8659 28.4567 53.4181 29.8265 50.7558C30.2242 49.9829 30.4553 49.4823 30.6816 48.9042C30.961 48.1903 31.005 48.0219 31.1269 47.2027C31.2024 46.695 31.2333 46.3314 31.1968 46.3792C31.1614 46.4256 31.0321 46.7017 30.9139 46.9829C30.5988 47.7334 30.1771 48.5359 29.4375 49.7922C27.3097 53.4069 25.9042 55.23 25.5889 54.7841C25.2964 54.3706 25.5871 52.4923 26.2048 50.8024C26.3151 50.5005 26.4183 50.1879 26.437 50.0991C26.4791 49.8989 26.717 49.242 27.3399 47.6058C27.8415 46.2882 28.0916 45.6761 28.7962 44.0401C29.0248 43.5096 29.2499 42.9826 29.3006 42.8594C29.3875 42.6487 29.9747 41.3149 30.6587 39.7745C30.822 39.4068 31.1641 38.6638 31.4311 38.0968C31.6979 37.5303 32.0505 36.7645 32.2271 36.3682C32.4034 35.9723 32.6184 35.5535 32.7123 35.4229C32.8123 35.2839 33.0648 34.7788 33.3343 34.1786C33.5842 33.6223 33.8277 33.1063 33.8761 33.031C34.0309 32.7902 34.5331 31.7754 35.0886 30.5809C35.3867 29.94 35.7501 29.1919 35.8962 28.9186C36.3139 28.1367 37.3845 25.9296 37.4744 25.6647C37.5001 25.5891 37.5932 25.4011 37.6811 25.2468C38.1645 24.3991 39.2061 22.0575 39.8733 20.3188C40.2586 19.3147 40.409 18.9248 40.8616 17.7571C41.3034 16.6171 41.5564 15.6471 41.8068 14.1332C42.049 12.6686 42.1078 11.9474 42.0304 11.3846C42.0068 11.2128 41.9715 10.884 41.9507 10.6427C41.9298 10.4014 41.8885 10.1988 41.8576 10.1858C41.8267 10.1729 41.7849 9.97657 41.7641 9.74615C41.7432 9.51573 41.685 9.21151 41.6339 9.06511C41.5826 8.91805 41.5265 8.71632 41.5076 8.61168C41.4887 8.50755 41.3269 8.33096 41.1445 8.21582C40.8691 8.04201 40.7876 8.04473 40.6444 8.23235Z" fill="#7E4D28"/>
<path d="M32.9868 32.7686C32.9868 32.7686 27.3559 24.3339 17.9882 26.5507C8.62064 28.7675 -2.57719 52.8085 16.2841 62.6712C35.2714 72.5991 45.5536 59.026 47.3491 45.4655C49.1447 31.9049 35.9542 32.301 32.9868 32.7686Z" fill="#7E4D28"/>
</svg>
