<svg width="432" height="430" viewBox="0 0 432 430" fill="none" xmlns="http://www.w3.org/2000/svg">
<path fill-rule="evenodd" clip-rule="evenodd" d="M310.297 94.2216V96.2279L308.279 98.39L306.084 104.565H312.295L318.859 102.558L323.052 98.3704H318.859L316.664 94.202L312.295 89.8583V81.5013L306.084 83.683L303.909 85.8451V87.8323L306.084 89.8386L310.297 94.2216ZM34.1055 127.629V133.979V146.504L42.5112 150.692V165.379L50.9168 177.924L55.2864 180.086L57.3044 173.736L50.9168 163.393L48.8988 152.874H53.0919L55.2666 163.393L65.6903 180.086L63.6723 184.099L70.0598 194.793L86.8514 198.806V196.8H93.239V200.968L97.4321 203.15L105.661 205.156L118.436 217.837L133.21 219.863L135.248 232.388L124.824 238.563V249.082L122.649 255.257L137.442 274.308V280.658H143.83L156.428 291.002V322.402L160.798 324.389L156.428 339.096L164.834 349.615L162.816 364.322L171.221 378.854L183.977 389.372L196.419 391.535V387.366L188.013 378.854V376.847L190.188 370.516V366.328H183.977L181.802 362.159L185.995 357.971V355.809L181.802 353.803V351.797L190.208 349.635L200.612 343.459L204.981 337.109L217.58 322.422L213.387 307.715L217.58 303.702H228.16L236.566 297.352L238.76 274.288L246.99 263.769L249.341 255.238L240.779 253.251L236.566 244.894H219.598L204.981 240.881V230.187L200.612 224.012H188.013L181.802 211.487L175.414 209.305L173.239 211.487H162.835L158.623 207.143L145.867 205.137L137.462 215.5L120.67 213.493V196.8L107.895 194.793L112.088 184.099V180.086L97.4713 190.43L86.8906 188.424L84.7159 182.073L86.8906 173.717L91.0837 165.36L103.682 159.029H126.881L124.843 165.36L135.267 169.548L133.229 157.003L139.617 152.834L152.216 144.303V138.128L164.814 125.603L177.413 119.252V117.246L183.977 110.896H188.013L190.188 112.902L192.363 108.889H194.381H190.188L185.975 106.708V102.539H188.013H192.382H194.4L196.419 106.708H198.594L204.981 104.546L207.176 102.539H209.194V106.708L207.176 108.889V112.902L217.58 115.084H219.598V110.915L211.192 106.727V104.565L217.58 100.552V94.202L211.192 89.8583L209.174 79.495L200.592 83.683H196.399V75.3267L183.957 71.1387L177.393 75.3267V89.8583L166.97 92.1957L162.776 100.552L158.564 102.558V89.8583H149.982L143.771 85.8647L141.576 79.5146L160.739 69.171L166.95 66.8336L169.125 71.1773H173.161V69.171H179.549V66.8336H177.354V62.8209H181.723L185.916 58.652H187.954L200.553 56.4899L207.117 60.6583L192.323 69.1906L209.115 73.2032L213.308 66.8532H221.714L223.732 60.6779H217.521V54.5032L198.535 46.1463H185.916L179.549 50.1589L181.723 58.6716H173.142L171.143 54.5032L179.549 46.1463H166.95L162.757 48.1526L160.719 52.3216H164.755V56.4899H156.35L154.175 60.6583H143.751L141.557 54.4836H152.157L158.544 48.133L154.175 46.1267L149.962 50.1399H141.557L135.189 41.7829H124.765L112.009 52.3019H124.765V54.464L122.59 56.4703H133.171L135.208 60.6393H122.61V58.6324L112.029 56.4703L110.011 54.464H99.4305C131.015 29.4136 171.182 16.7133 213.348 16.7133C249.302 16.7133 282.905 27.0564 312.295 41.7633L327.088 31.4007C293.485 12.5252 255.513 0 213.348 0C158.564 0 107.836 20.862 70.0401 56.4507C61.4581 62.801 53.0721 71.1383 44.6665 81.5013C17.2747 117.246 0.48291 161.016 0.48291 211.448C0.48291 326.532 95.2376 420.734 213.348 420.734C295.68 420.734 367.412 374.802 403.033 307.657C409.401 293.125 415.788 276.255 420.001 259.562C422.195 255.218 422.195 251.206 422.195 247.037C424.214 236.518 426.232 223.973 426.232 211.467C426.232 209.286 426.232 209.286 426.232 209.286C426.232 203.111 426.232 196.761 426.232 190.41C424.213 169.548 420.02 150.672 411.615 131.953C411.615 131.953 409.42 129.791 409.42 127.609C401.015 106.727 386.241 83.6831 369.43 66.814L367.412 64.8076C363.042 60.6391 360.867 56.4508 356.655 54.4444C356.655 54.4444 356.655 54.4444 354.656 54.4444L335.494 60.6197C337.669 62.7819 339.863 62.7817 342.058 64.788L339.863 69.1318L331.458 73.145L327.088 77.4887L329.263 81.5013H333.456L335.474 89.8583L344.056 85.8647L346.231 96.2083H342.038L335.474 94.202L329.263 96.2083L320.858 104.565L312.275 106.727L310.257 115.084L314.45 117.246L312.256 121.259L303.85 119.252L293.446 121.259V127.609V138.128L299.833 140.29H308.239H314.45L316.625 135.946L325.031 123.577H331.418L337.629 119.233L339.804 123.577L354.598 131.933L352.423 135.946H346.211L348.21 138.108L352.423 140.27L356.616 138.108V131.953L360.828 129.791L358.81 127.629L348.229 123.615L346.231 115.103H352.442L356.635 117.265L363.023 125.622V131.972L371.428 140.329L373.603 129.81L379.814 127.648V136.005L386.202 140.348H394.608C396.782 146.523 398.801 150.711 400.975 154.88V157.042H384.184L375.621 150.712H365.198V157.042H363.023L358.83 154.88L342.038 150.712V140.348H318.859L312.295 144.361H303.889H299.873L289.116 150.712V161.055L265.937 175.762L268.112 182.093H274.499L272.461 188.443L268.092 190.45V207.162L287.078 228.22H295.66V226.214H310.277L314.47 221.869H323.032L327.069 226.214L339.824 228.22L337.649 244.914L352.442 267.957L346.231 282.645V288.995L350.424 293.164V309.877L358.83 320.396V332.746H365.217C329.263 376.847 274.499 404.079 213.348 404.079C105.642 404.079 19.2929 318.234 19.2929 211.507C19.2929 184.119 25.6805 157.042 34.0861 133.998L34.1055 127.629L40.4734 119.272C42.4915 115.103 46.8609 110.915 48.879 106.746V110.935L40.4734 119.291L34.1055 127.629ZM386.241 123.615H388.416C390.591 125.622 390.591 127.628 392.609 131.972H390.591H386.222L386.241 123.615ZM354.656 85.8647V77.5083C358.849 81.5211 363.062 83.6828 365.237 87.8514L360.867 94.202H348.249V92.1957L354.656 85.8647ZM99.4502 62.8209H103.643H110.031V64.8273V66.8336H99.4502V62.8209ZM105.661 73.164L110.031 71.1577V77.5083H101.625L99.4502 75.3457L105.661 73.164ZM116.418 96.2083L122.629 92.1957L126.842 94.202L124.804 100.552H120.611L116.418 96.2083ZM143.81 110.915V112.922H133.229H128.86V110.915L135.248 106.727H141.615V110.915H143.81ZM150.021 115.103V119.272L145.828 121.278H143.81V115.103H150.021ZM145.828 112.922V108.909L150.021 112.922H145.828ZM148.003 123.615V127.629L145.828 129.791H139.617V125.622H143.81V123.615H148.003ZM133.21 115.103H139.597L131.015 127.629L126.822 125.622L128.841 119.272L133.21 115.103ZM158.583 121.278V125.622H152.196V123.615V119.272L158.583 121.278ZM152.216 117.265L154.234 115.103L158.603 117.265L156.428 119.272L152.216 117.265ZM403.052 167.386V165.36C405.227 167.386 405.227 167.385 405.227 169.548L403.052 167.386ZM183.957 119.272L181.782 121.278H185.975L188.013 119.272L183.977 117.265L183.957 119.272ZM196.399 112.922V117.265H190.188V119.272H192.363C192.363 119.272 192.363 119.272 192.363 121.278H196.399L198.574 119.272V117.265H200.592L202.787 112.922H200.592H196.399ZM306.103 96.2083V92.1957L301.91 89.8583L297.698 92.1957L293.505 98.3704V100.552H297.698L306.103 96.2083Z" fill="#7E4D28"/>
<path d="M216 9.28528C330.946 9.28528 424 101.585 424 215.285C424 328.986 330.946 421.285 216 421.285C101.054 421.285 8 328.986 8 215.285C8 101.585 101.054 9.28528 216 9.28528Z" stroke="#7E4D28" stroke-width="16"/>
</svg>
