<svg width="474" height="474" viewBox="0 0 474 474" fill="none" xmlns="http://www.w3.org/2000/svg">
<path d="M456.073 236.985C456.073 230.299 455.725 223.699 455.139 217.172H473.97C464.429 101.62 372.35 9.5404 256.798 0V18.8306C250.265 18.245 243.665 17.8973 236.985 17.8973C230.299 17.8973 223.699 18.245 217.172 18.8306V0C101.62 9.5404 9.5404 101.62 0 217.172H18.8307C18.2451 223.705 17.8973 230.305 17.8973 236.985C17.8973 243.671 18.2451 250.271 18.8307 256.798H0C9.5404 372.35 101.62 464.43 217.172 473.97V455.139C223.705 455.725 230.306 456.073 236.985 456.073C243.671 456.073 250.271 455.725 256.798 455.139V473.97C372.35 464.43 464.429 372.35 473.97 256.798H455.139C455.725 250.271 456.073 243.671 456.073 236.985Z" fill="#7E4D28" fill-opacity="0.8"/>
<path d="M236.985 441.518C124.208 441.518 32.4521 349.762 32.4521 236.985C32.4521 124.208 124.202 32.4521 236.985 32.4521C349.768 32.4521 441.518 124.208 441.518 236.985C441.518 349.762 349.762 441.518 236.985 441.518ZM236.985 36.4172C126.386 36.4172 36.411 126.392 36.411 236.991C36.411 347.59 126.386 437.565 236.985 437.565C347.584 437.565 437.559 347.59 437.559 236.991C437.559 126.392 347.578 36.4172 236.985 36.4172Z" fill="white"/>
<path d="M315.821 209.956C314.498 158.466 265.813 130.229 221.265 137.201C172.74 144.796 141.746 199.421 167.335 245.806C168.543 247.996 171.465 248.929 173.545 247.52C179.651 243.408 185.763 239.291 191.869 235.18C193.98 233.758 194.736 230.97 193.498 228.628C183.274 209.34 190.07 189.381 206.649 177.364C223.363 165.249 246.428 165.957 263.874 175.619C279.691 184.379 288.188 202.593 283.272 220.832C278.843 237.235 263.593 246.617 248.343 250.057V190.656C248.343 187.996 246.165 185.812 243.5 185.812H223.699C221.039 185.812 218.856 187.99 218.856 190.656V332.969C218.856 335.634 221.033 337.812 223.699 337.812H243.5C246.159 337.812 248.343 335.634 248.343 332.969V283.046C283.796 277.422 314.796 250.259 315.821 209.956Z" fill="#F0F1F2"/>
</svg>
