<svg width="578" height="398" viewBox="0 0 578 398" fill="none" xmlns="http://www.w3.org/2000/svg">
<path d="M439.214 111.351C440.989 119.129 462.595 119.031 469.115 117.107C476.152 128.153 491.32 133.149 504.309 131.695C511.299 142.859 526.264 148.532 539.707 145.116C545.628 159.723 566.72 159.723 576.814 149.12C578.326 147.326 575.2 143.352 573.119 145.245C565.435 153.054 548.578 155.374 543.371 143.983C554.961 139.383 570.223 127.162 566.556 113.761C563.876 106.175 553.261 105.654 548.285 111.426C542.168 119.36 537.674 130.011 538.356 139.975C527.67 142.906 514.834 140.241 508.384 130.92C516.722 128.937 523.917 122.762 526.765 114.976C529.692 108.283 527.992 97.6372 518.733 97.4217C504.16 97.6725 497.73 115.242 502.048 126.868C491.426 127.953 479.385 124.384 472.935 116.046C482.895 112.578 493.949 105.129 495.442 94.3537C496.139 87.2106 489.553 79.1819 481.583 81.8582C470.275 86.5406 464.009 101.105 467.018 112.253C458.594 114.259 449.39 113.675 441.541 109.992C440.397 109.455 439.292 110.192 439.214 111.351ZM562.673 114.533C563.46 125.254 551.741 134.364 542.513 138.584C542.341 131.437 552.708 103.985 562.673 114.533ZM511.813 105.458C514.661 103.115 519.72 100.842 523.066 103.421C526.021 113.581 515.915 123.843 506.049 126.135C503.757 119.047 505.884 110.415 511.813 105.458ZM477.747 91.0858C494.259 75.5182 498.788 101.614 470.901 111.116C469.456 103.918 472.959 96.5009 477.747 91.0858Z" fill="#FFD2E1"/>
<path d="M219.411 116.986C225.155 124.521 231.119 131.903 237.314 139.109C239.453 137.589 241.561 136.029 243.646 134.438C237.839 127.487 232.24 120.379 226.856 113.126C224.372 114.412 221.891 115.697 219.411 116.986Z" fill="#FAE285" fill-opacity="0.5"/>
<path d="M370.314 113.93C362.866 119.944 355.597 126.159 348.524 132.581C350.256 134.52 352.027 136.429 353.826 138.309C360.66 132.275 367.669 126.429 374.848 120.775C373.343 118.494 371.831 116.21 370.314 113.93Z" fill="#F2ADAD" fill-opacity="0.5"/>
<path d="M268.32 375.823C279.863 361.858 291.183 347.564 302.264 332.941C300.137 329.799 297.95 326.723 295.717 323.709C285.039 337.51 274.143 351.012 263.046 364.198C264.797 368.077 266.553 371.952 268.32 375.823Z" fill="#F1CB34" fill-opacity="0.5"/>
<path d="M490.814 238.106C497.048 226.503 503.964 215.23 511.522 204.365C512.792 203.162 510.018 195.925 508.207 197.429C499.857 209.435 492.311 221.927 485.595 234.814C487.338 235.907 489.074 237.008 490.814 238.106Z" fill="#B4B6D9" fill-opacity="0.5"/>
<path d="M111.935 86.9561C117.856 81.9602 118.699 73.9198 123.013 67.8856C127.644 61.389 135.316 56.973 143.435 55.8289C143.768 54.4966 144.081 53.1683 144.344 51.8204C143.835 50.9975 143.784 50.159 144.019 49.4106C133.674 49.8691 123.745 55.7857 118.843 64.5706C116.387 68.9827 115.176 73.9903 112.151 78.1203C93.2528 100.349 37.9338 66.7963 14.1535 102.7C13.2718 102.167 13.5696 104.346 13.5618 104.847C15.2428 105.172 16.9198 105.505 18.5968 105.846C43.9093 76.0905 88.9818 103.245 111.935 86.9561Z" fill="#E47C98" fill-opacity="0.5"/>
<path d="M358.892 65.2876C363.476 102.61 393.769 78.6452 405.242 110.113C406.664 110.215 408.09 110.301 409.516 110.333C410.284 109.721 411.139 109.541 411.946 109.643C401.225 73.5945 369.788 100.815 364.867 62.1294C362.88 63.1952 360.89 64.2453 358.892 65.2876Z" fill="#FAE285" fill-opacity="0.5"/>
<path d="M231.804 51.5774C231.561 51.3658 231.479 51.3735 231.561 51.444C231.651 51.4832 231.722 51.5421 231.804 51.5774Z" fill="#C1D5EA" fill-opacity="0.5"/>
<path d="M294.38 35.6532C288.773 46.3033 278.468 60.4014 265.196 61.7846C263.555 61.7102 261.972 61.2086 260.608 60.3309C260.287 60.1311 260.338 60.1663 260.765 60.4328C260.212 60.2525 259.715 59.61 259.237 59.2887C258.747 58.8929 259.299 59.3709 259.362 59.4023C258.653 58.8733 257.877 57.8859 257.356 57.2942C254.629 53.8813 253.124 49.6104 252.325 45.4962C259.264 34.3524 263.915 21.4885 264.248 8.45221C264.076 3.86384 257.877 -0.563898 253.81 2.99395C246.545 14.3454 244.578 29.3996 246.298 42.5456C243.802 46.1935 240.867 50.0296 236.436 51.546C236.448 51.5421 235.985 51.6792 235.997 51.6831C234.633 52.0279 233.133 52.0711 231.804 51.5774C231.824 51.5931 231.84 51.6049 231.863 51.6284C231.628 51.4716 231.397 51.3697 231.162 51.2639C231.197 51.2952 231.224 51.3188 231.268 51.358C229.093 49.8808 228.121 47.6472 227.047 44.5204C227.04 44.5008 226.867 43.8974 226.863 43.8817C224.23 30.7514 226.013 16.9981 229.238 4.09897C229.865 1.74797 224.148 -1.72367 223.423 0.991734C220.155 16.7238 216.08 35.3241 224.618 50.0609C230.468 58.8341 242.211 58.983 248.575 50.6566C262.853 82.3676 290.011 60.5073 300.199 38.7683C300.567 36.433 295.979 33.0867 294.38 35.6532ZM258.375 7.85659C257.599 16.5004 255.31 25.015 251.623 32.9378C251.815 30.1754 252.207 27.417 252.764 24.6898C254.178 19.0396 255.283 12.8838 258.375 7.85659Z" fill="#C1D5EA" fill-opacity="0.5"/>
<path d="M231.158 51.2641C230.833 50.9741 230.79 51.0015 230.892 51.0956C230.978 51.1544 231.06 51.221 231.158 51.2641Z" fill="#C1D5EA" fill-opacity="0.5"/>
<path d="M189.263 319.697C189.365 319.493 189.415 319.477 189.384 319.544C189.333 319.595 189.306 319.65 189.263 319.697Z" fill="#E47C98" fill-opacity="0.5"/>
<path d="M160.193 339.594C171.039 343.172 178.727 333.113 177.955 323.513C184.228 327.385 192.484 323.925 193.562 316.793C194.945 304.839 186.908 293.656 180.231 284.162C178.974 282.567 176.207 286.364 177.297 287.743C183.135 295.388 188.26 303.973 190.305 313.318C190.309 313.33 190.368 313.772 190.368 313.788C190.56 316.135 190.56 317.863 189.557 319.407C189.573 319.372 189.584 319.344 189.6 319.317C189.475 319.446 189.353 319.575 189.244 319.74C189.251 319.72 189.259 319.709 189.267 319.693C188.534 320.371 187.535 320.735 186.536 320.868C186.544 320.865 186.199 320.896 186.207 320.896C182.853 321.068 179.816 319.317 177.124 317.573C174.471 308.459 168.849 299.067 160.796 293.511C144.563 294.106 168.441 318.169 174.001 321.111C174.659 324.035 174.895 327.244 174.083 330.21C173.911 330.739 173.684 331.597 173.37 332.13C173.402 332.091 173.629 331.632 173.421 332.02C173.198 332.357 173.057 332.91 172.743 333.176C172.947 332.886 172.971 332.851 172.818 333.066C172.171 334.007 171.274 334.751 170.216 335.237C160.675 337.733 150.558 331.397 143.477 325.735C142.075 324.65 140.574 326.769 140.362 327.992C141.24 332.768 155.283 338.568 160.193 339.594ZM170.847 312.656C166.141 308.412 162.184 303.405 159.186 297.919C160.401 298.561 161.239 299.604 162.168 300.626C165.514 304.306 168.566 308.283 170.847 312.656Z" fill="#E47C98" fill-opacity="0.5"/>
<path d="M189.596 319.321C189.725 319.046 189.764 319.05 189.721 319.14C189.682 319.199 189.647 319.266 189.596 319.321Z" fill="#E47C98" fill-opacity="0.5"/>
<path d="M289.659 107.79C288.949 102.449 296.951 98.6561 299.901 103.883C309.352 97.798 315.547 108.789 305.947 114.725C303.819 115.912 298.882 120.685 296.629 118.91C293.71 115.654 289.874 112.37 289.659 107.79Z" fill="#C19EC8"/>
<path d="M492.472 31.8721C491.296 21.5864 506.206 14.3963 512.036 24.4076C527.263 13.3893 543.716 31.4136 523.587 45.1121C520.327 47.1026 508.858 56.8318 505.79 53.1016C500.215 46.8871 492.887 40.6178 492.472 31.8721Z" fill="#F4D4CB" fill-opacity="0.5"/>
<path d="M413.796 84.2367C409.223 81.1099 411.75 72.9049 417.757 74.3782C419.513 63.5989 432.141 66.7061 430.171 77.4854C429.634 79.7894 429.939 86.5014 427.052 86.8815C422.573 86.7248 417.456 87.195 413.796 84.2367Z" fill="#EFCEE1" fill-opacity="0.5"/>
<path d="M536.443 261.956C529.88 252.842 540.103 238.815 550.906 245.401C559.263 227.726 584.478 236.401 572.766 259.272C570.803 262.681 565.027 277.559 560.247 275.463C551.701 272.328 541.474 269.989 536.443 261.956Z" fill="#E6A67B" fill-opacity="0.5"/>
<path d="M295.639 255.758C314.29 242.89 299.565 224.031 285.463 234.477C278.841 214.697 248.681 234.787 266.38 251.549C270.444 256.463 274.691 262.474 280.823 264.962C281.121 267.771 293.668 256.678 295.639 255.758Z" fill="#B6D6D0" fill-opacity="0.5"/>
<path d="M190.991 152.776C198.283 140.947 184.808 131.629 178.362 142.581C167.63 132.225 156.471 153.533 171.838 158.293C175.8 160.174 180.212 162.674 184.706 162.502C186.058 163.752 189.871 154.116 190.991 152.776Z" fill="#FAE285" fill-opacity="0.5"/>
<path d="M460.278 270.181C459.561 263.677 468.887 259.245 472.022 265.996C482.452 259.143 489.87 272.669 478.436 279.871C476.167 281.156 469.894 286.893 467.731 284.46C464.495 280.169 460.325 275.816 460.278 270.181Z" fill="white" fill-opacity="0.5"/>
<path d="M389.945 156.358C389.624 174.429 361.564 174.425 361.247 156.358C361.568 138.286 389.624 138.29 389.945 156.358Z" fill="#FAE285" fill-opacity="0.5"/>
<path d="M365.82 25.5989C365.499 43.6703 337.439 43.6664 337.122 25.5989C337.443 7.52757 365.499 7.52757 365.82 25.5989Z" fill="#E47C98" fill-opacity="0.5"/>
<path d="M78.4918 355.213C78.1705 373.285 50.1113 373.281 49.7939 355.213C50.1152 337.146 78.1705 337.146 78.4918 355.213Z" fill="#C1D5EA" fill-opacity="0.5"/>
<path d="M76.3919 125.003C76.1177 140.426 52.1688 140.426 51.8945 125.003C52.1688 109.58 76.1177 109.58 76.3919 125.003Z" fill="#B6D6D0" fill-opacity="0.5"/>
<path d="M185.498 84.8206C185.192 102.065 158.418 102.061 158.112 84.8206C158.422 67.58 185.196 67.58 185.498 84.8206Z" fill="#E6A67B" fill-opacity="0.5"/>
<path d="M463.37 153.489C463.002 174.065 431.06 174.061 430.699 153.489C431.064 132.914 463.006 132.918 463.37 153.489Z" fill="#B6D6D0" fill-opacity="0.5"/>
<path opacity="0.67" d="M150.629 288.77C147.949 273.375 171.772 269.17 174.997 284.464C177.677 299.859 153.854 304.067 150.629 288.77Z" fill="#F1CB34" fill-opacity="0.5"/>
<path opacity="0.6" d="M199.193 71.7059C198.887 88.9505 172.113 88.9466 171.808 71.7059C172.113 54.4613 198.887 54.4652 199.193 71.7059Z" fill="#F4D4CB" fill-opacity="0.5"/>
<path d="M302.288 52.0984L295.603 60.6716L299.181 70.8084L288.605 67.3642L279.648 73.7549L279.801 63.054L270.683 56.8669L281.352 53.701L284.679 43.4819L291.121 52.2276L302.288 52.0984Z" fill="white" fill-opacity="0.5"/>
<path d="M53.9398 282.739L49.6179 269.48L35.7666 265.373L47.5921 257.341L47.3884 243.45L59.0219 251.745L72.7478 247.267L68.1085 260.428L76.7916 271.549L62.2937 271.388L53.9398 282.739Z" fill="#FAE285" fill-opacity="0.5"/>
<path d="M56.3494 31.245L48.5715 35.5592L47.8701 44.1403L41.1854 38.3881L32.4476 40.4022L36.0916 32.5342L31.3936 25.1952L40.3313 26.0846L46.1657 19.5332L48.0425 27.9536L56.3494 31.245Z" fill="#C1D5EA" fill-opacity="0.5"/>
<path opacity="0.8" d="M442.145 189.977L433.183 180.526L419.975 182.238L426.589 171.153L420.809 159.649L433.857 162.247L443.489 153.423L444.942 166.118L456.678 172.168L444.527 177.411L442.145 189.977Z" fill="#FAE285" fill-opacity="0.5"/>
<path d="M429.214 251.393L418.442 247.4L408.905 253.638L409.536 242.592L400.398 235.829L411.562 232.992L415.449 222.573L421.714 231.868L433.258 232.193L425.969 240.774L429.214 251.393Z" fill="#E47C98" fill-opacity="0.5"/>
<path d="M78.2803 185.717C78.2607 185.729 78.2607 185.729 78.2803 185.717Z" fill="#C1D5EA" fill-opacity="0.5"/>
<path d="M73.4528 180.169C73.4528 180.232 73.4371 180.334 73.4411 180.408C73.4724 180.369 73.4646 180.22 73.4528 180.169Z" fill="#C1D5EA" fill-opacity="0.5"/>
<path d="M71.3999 170.62C54.312 162.368 38.8268 177.407 33.7878 192.132C17.4993 185.725 2.59394 199.765 0 214.501C1.45762 215.532 2.90346 216.578 4.33757 217.648C5.06638 213.82 6.61806 210.14 8.77706 206.857C12.8874 200.454 21.6253 194.863 30.2338 196.536C30.8764 196.653 31.7307 196.857 32.3968 197.061C31.0449 204.945 30.4572 217.957 38.6543 222.789C43.2623 224.63 47.4706 221.75 49.0144 217.769C52.3254 209.608 46.1932 198.856 38.4193 194.455C43.0625 182.759 55.2172 169.883 69.4916 175.244C67.8851 180.733 71.0982 190.631 78.2099 191.705C88.7346 190.792 82.0538 176.991 76.2743 173.555C80.6589 168.759 88.2369 166.239 94.7884 167.297C94.4357 165.397 94.2006 163.497 93.8441 161.608C85.5294 160.358 75.9686 163.72 71.3999 170.62ZM44.7709 207.131C45.0412 207.828 45.2724 208.71 45.39 209.451C46.4127 213.467 42.5688 219.768 37.9099 216.943C37.9177 216.954 37.9216 216.962 37.9295 216.974C37.8041 216.821 37.7492 216.723 37.8824 216.899C35.7822 212.566 35.3394 204.694 36.9342 198.965C39.0344 200.129 40.9623 201.638 42.51 203.444C43.4347 204.561 44.2419 205.791 44.7709 207.131ZM79.0759 182.786C79.5343 183.719 79.3149 185.161 78.2844 185.717C78.304 185.71 78.3431 185.69 78.4097 185.663C77.9004 185.956 77.3361 186.101 76.6935 185.949C76.6504 185.941 76.67 185.945 76.8346 186C74.4052 185.408 73.4962 182.559 73.4452 180.412C73.4452 180.412 73.4374 180.428 73.4296 180.428C73.4531 180.4 73.4295 180.063 73.4531 180.173C73.5549 179.244 73.6999 178.335 74.0251 177.457C75.3613 178.32 76.576 179.346 77.6143 180.526C78.1903 181.243 78.7036 181.94 79.0759 182.786Z" fill="#C1D5EA" fill-opacity="0.5"/>
<path d="M344.089 249.52C352.305 245.578 359.029 239.262 366.486 234.172C370.302 231.374 372.783 228.733 373.586 224.129C374.918 206.109 373.484 202.488 392.492 195.666C390.117 191.047 387.582 186.462 385.086 181.948C379.855 183.9 374.303 190.561 370.929 194.699C360.471 205.114 378.484 216.269 364.683 224.787C359.292 228.122 353.066 229.964 347.65 233.177C342.2 236.413 337.42 239.168 330.884 240.32C334.222 243.207 337.565 246.095 340.903 248.979C341.749 249.884 342.968 250.135 344.089 249.52Z" fill="#C1D5EA" fill-opacity="0.5"/>
<path d="M178.844 225.849C181.481 232.785 186.32 238.752 190.027 245.19C192.092 248.501 194.149 250.734 198.072 251.82C213.283 254.437 217.122 254.092 220.986 269.64C225.229 268.191 229.457 266.612 233.623 265.056C232.431 260.699 227.177 255.624 223.905 252.537C216.123 243.294 204.204 256.373 198.358 244.657C195.979 240.034 194.98 234.893 192.707 230.265C190.419 225.606 188.487 221.527 188.115 216.206C186.309 218.408 177.504 223.357 178.844 225.849Z" fill="#B4B6D9" fill-opacity="0.5"/>
<path d="M434.993 330.849C444.813 337.138 442.799 315.763 452.591 326.276C456.513 330.629 459.871 336.315 463.828 340.664C465.995 338.928 467.688 334.904 470.819 335.088C466.328 330.132 461.419 325.872 456.689 321.19C453.848 318.459 451.584 316.97 448.946 317.82C436.028 326.264 434.735 319.172 427.458 309.458C425.997 313.416 424.614 317.515 423.25 321.554C426.189 325.963 431.635 329.023 434.993 330.849Z" fill="#F2ADAD" fill-opacity="0.5"/>
<path opacity="0.9" d="M16.4214 110.27L9.99143 105.094L1.89617 107.233L5.0504 99.7728L0.422852 93.0568L8.80417 93.6249L14.043 87.3359L16.0649 95.1452L23.9289 97.9742L16.8015 102.233L16.4214 110.27Z" fill="#EFCEE1" fill-opacity="0.5"/>
<path opacity="0.54" d="M126.06 270.546C125.716 289.875 95.7052 289.871 95.3643 270.546C95.713 251.22 125.72 251.22 126.06 270.546Z" fill="#F4D4CB" fill-opacity="0.5"/>
<path d="M505.488 332.545L514.614 321.75L510.504 308.428L524.042 313.408L535.993 305.544L535.236 319.419L546.733 327.882L532.729 331.476L527.882 344.567L519.982 332.918L505.488 332.545Z" fill="#C1D5EA" fill-opacity="0.5"/>
<path d="M278.966 160.793C286.132 162.45 293.46 163.277 300.76 164.12C301.473 164.288 302.554 164.472 302.68 165.334C302.668 165.311 302.652 165.283 302.644 165.268C302.715 165.538 302.687 165.832 302.684 166.11C302.676 166.275 302.613 166.643 302.68 166.283C301.504 171.941 296.88 176.741 298.029 182.838C299.102 190.996 308.177 194.843 314.967 189.585C318.032 187.947 322.973 183.386 326.186 186.509C328.274 192.876 326.625 199.906 327.056 206.508C328.341 206.669 329.622 206.841 330.903 207.029C330.276 199.326 333.102 190.251 327.914 183.629C319.438 174.676 310.438 192.516 302.954 186.411V186.427C302.946 186.395 302.911 186.372 302.887 186.344C302.715 186.16 302.813 186.223 302.891 186.309C302.194 185.467 301.935 184.577 301.755 183.562C301.829 183.907 301.751 183.523 301.739 183.378C301.696 182.853 301.708 182.332 301.739 181.807C301.739 181.799 301.767 181.497 301.771 181.49C302.315 176.415 306.582 172.462 306.535 167.297C306.555 162.544 301.955 159.563 297.343 159.512C291.383 158.947 285.455 158.081 279.605 156.851C279.393 158.168 279.185 159.48 278.966 160.793Z" fill="#E6A67B" fill-opacity="0.5"/>
<path d="M302.645 165.268C302.621 165.205 302.602 165.181 302.645 165.268Z" fill="#E6A67B" fill-opacity="0.5"/>
<path d="M302.947 186.415C302.947 186.387 302.919 186.348 302.884 186.309C302.919 186.36 302.935 186.391 302.947 186.415Z" fill="#E6A67B" fill-opacity="0.5"/>
<path d="M119.023 101.219C119.443 101.325 120.779 101.987 120.814 101.991C122.562 103.025 123.78 104.095 125.305 106.183C133.4 117.1 126.327 132.957 122.452 145.124C119.509 153.219 119.807 164.915 129.529 168.493C133.545 170.064 137.831 168.493 141.93 169.32C142.153 169.371 142.584 169.625 142.69 169.778C146.201 175.534 141.162 181.944 139.179 187.426C137.107 192.438 135.469 197.618 134.278 202.884C136.009 204.871 137.671 206.912 139.273 208.989C140.688 197.837 147.384 188.194 149.528 177.34C149.943 171.894 146.377 166.267 140.915 164.496C137.016 163.093 132.847 164.688 128.905 163.799C125.869 162.243 126.39 157.208 126.605 154.363C131.386 134.345 144.43 113.311 121.613 97.9707C120.712 99.1266 119.588 99.9533 118.698 101.105C118.816 101.152 118.969 101.203 119.023 101.219Z" fill="#EFCEE1" fill-opacity="0.5"/>
<path d="M245.358 192.304C245.052 209.549 218.278 209.545 217.973 192.304C218.282 175.059 245.052 175.063 245.358 192.304Z" fill="#EFCEE1" fill-opacity="0.5"/>
<path d="M364.875 379.624C364.455 403.099 328.011 403.095 327.596 379.624C328.011 356.149 364.459 356.153 364.875 379.624Z" fill="#B4B6D9" fill-opacity="0.5"/>
<path d="M394.157 333.987C380.219 344.9 362.927 325.32 376.469 313.961C390.403 303.048 407.694 322.628 394.157 333.987Z" fill="#FAE285" fill-opacity="0.5"/>
<path opacity="0.6" d="M406.092 298.377C407.197 297.284 408.364 296.242 409.567 295.247C401.711 292.01 392.895 290.874 384.596 292.837C376.465 282.543 361.078 278.472 348.198 283.209C340.738 269.409 319.939 271.556 311.162 283.041C309.869 284.965 313.396 288.562 315.237 286.485C321.949 278.002 338.312 273.994 344.715 284.698C333.795 290.419 320.104 304.02 325.209 316.864C328.693 324.07 339.221 323.502 343.489 317.303C348.637 308.855 351.889 297.895 350.111 288.139C360.322 284.158 373.276 285.478 380.67 294.016C372.668 296.822 366.258 303.647 364.315 311.613C362.171 318.51 365.032 328.839 374.185 328.106C388.53 326.374 392.918 308.393 387.37 297.37C393.475 295.999 400.136 296.438 406.092 298.377ZM328.948 315.708C326.981 305.215 337.525 295.035 346.157 289.937C347.121 296.967 339.942 325.093 328.948 315.708ZM369.24 322.632C365.2 312.914 374.024 301.763 383.499 298.499C384.369 300.435 384.921 302.515 385.093 304.713C386.222 312.793 379.196 326.319 369.24 322.632Z" fill="#F4D4CB" fill-opacity="0.5"/>
<path d="M57.8388 302.288C18.5654 300.192 38.1727 332.804 3.71491 338.239C3.36226 339.563 3.02527 340.892 2.74707 342.236C3.2447 343.066 3.27996 343.905 3.0331 344.649C41.95 340.794 19.4235 306.402 60.0449 308.479C59.2965 306.414 58.5637 304.353 57.8388 302.288Z" fill="#FAE285" fill-opacity="0.5"/>
<path opacity="0.59" d="M9.07892 310.172C9.58046 302.276 21.1239 298.515 23.8001 307.147C36.8442 300.736 44.2734 317.617 28.9135 324.713C26.1785 325.833 17.1821 331.672 15.3522 328.392C12.2841 322.75 8.11501 316.88 9.07892 310.172Z" fill="#E6A67B" fill-opacity="0.5"/>
<path d="M255.217 286.85L258.297 299.902L271.266 304.866L259.265 311.708L258.344 325.057L247.843 316.237L234.305 319.521L239.818 307.229L232.373 295.909L246.279 297.131L255.217 286.85Z" fill="#EFCEE1" fill-opacity="0.5"/>
<path opacity="0.87" d="M108.655 364.668C111.507 353.845 97.4211 344.053 89.8861 354.406C76.3757 340.837 56.4314 358.348 74.9534 375.674C77.8843 378.17 88.3266 390.106 91.8414 386.317C98.5574 380.11 106.927 374.048 108.655 364.668Z" fill="#EFCEE1" fill-opacity="0.5"/>
</svg>
