<svg width="441" height="441" viewBox="0 0 441 441" fill="none" xmlns="http://www.w3.org/2000/svg">
<path fill-rule="evenodd" clip-rule="evenodd" d="M194.496 307.14L184.863 291.412L207.183 265.571C264.539 304.088 343.947 300.55 397.983 249.843C455.339 192.53 455.339 100.27 397.983 42.9727C340.626 -14.3242 248.295 -14.3242 191.191 42.9727C140.193 93.6796 133.866 173.279 175.215 230.592L149.826 256.448L130.796 243.253L0.139055 377.129C0.139055 377.129 -2.89866 406.037 19.4206 424.769C38.7021 441 60.7851 441 60.7851 441L194.496 307.14ZM213.258 65.2591C257.912 20.6546 327.94 20.6546 372.594 65.2591C416.996 109.895 416.996 179.869 372.594 224.474C327.94 269.11 257.912 269.11 213.258 224.474C168.855 179.869 168.855 109.895 213.258 65.2591Z" fill="#7E4D28"/>
<path d="M372.528 155.81L342.357 222.5H248.896L218.725 155.81H372.528Z" fill="#7E4D28" stroke="#7E4D28"/>
<path d="M239.61 118.635C248.807 118.636 257.111 121.098 263.101 125.053C269.094 129.011 272.72 134.422 272.72 140.329C272.72 146.236 269.094 151.648 263.101 155.605C257.111 159.56 248.807 162.022 239.61 162.022C230.413 162.022 222.11 159.56 216.12 155.605C210.127 151.648 206.5 146.236 206.5 140.329C206.5 134.422 210.127 129.011 216.12 125.053C222.11 121.098 230.413 118.635 239.61 118.635Z" fill="#7E4D28" stroke="#7E4D28"/>
<path d="M352.391 118.635C361.588 118.636 369.891 121.098 375.881 125.053C381.874 129.011 385.5 134.422 385.5 140.329C385.5 146.236 381.874 151.648 375.881 155.605C369.891 159.56 361.588 162.022 352.391 162.022C343.194 162.022 334.89 159.56 328.9 155.605C322.907 151.648 319.28 146.236 319.28 140.329C319.28 134.422 322.907 129.011 328.9 125.053C334.89 121.098 343.194 118.635 352.391 118.635Z" fill="#7E4D28" stroke="#7E4D28"/>
<path d="M329.237 96.4419C338.434 96.442 346.738 98.9049 352.727 102.86C358.72 106.817 362.346 112.228 362.346 118.135C362.346 124.042 358.72 129.454 352.727 133.412C346.738 137.367 338.434 139.829 329.237 139.829C320.04 139.829 311.736 137.367 305.747 133.412C299.753 129.454 296.126 124.042 296.126 118.135C296.127 112.228 299.753 106.817 305.747 102.86C311.736 98.9049 320.04 96.4419 329.237 96.4419Z" fill="#7E4D28" stroke="#7E4D28"/>
<path d="M262.017 96.4419C271.214 96.442 279.517 98.9049 285.507 102.86C291.5 106.817 295.126 112.228 295.126 118.135C295.126 124.042 291.5 129.454 285.507 133.412C279.517 137.367 271.214 139.829 262.017 139.829C252.82 139.829 244.516 137.367 238.526 133.412C232.533 129.454 228.906 124.042 228.906 118.135C228.906 112.228 232.533 106.817 238.526 102.86C244.516 98.9049 252.82 96.4419 262.017 96.4419Z" fill="#7E4D28" stroke="#7E4D28"/>
<path d="M293.759 111.977C307.396 111.977 319.718 115.436 328.615 121.002C337.519 126.572 342.927 134.203 342.927 142.549C342.927 150.894 337.518 158.525 328.615 164.095C319.718 169.66 307.396 173.119 293.759 173.119C280.123 173.119 267.801 169.66 258.904 164.095C250 158.525 244.591 150.894 244.591 142.549C244.591 134.203 250 126.572 258.904 121.002C267.801 115.436 280.123 111.977 293.759 111.977Z" fill="#7E4D28" stroke="#7E4D28"/>
<path d="M295.627 74.2484C304.824 74.2485 313.128 76.7114 319.117 80.6664C325.11 84.624 328.736 90.0348 328.736 95.9418C328.736 101.849 325.111 107.26 319.117 111.218C313.128 115.173 304.824 117.635 295.627 117.635C286.43 117.635 278.126 115.173 272.137 111.218C266.143 107.26 262.517 101.849 262.517 95.9418C262.517 90.0347 266.143 84.624 272.137 80.6664C278.126 76.7114 286.43 74.2484 295.627 74.2484Z" fill="#7E4D28" stroke="#7E4D28"/>
<path d="M295.626 68.1452C298.624 68.1452 301.318 69.0482 303.25 70.484C305.183 71.9199 306.329 73.8641 306.33 75.9674C306.33 78.0709 305.183 80.0159 303.25 81.4518C301.318 82.8876 298.623 83.7907 295.626 83.7907C292.629 83.7906 289.935 82.8877 288.002 81.4518C286.07 80.0159 284.923 78.0709 284.923 75.9674C284.923 73.8642 286.07 71.9199 288.002 70.484C289.935 69.0482 292.629 68.1452 295.626 68.1452Z" fill="#7E4D28" stroke="#7E4D28"/>
<path d="M315.814 53.4388L307.798 56.6132L300.879 61.8381L298.028 65.8648L296.282 70.687L294.314 76.1217" stroke="#7E4D28" stroke-width="4"/>
</svg>
