<svg width="676" height="397" viewBox="0 0 676 397" fill="none" xmlns="http://www.w3.org/2000/svg">
<path d="M177.016 191.875C174.4 193.794 174.19 197.16 175.926 199.666C185.51 213.534 190.758 230.197 190.811 246.859C190.863 264.292 184.603 280.771 172.806 293.983C164.763 302.996 154.807 310.231 144.625 316.848C138.459 320.853 145.48 329.688 151.624 325.693C170.442 313.466 188.252 298.35 196.583 277.452C203.64 259.746 203.813 240.19 198.822 221.981C195.98 211.61 191.283 201.842 185.111 192.919C183.381 190.423 179.386 190.135 177.016 191.875Z" fill="#E47C98" fill-opacity="0.5"/>
<path d="M337.463 172.842C335.03 160.715 322.94 151.996 310.425 151.692C308.684 151.65 307.352 152.232 306.43 153.144C296.405 154.235 287.46 161.004 284.089 170.268C280.272 180.765 284.493 193.117 293.626 199.723C302.523 206.162 315.914 206.932 325.299 200.94C334.799 194.874 339.618 183.601 337.463 172.842ZM321.141 190.013C316.397 194.37 308.757 195.036 302.964 192.283C296.893 189.4 293.469 182.815 294.365 176.371C295.414 168.852 302.838 163.788 310.44 164.139C311.835 164.202 312.968 163.861 313.838 163.263C318.929 164.469 323.454 167.993 325.441 172.727C327.931 178.641 325.844 185.698 321.141 190.013Z" fill="#EFCEE1" fill-opacity="0.5"/>
<path d="M454.854 247.378C442.654 250.329 430.254 252.416 417.718 253.433C413.356 253.79 406.582 255.268 402.665 252.668C399.525 250.581 398.57 246.109 397.81 242.753C392.431 218.95 389.563 194.35 387.497 170.096C386.307 156.149 385.568 142.171 385.243 128.183C385.075 121.037 373.524 121.011 373.692 128.183C374.321 155.216 376.586 182.17 380.393 208.962C382.186 221.582 383.864 234.48 386.952 246.88C388.184 251.839 390.307 257.072 394.407 260.501C399.142 264.459 405.135 265.277 411.206 264.999C426.93 264.271 442.675 261.796 457.932 258.105C465.13 256.359 462.079 245.632 454.854 247.378Z" fill="#FAE285" fill-opacity="0.5"/>
<path d="M364.899 256.401C353.758 249.925 341.793 243.534 328.722 241.767C315.39 239.964 303.095 244.017 293.526 253.108C284.545 261.644 277.76 272.685 271.18 282.967C264.144 293.956 257.695 305.292 251.855 316.915C245.117 330.327 239.182 344.116 234.055 358.167C233.022 360.999 235.24 364.249 238.097 365.004C241.29 365.843 244.158 363.956 245.196 361.109C253.464 338.454 263.982 316.617 276.586 295.896C282.6 286.008 288.876 275.962 296.221 266.923C302.869 258.739 311.179 252.243 322.468 252.369C335.701 252.515 348.085 259.63 359.08 266.016C365.466 269.723 371.264 260.102 364.899 256.401Z" fill="#B6D6D0" fill-opacity="0.5"/>
<path d="M510.392 348.525C511.965 331.365 509.469 313.937 502.428 298.051C500.378 293.421 497.987 288.566 493.132 286.118C489.226 284.146 484.811 284.272 480.654 285.31C476.433 286.364 472.459 288.43 468.511 290.155C463.708 292.252 458.906 294.349 454.108 296.447C452.808 297.013 451.717 297.909 451.02 299.005C443.811 302.801 436.89 307.111 430.352 311.908C426.735 314.561 427.112 319.421 431.071 321.555C453.825 333.824 477.634 344.184 502.239 352.521C505.39 353.59 510.03 352.458 510.392 348.525ZM488.156 296.158C490.647 297.747 491.884 302.439 492.896 304.977C497.305 316.04 499.544 327.899 499.382 339.749C480.523 332.985 462.151 325.021 444.388 315.909C457.191 307.625 471.132 301.228 485.965 296.887C486.704 296.672 487.323 296.357 487.837 295.985C487.947 296.038 488.052 296.09 488.156 296.158Z" fill="#B4B6D9" fill-opacity="0.5"/>
<path d="M370.377 328.199C366.435 318.441 355.781 311.033 345.494 312.973C344.288 312.464 342.888 312.323 341.494 312.569C330.824 314.472 322.498 323.784 320.689 333.893C318.781 344.583 323.956 355.111 334.321 359.762C344.131 364.166 356.289 363.374 364.484 356.196C372.333 349.328 374.121 337.468 370.377 328.199ZM357.065 347.634C352.761 351.834 346.113 352.353 340.361 350.225C334.866 348.185 331.416 343.325 331.799 337.4C332.109 332.634 334.94 328.099 339.108 325.446C341.279 326.495 343.8 325.907 345.782 324.397C348.189 322.562 352.446 324.203 354.601 325.619C356.651 326.961 358.586 329.525 359.482 331.769C361.611 337.08 361.192 343.618 357.065 347.634Z" fill="#E6A67B" fill-opacity="0.5"/>
<path d="M96.4622 41.8774C92.5195 32.1201 81.8657 24.7117 71.5789 26.6517C70.373 26.1431 68.9731 26.0015 67.5785 26.2479C56.909 28.1512 48.583 37.4627 46.7742 47.5713C44.8657 58.2618 50.0406 68.7898 60.406 73.4403C70.2157 77.8444 82.3742 77.0527 90.5691 69.8751C98.4231 63.0067 100.211 51.147 96.4622 41.8774ZM83.1555 61.3132C78.851 65.5129 72.2028 66.0319 66.4512 63.9033C60.9565 61.8637 57.5067 57.0035 57.8894 51.0789C58.1987 46.313 61.0299 41.7777 65.1981 39.1248C67.3688 40.1734 69.8907 39.5862 71.8725 38.0762C74.2791 36.2411 78.5364 37.8822 80.6913 39.2978C82.7413 40.64 84.6759 43.2038 85.5725 45.4479C87.6959 50.759 87.2765 57.2918 83.1555 61.3132Z" fill="#FAE285" fill-opacity="0.5"/>
<path d="M594.176 191.702C588.587 172.617 576.627 154.812 558.099 145.317C547.917 140.1 536.22 137.421 524.701 138.779C521.607 139.146 518.923 141.075 518.923 144.342C518.923 147.063 521.581 150.271 524.701 149.904C542.579 147.797 559.881 156.353 570.619 169.938C582.327 184.744 586.594 203.677 586.961 221.959C587.208 234.149 585.897 246.297 584.24 258.367C583.831 261.35 587.187 263.929 590.018 263.929C593.478 263.929 595.382 261.36 595.796 258.367C598.832 236.267 600.546 213.429 594.176 191.702Z" fill="#EFCEE1" fill-opacity="0.5"/>
<path d="M539.927 200.935C534.794 192.981 523.8 188.488 514.378 191.503C503.331 195.037 496.887 206.896 499.939 217.66C500.112 218.279 500.363 218.814 500.673 219.275C502.204 223.066 504.988 226.495 508.658 228.922C517.036 234.464 528.733 233.877 536.053 226.961C543.057 220.345 545.217 209.13 539.927 200.935ZM520.387 221.603C517.424 221.299 514.399 219.799 512.569 217.524C511.987 216.8 511.447 215.846 511.101 214.818C511.091 214.776 511.085 214.74 511.075 214.703C510.829 213.822 510.718 212.905 510.734 211.977C510.823 211.195 511.096 210.461 511.631 209.859C512.8 208.532 513.392 206.854 513.235 205.239C514.782 203.352 516.973 201.983 519.642 201.706C525.231 201.124 531.386 205.585 531.36 211.311C531.329 217.02 526.29 222.211 520.387 221.603Z" fill="#C19EC8" fill-opacity="0.5"/>
<path d="M459.646 158.13C451.928 159.714 443.796 155.891 439.051 150.061C433.761 143.565 432.409 134.526 433.625 126.536C435.067 117.056 440.467 108.17 439.696 98.3703C439.004 89.5935 434.349 81.2466 425.252 78.4154C418.163 76.2081 415.128 86.9458 422.18 89.1374C429.572 91.4338 428.518 101.883 426.977 107.567C424.313 117.392 420.785 126.52 421.996 136.885C423.108 146.438 427.255 155.745 435.104 161.947C442.895 168.102 452.783 170.897 462.724 168.857C469.98 167.363 466.908 156.636 459.646 158.13Z" fill="#E6A67B" fill-opacity="0.5"/>
<path d="M667.516 340.813C666.063 335.345 664.669 329.918 661.659 325.021C656.657 316.873 648.279 310.781 638.941 308.07C629.352 305.286 618.992 305.638 610.073 310.168C604.925 312.784 600.332 316.438 594.853 318.441C591.078 319.82 586.904 320.281 582.883 319.93C572.911 319.049 564.04 313.932 558.828 305.569C557.224 302.99 552.972 302.964 550.785 304.641C548.117 306.691 548.284 309.853 549.894 312.438C560.202 328.995 584.267 335.968 602.067 327.538C607.541 324.948 612.291 321.036 617.99 318.876C621.728 317.461 625.86 317.062 629.855 317.492C638.433 318.41 646.696 322.84 651.472 329.949C654.513 334.469 655.509 339.979 656.935 345.091C658.849 351.939 661.345 357.879 666.698 362.891C668.931 364.983 673.031 363.961 674.699 361.785C676.722 359.137 675.732 356.112 673.493 354.01C669.938 350.665 668.701 345.28 667.516 340.813Z" fill="#B6D6D0" fill-opacity="0.5"/>
<path d="M13.6652 347.975C16.7376 352.783 19.7471 357.564 24.1302 361.381C31.418 367.73 41.3011 371.154 51.0479 371.075C61.062 370.992 70.8455 367.694 77.9655 360.82C82.076 356.851 85.332 352.043 89.9458 348.567C93.1231 346.171 96.9662 344.535 100.919 343.723C110.713 341.709 120.764 344.058 128.319 350.56C130.647 352.562 134.716 351.377 136.284 349.144C138.202 346.423 137.065 343.45 134.726 341.442C119.779 328.581 94.6488 328.806 80.2462 341.945C75.8211 345.988 72.4866 351.073 67.7154 354.77C64.5801 357.192 60.7579 358.754 56.8152 359.488C48.3372 361.067 39.0886 359.195 32.3303 353.779C28.0311 350.329 25.3833 345.358 22.442 340.881C18.5045 334.888 14.2891 329.928 7.62522 326.672C4.84642 325.314 1.24448 327.459 0.326954 330.017C-0.789808 333.126 1.09244 335.732 3.87648 337.095C8.31732 339.261 11.1538 344.048 13.6652 347.975Z" fill="#C1D5EA" fill-opacity="0.5"/>
<path d="M89.9971 130.364C89.6196 127.543 86.5944 124.964 83.522 125.567C71.7829 127.863 60.6467 132.551 52.0272 140.719C43.0617 149.218 38.0389 161.031 38.9983 173.168C39.5646 180.304 51.0206 178.862 50.4543 171.732C48.9391 152.584 67.5937 140.001 85.011 136.593C88.0729 136 90.4166 133.494 89.9971 130.364Z" fill="#EFCEE1" fill-opacity="0.5"/>
<path d="M486.16 7.21065C484.985 4.60487 481.336 2.93235 478.557 4.32699C467.935 9.66438 458.587 17.1357 452.657 27.2862C446.486 37.8403 445.06 50.5337 449.474 61.9425C452.07 68.6483 462.666 64.2127 460.07 57.5069C453.108 39.5129 467.416 22.4468 483.166 14.5299C485.929 13.1405 487.465 10.1048 486.16 7.21065Z" fill="#EEC1A3" fill-opacity="0.5"/>
<path d="M200.053 56.2536C193.547 54.1826 190.758 64.0551 197.227 66.1156C207.336 69.3349 212.652 80.5916 211.263 90.3069C209.606 101.889 200.399 111.137 190.107 116.496C177.666 122.966 163.735 124.04 150.04 126.122C136.928 128.109 124.669 132.943 117.413 144.184C110.34 155.137 109.496 169.214 115.51 180.738C118.577 186.621 127.747 181.446 124.685 175.574C120.024 166.635 121.775 155.252 127.978 147.367C136.068 137.08 150.612 136.278 162.828 134.668C176.953 132.801 191.345 129.179 202.874 120.737C213.549 112.92 221.55 101.228 222.085 88.0419C222.635 74.2633 213.79 60.6367 200.053 56.2536Z" fill="#B6D6D0" fill-opacity="0.5"/>
<path d="M644.593 109.009C640.561 89.9244 634.207 71.4113 625.954 53.6427C624.785 51.1208 620.973 50.5231 618.687 51.8077C615.993 53.3281 615.605 56.2747 616.784 58.8071C623.972 74.2897 629.483 90.4958 633.315 107.048C634.118 110.508 635.643 114.677 635.114 118.273C634.679 121.199 631.328 122.227 628.901 123.364C620.863 127.118 612.684 130.573 604.374 133.735C601.711 134.752 599.844 137.159 600.662 140.027C601.359 142.47 604.516 144.619 607.195 143.597C616.658 139.995 626.033 136.11 635.161 131.769C639.403 129.75 643.162 127.134 644.845 122.704C646.528 118.279 645.532 113.471 644.593 109.009Z" fill="#B4B6D9" fill-opacity="0.5"/>
<path d="M548.514 103.242C549.065 100.615 548.734 97.7579 548.682 95.0996C548.614 91.9171 548.498 88.7346 548.336 85.5521C547.623 71.7158 545.982 57.9372 543.475 44.2948C542.852 40.9026 539.669 39.6967 536.948 40.2473C534.547 38.8264 531.867 39.6705 529.98 41.5318C520.731 50.6599 511.624 59.9243 502.674 69.3302C498.139 74.0909 493.646 78.8883 489.195 83.7223C487.019 86.0817 484.911 88.8762 486.279 92.195C487.664 95.561 491.019 96.3999 494.27 97.3594C507.12 101.15 519.971 104.936 532.822 108.726C535.889 109.633 538.977 110.876 542.217 110.163C545.746 109.371 547.827 106.529 548.514 103.242ZM534.751 98.6335C530.184 97.286 525.623 95.9438 521.056 94.5963C516.49 93.2489 511.928 91.9067 507.362 90.5592C504.997 89.8619 502.627 89.1646 500.263 88.4672C499.964 88.3781 499.618 88.289 499.245 88.1998C499.859 87.5392 500.472 86.8734 501.086 86.2127C502.69 84.4825 504.305 82.7628 505.92 81.0431C509.501 77.2367 513.103 73.4512 516.731 69.6868C522.446 63.7622 528.224 57.8952 534.059 52.0807C536.518 67.06 537.949 82.2071 538.185 97.3646C538.196 98.1249 538.227 98.8904 538.217 99.6506C537.058 99.3098 535.905 98.969 534.751 98.6335Z" fill="#E47C98" fill-opacity="0.5"/>
<path d="M276.429 72.9951C269.593 72.9951 269.582 83.2242 276.429 83.2242C283.266 83.2242 283.277 72.9951 276.429 72.9951Z" fill="#E6A67B" fill-opacity="0.5"/>
<path d="M190.832 19.8779C183.995 19.8779 183.984 30.107 190.832 30.107C197.669 30.107 197.679 19.8779 190.832 19.8779Z" fill="#E6A67B" fill-opacity="0.5"/>
<path d="M256.913 151.236C248.619 137.636 227.028 137.709 213.113 140.278C210.293 140.798 208.688 144.059 209.401 146.57C210.214 149.412 213.108 150.665 215.934 150.141C222.724 148.887 230.069 148.704 236.833 150.235C241.048 151.189 246.469 153.082 248.241 157.303C249.369 159.976 248.682 162.975 247.948 165.649C246.941 169.325 245.688 172.948 244.535 176.586C242.165 184.079 239.795 191.576 237.425 199.068C235.428 205.381 245.678 208.076 247.67 201.789C250.454 192.992 253.238 184.194 256.017 175.396C258.502 167.547 261.611 158.944 256.913 151.236Z" fill="#B4B6D9" fill-opacity="0.5"/>
<path d="M304.95 390.522C304.698 389.657 304.242 388.902 303.581 388.267C302.543 387.35 301.264 386.768 299.828 386.768H298.548C297.819 386.741 297.133 386.888 296.503 387.208C295.843 387.413 295.277 387.769 294.794 388.267C294.275 388.728 293.908 389.279 293.698 389.913C293.368 390.522 293.211 391.182 293.242 391.885C293.305 392.336 293.368 392.792 293.431 393.243C293.683 394.108 294.139 394.863 294.799 395.497C295.838 396.415 297.117 396.997 298.553 396.997H299.833C300.561 397.023 301.248 396.876 301.877 396.556C302.538 396.352 303.104 395.995 303.587 395.497C304.106 395.036 304.473 394.485 304.683 393.851C305.013 393.243 305.17 392.582 305.139 391.88C305.081 391.429 305.013 390.973 304.95 390.522Z" fill="#C1D5EA" fill-opacity="0.5"/>
<path d="M239.749 251.415C239.497 250.55 239.041 249.795 238.38 249.16C237.342 248.243 236.063 247.661 234.626 247.661H233.347C232.618 247.634 231.931 247.781 231.302 248.101C230.642 248.306 230.075 248.662 229.593 249.16C229.074 249.622 228.707 250.172 228.497 250.806C228.167 251.415 228.01 252.075 228.041 252.778C228.104 253.229 228.167 253.685 228.23 254.136C228.481 255.001 228.938 255.756 229.598 256.39C230.636 257.308 231.916 257.89 233.352 257.89H234.631C235.36 257.916 236.047 257.769 236.676 257.449C237.337 257.245 237.903 256.888 238.386 256.39C238.905 255.929 239.272 255.378 239.481 254.744C239.812 254.136 239.969 253.475 239.937 252.773C239.875 252.316 239.812 251.866 239.749 251.415Z" fill="#C1D5EA" fill-opacity="0.5"/>
<path d="M369.487 7.93941C361.691 12.8888 354.728 19.2538 349.239 26.5416C348.94 26.4263 348.652 26.3057 348.353 26.2008C338.706 22.8034 327.8 23.9044 319.82 30.4477C312.129 36.755 306.839 49.1862 314.787 57.3391C320.801 63.5049 331.717 63.0697 338.632 58.6184C345.359 54.2876 348.783 47.2096 352.574 40.5247C353.161 41.0386 353.716 41.5786 354.241 42.1291C360.359 48.5885 362.635 57.617 362.834 66.1473C363.054 75.4852 360.538 85.4154 354.162 92.6613C348.206 99.4352 338.853 103.504 329.635 101.737C322.924 100.447 320.806 110.477 327.512 111.762C337.809 113.738 348.736 110.76 356.815 104.369C365.235 97.705 370.421 88.147 372.424 77.9022C375.548 61.911 371.6 42.3755 358.367 31.7584C364.433 24.0145 372.486 17.0675 381.546 13.0356C386.506 10.8231 392.389 9.23443 397.789 10.9279C401.601 12.1286 405.601 15.0752 406.262 19.107C406.708 21.8334 408.878 24.0617 411.924 23.8624C414.598 23.6894 417.309 21.157 416.863 18.4149C415.364 9.22919 407.782 2.45522 398.439 0.54676C388.242 -1.53472 377.85 2.62823 369.487 7.93941ZM334.286 48.924C331.963 50.9845 329.714 51.7658 326.678 51.7395C325.97 51.7343 324.35 51.4302 323.574 51.0527C322.531 50.5494 322.112 50.1457 321.807 49.3644C320.643 46.3445 322.463 42.6272 324.476 40.3203C326.867 37.5782 330.128 35.6854 333.735 34.8361C336.986 34.0706 340.326 34.3432 343.466 35.3237C342.795 36.4666 342.14 37.6201 341.495 38.7788C339.487 42.3808 337.447 46.119 334.286 48.924Z" fill="#C1D5EA" fill-opacity="0.5"/>
<path d="M113.796 265.052C109.198 257.224 103.074 250.104 95.896 244.337C96.0323 244.059 96.1791 243.791 96.3102 243.508C100.489 234.475 100.085 223.92 93.846 215.809C87.8322 207.992 75.3119 202.062 66.3254 209.151C59.5252 214.509 59.2368 225.027 63.3788 231.968C67.4107 238.721 74.5097 242.496 81.1788 246.591C80.6021 247.121 80.0097 247.619 79.4015 248.085C72.2919 253.522 62.7811 255.095 53.9309 254.707C44.2418 254.283 34.1176 251.189 27.0447 244.578C20.428 238.396 16.8471 229.132 19.3061 220.397C21.0939 214.037 10.8491 211.321 9.06119 217.676C6.31385 227.433 8.65749 238.134 14.7289 246.324C21.0625 254.865 30.61 260.496 41.096 263.112C57.4542 267.201 77.9597 264.732 89.8665 252.741C97.4794 259.091 104.128 267.306 107.693 276.277C109.648 281.195 110.896 286.952 108.773 292.022C107.273 295.603 103.944 299.247 99.7234 299.603C96.866 299.844 94.4122 301.779 94.4122 304.715C94.4122 307.295 96.8502 310.074 99.7234 309.827C109.344 309.009 116.879 302.188 119.49 293.343C122.337 283.712 118.729 273.446 113.796 265.052ZM73.718 228.45C71.7414 226.075 71.0861 223.868 71.322 220.948C71.3744 220.271 71.8044 218.735 72.2448 218.012C72.8372 217.047 73.2829 216.664 74.1113 216.428C77.32 215.516 81.0478 217.513 83.3023 219.605C85.9762 222.085 87.7221 225.352 88.3565 228.875C88.928 232.052 88.4195 235.235 87.1874 238.192C86.0496 237.474 84.8962 236.761 83.7375 236.063C80.146 233.893 76.4077 231.68 73.718 228.45Z" fill="#E6A67B" fill-opacity="0.5"/>
</svg>
