<svg width="474" height="474" viewBox="0 0 474 474" fill="none" xmlns="http://www.w3.org/2000/svg">
<path d="M456.073 236.985C456.073 230.299 455.725 223.699 455.139 217.172H473.97C464.43 101.62 372.35 9.5404 256.798 0V18.8306C250.265 18.245 243.665 17.8973 236.985 17.8973C230.306 17.8973 223.699 18.245 217.172 18.8306V0C101.62 9.5404 9.5404 101.62 0 217.172H18.8307C18.2451 223.705 17.8973 230.305 17.8973 236.985C17.8973 243.671 18.2451 250.271 18.8307 256.798H0C9.5404 372.35 101.62 464.43 217.172 473.97V455.139C223.705 455.725 230.306 456.073 236.985 456.073C243.665 456.073 250.271 455.725 256.798 455.139V473.97C372.35 464.43 464.43 372.35 473.97 256.798H455.139C455.725 250.271 456.073 243.671 456.073 236.985Z" fill="#7E4D28" fill-opacity="0.8"/>
<path d="M236.979 441.518C124.202 441.518 32.4458 349.762 32.4458 236.985C32.4458 124.208 124.196 32.4521 236.979 32.4521C349.756 32.4521 441.512 124.208 441.512 236.985C441.512 349.762 349.762 441.518 236.979 441.518ZM236.979 36.4172C126.38 36.4172 36.4046 126.392 36.4046 236.991C36.4046 347.59 126.38 437.565 236.979 437.565C347.578 437.565 437.553 347.59 437.553 236.991C437.553 126.392 347.578 36.4172 236.979 36.4172Z" fill="white"/>
<path d="M200.812 283.625L198.939 331.016L223.419 301.169L200.812 283.625Z" fill="white"/>
<path d="M334.115 137.604C295.051 153.324 168.976 205.875 121.256 225.785C114.955 228.415 115.388 237.473 121.903 239.504L176.626 256.578L299.309 182.195C300.059 181.744 300.828 182.744 300.193 183.348L206.394 272.518C206.394 272.518 264.063 314.754 291.421 334.701C298.162 339.611 307.721 335.836 309.258 327.637C317.121 285.773 336.781 181.103 343.497 145.32C344.516 139.934 339.197 135.554 334.115 137.604Z" fill="white"/>
</svg>
