<svg width="474" height="474" viewBox="0 0 474 474" fill="none" xmlns="http://www.w3.org/2000/svg">
<path d="M456.073 236.985C456.073 230.299 455.725 223.699 455.139 217.172H473.97C464.43 101.62 372.35 9.5404 256.798 0V18.8307C250.265 18.2451 243.665 17.8973 236.985 17.8973C230.299 17.8973 223.699 18.2451 217.172 18.8307V0C101.62 9.5404 9.5404 101.62 0 217.172H18.8307C18.2451 223.705 17.8974 230.306 17.8974 236.985C17.8974 243.671 18.2451 250.271 18.8307 256.798H0C9.5404 372.35 101.62 464.43 217.172 473.97V455.139C223.705 455.725 230.306 456.073 236.985 456.073C243.671 456.073 250.271 455.725 256.798 455.139V473.97C372.35 464.43 464.43 372.35 473.97 256.798H455.139C455.719 250.265 456.073 243.665 456.073 236.985Z" fill="#7E4D28" fill-opacity="0.8"/>
<path d="M236.979 441.518C124.202 441.518 32.4458 349.762 32.4458 236.985C32.4458 124.208 124.196 32.4521 236.979 32.4521C349.762 32.4521 441.512 124.208 441.512 236.985C441.512 349.762 349.762 441.518 236.979 441.518ZM236.979 36.411C126.38 36.411 36.4047 126.386 36.4047 236.985C36.4047 347.584 126.38 437.559 236.979 437.559C347.578 437.559 437.553 347.584 437.553 236.985C437.553 126.386 347.578 36.411 236.979 36.411Z" fill="white"/>
<path d="M218.51 204.375V246.373C218.51 246.373 174.357 242.783 174.357 285.855C174.357 325.953 240.768 319.593 240.768 284.056C240.768 248.519 240.768 115 240.768 115H284.205C284.205 115 280.975 173.148 342 171.713V216.893C342 216.893 305.384 216.937 284.921 198.631V296.981C284.921 296.981 275.589 358 209.178 358C142.767 358 132 307.391 132 280.47C132 253.553 149.948 204.375 218.51 204.375Z" fill="white"/>
</svg>
